NotoSansSinhala-CondensedLight.ufo
<glyph name="exclam.sinh" format="2">
  <advance width="212"/>
  <unicode hex="0021"/>
  <outline>
    <contour>
      <point x="118" y="174" type="line"/>
      <point x="120" y="714" type="line"/>
      <point x="92" y="714" type="line"/>
      <point x="94" y="174" type="line"/>
    </contour>
    <contour>
      <point x="80" y="23" type="curve" smooth="yes"/>
      <point x="80" y="6"/>
      <point x="85" y="-8"/>
      <point x="105" y="-8" type="curve" smooth="yes"/>
      <point x="129" y="-8"/>
      <point x="132" y="6"/>
      <point x="132" y="23" type="curve" smooth="yes"/>
      <point x="132" y="39"/>
      <point x="129" y="54"/>
      <point x="105" y="54" type="curve" smooth="yes"/>
      <point x="85" y="54"/>
      <point x="80" y="39"/>
    </contour>
  </outline>
</glyph>
<glyph name="quotedbl.sinh" format="2">
  <advance width="305"/>
  <unicode hex="0022"/>
  <outline>
    <contour>
      <point x="99" y="799" type="line"/>
      <point x="71" y="799" type="line"/>
      <point x="74" y="541" type="line"/>
      <point x="95" y="541" type="line"/>
    </contour>
    <contour>
      <point x="234" y="799" type="line"/>
      <point x="206" y="799" type="line"/>
      <point x="209" y="541" type="line"/>
      <point x="230" y="541" type="line"/>
    </contour>
  </outline>
</glyph>
<glyph name="percent.sinh" format="2">
  <advance width="596"/>
  <unicode hex="0025"/>
  <outline>
    <contour>
      <point x="54" y="502" type="curve" smooth="yes"/>
      <point x="54" y="348"/>
      <point x="89" y="276"/>
      <point x="153" y="276" type="curve" smooth="yes"/>
      <point x="216" y="276"/>
      <point x="251" y="348"/>
      <point x="251" y="501" type="curve" smooth="yes"/>
      <point x="251" y="654"/>
      <point x="219" y="724"/>
      <point x="152" y="724" type="curve" smooth="yes"/>
      <point x="86" y="724"/>
      <point x="54" y="654"/>
    </contour>
    <contour>
      <point x="81" y="501" type="curve" smooth="yes"/>
      <point x="81" y="637"/>
      <point x="105" y="699"/>
      <point x="152" y="699" type="curve" smooth="yes"/>
      <point x="200" y="699"/>
      <point x="224" y="637"/>
      <point x="224" y="501" type="curve" smooth="yes"/>
      <point x="224" y="365"/>
      <point x="199" y="304"/>
      <point x="153" y="304" type="curve" smooth="yes"/>
      <point x="106" y="304"/>
      <point x="81" y="365"/>
    </contour>
    <contour>
      <point x="427" y="714" type="line"/>
      <point x="400" y="714" type="line"/>
      <point x="169" y="0" type="line"/>
      <point x="196" y="0" type="line"/>
    </contour>
    <contour>
      <point x="345" y="217" type="curve" smooth="yes"/>
      <point x="345" y="63"/>
      <point x="380" y="-9"/>
      <point x="444" y="-9" type="curve" smooth="yes"/>
      <point x="507" y="-9"/>
      <point x="542" y="63"/>
      <point x="542" y="216" type="curve" smooth="yes"/>
      <point x="542" y="369"/>
      <point x="510" y="439"/>
      <point x="443" y="439" type="curve" smooth="yes"/>
      <point x="377" y="439"/>
      <point x="345" y="369"/>
    </contour>
    <contour>
      <point x="372" y="216" type="curve" smooth="yes"/>
      <point x="372" y="352"/>
      <point x="396" y="414"/>
      <point x="443" y="414" type="curve" smooth="yes"/>
      <point x="491" y="414"/>
      <point x="515" y="352"/>
      <point x="515" y="216" type="curve" smooth="yes"/>
      <point x="515" y="80"/>
      <point x="490" y="19"/>
      <point x="444" y="19" type="curve" smooth="yes"/>
      <point x="397" y="19"/>
      <point x="372" y="80"/>
    </contour>
  </outline>
</glyph>
<glyph name="quotesingle.sinh" format="2">
  <advance width="170"/>
  <unicode hex="0027"/>
  <outline>
    <contour>
      <point x="99" y="799" type="line"/>
      <point x="71" y="799" type="line"/>
      <point x="74" y="541" type="line"/>
      <point x="95" y="541" type="line"/>
    </contour>
  </outline>
</glyph>
<glyph name="asterisk.sinh" format="2">
  <advance width="496"/>
  <unicode hex="002A"/>
  <outline>
    <contour>
      <point x="262" y="799" type="line"/>
      <point x="234" y="799" type="line"/>
      <point x="237" y="606" type="line"/>
      <point x="55" y="669" type="line"/>
      <point x="46" y="642" type="line"/>
      <point x="231" y="587" type="line"/>
      <point x="117" y="435" type="line"/>
      <point x="140" y="419" type="line"/>
      <point x="248" y="576" type="line"/>
      <point x="357" y="418" type="line"/>
      <point x="380" y="435" type="line"/>
      <point x="265" y="587" type="line"/>
      <point x="450" y="642" type="line"/>
      <point x="442" y="669" type="line"/>
      <point x="259" y="606" type="line"/>
    </contour>
  </outline>
</glyph>
<glyph name="comma.sinh" format="2">
  <advance width="200"/>
  <unicode hex="002C"/>
  <outline>
    <contour>
      <point x="131" y="116" type="line"/>
      <point x="106" y="116" type="line"/>
      <point x="99" y="44"/>
      <point x="76" y="-60"/>
      <point x="49" y="-129" type="curve"/>
      <point x="71" y="-129" type="line"/>
      <point x="101" y="-60"/>
      <point x="126" y="25"/>
      <point x="137" y="107" type="curve"/>
    </contour>
  </outline>
</glyph>
<glyph name="hyphen.sinh" format="2">
  <advance width="304"/>
  <unicode hex="002D"/>
  <outline>
    <contour>
      <point x="38" y="303" type="line"/>
      <point x="266" y="303" type="line"/>
      <point x="266" y="329" type="line"/>
      <point x="38" y="329" type="line"/>
    </contour>
  </outline>
</glyph>
<glyph name="period.sinh" format="2">
  <advance width="200"/>
  <unicode hex="002E"/>
  <outline>
    <contour>
      <point x="74" y="23" type="curve" smooth="yes"/>
      <point x="74" y="6"/>
      <point x="79" y="-8"/>
      <point x="99" y="-8" type="curve" smooth="yes"/>
      <point x="123" y="-8"/>
      <point x="126" y="6"/>
      <point x="126" y="23" type="curve" smooth="yes"/>
      <point x="126" y="39"/>
      <point x="123" y="54"/>
      <point x="99" y="54" type="curve" smooth="yes"/>
      <point x="79" y="54"/>
      <point x="74" y="39"/>
    </contour>
  </outline>
</glyph>
<glyph name="slash.sinh" format="2">
  <advance width="364"/>
  <unicode hex="002F"/>
  <outline>
    <contour>
      <point x="327" y="799" type="line"/>
      <point x="300" y="799" type="line"/>
      <point x="37" y="-216" type="line"/>
      <point x="64" y="-216" type="line"/>
    </contour>
  </outline>
</glyph>
<glyph name="zero.sinh" format="2">
  <advance width="399"/>
  <unicode hex="0030"/>
  <outline>
    <contour>
      <point x="349" y="360" type="curve" smooth="yes"/>
      <point x="349" y="580"/>
      <point x="314" y="724"/>
      <point x="199" y="724" type="curve" smooth="yes"/>
      <point x="84" y="724"/>
      <point x="49" y="588"/>
      <point x="49" y="358" type="curve" smooth="yes"/>
      <point x="49" y="138"/>
      <point x="84" y="-6"/>
      <point x="199" y="-6" type="curve" smooth="yes"/>
      <point x="314" y="-6"/>
      <point x="349" y="130"/>
    </contour>
    <contour>
      <point x="75" y="359" type="curve" smooth="yes"/>
      <point x="75" y="559"/>
      <point x="103" y="698"/>
      <point x="199" y="698" type="curve" smooth="yes"/>
      <point x="294" y="698"/>
      <point x="323" y="553"/>
      <point x="323" y="359" type="curve" smooth="yes"/>
      <point x="323" y="159"/>
      <point x="295" y="20"/>
      <point x="199" y="20" type="curve" smooth="yes"/>
      <point x="104" y="20"/>
      <point x="75" y="164"/>
    </contour>
  </outline>
</glyph>
<glyph name="three.sinh" format="2">
  <advance width="399"/>
  <unicode hex="0033"/>
  <outline>
    <contour>
      <point x="325" y="556" type="curve" smooth="yes"/>
      <point x="325" y="663"/>
      <point x="264" y="724"/>
      <point x="173" y="724" type="curve" smooth="yes"/>
      <point x="118" y="724"/>
      <point x="71" y="706"/>
      <point x="21" y="670" type="curve"/>
      <point x="35" y="648" type="line"/>
      <point x="75" y="676"/>
      <point x="116" y="698"/>
      <point x="172" y="698" type="curve" smooth="yes"/>
      <point x="249" y="698"/>
      <point x="298" y="650"/>
      <point x="298" y="552" type="curve" smooth="yes"/>
      <point x="298" y="456"/>
      <point x="235" y="383"/>
      <point x="135" y="383" type="curve" smooth="yes"/>
      <point x="94" y="383" type="line"/>
      <point x="94" y="357" type="line"/>
      <point x="129" y="357" type="line" smooth="yes"/>
      <point x="229" y="357"/>
      <point x="307" y="313"/>
      <point x="307" y="191" type="curve" smooth="yes"/>
      <point x="307" y="76"/>
      <point x="253" y="16"/>
      <point x="156" y="16" type="curve" smooth="yes"/>
      <point x="97" y="16"/>
      <point x="59" y="26"/>
      <point x="22" y="41" type="curve"/>
      <point x="22" y="13" type="line"/>
      <point x="64" y="-4"/>
      <point x="118" y="-10"/>
      <point x="158" y="-10" type="curve" smooth="yes"/>
      <point x="273" y="-10"/>
      <point x="334" y="69"/>
      <point x="334" y="189" type="curve" smooth="yes"/>
      <point x="334" y="296"/>
      <point x="281" y="354"/>
      <point x="201" y="369" type="curve"/>
      <point x="201" y="371" type="line"/>
      <point x="264" y="393"/>
      <point x="325" y="446"/>
    </contour>
  </outline>
</glyph>
<glyph name="five.sinh" format="2">
  <advance width="399"/>
  <unicode hex="0035"/>
  <outline>
    <contour>
      <point x="184" y="425" type="curve" smooth="yes"/>
      <point x="141" y="425"/>
      <point x="106" y="418"/>
      <point x="83" y="410" type="curve"/>
      <point x="103" y="688" type="line"/>
      <point x="313" y="688" type="line"/>
      <point x="313" y="714" type="line"/>
      <point x="78" y="714" type="line"/>
      <point x="55" y="394" type="line"/>
      <point x="71" y="379" type="line"/>
      <point x="96" y="390"/>
      <point x="139" y="399"/>
      <point x="179" y="399" type="curve" smooth="yes"/>
      <point x="285" y="399"/>
      <point x="324" y="329"/>
      <point x="324" y="221" type="curve" smooth="yes"/>
      <point x="324" y="103"/>
      <point x="278" y="17"/>
      <point x="161" y="17" type="curve" smooth="yes"/>
      <point x="107" y="17"/>
      <point x="75" y="27"/>
      <point x="47" y="40" type="curve"/>
      <point x="47" y="11" type="line"/>
      <point x="77" y="-1"/>
      <point x="117" y="-9"/>
      <point x="161" y="-9" type="curve" smooth="yes"/>
      <point x="292" y="-9"/>
      <point x="351" y="88"/>
      <point x="351" y="221" type="curve" smooth="yes"/>
      <point x="351" y="341"/>
      <point x="301" y="425"/>
    </contour>
  </outline>
</glyph>
<glyph name="six.sinh" format="2">
  <advance width="399"/>
  <unicode hex="0036"/>
  <outline>
    <contour>
      <point x="52" y="311" type="curve" smooth="yes"/>
      <point x="52" y="93"/>
      <point x="95" y="-10"/>
      <point x="207" y="-10" type="curve" smooth="yes"/>
      <point x="297" y="-10"/>
      <point x="353" y="72"/>
      <point x="353" y="221" type="curve" smooth="yes"/>
      <point x="353" y="358"/>
      <point x="309" y="440"/>
      <point x="209" y="440" type="curve" smooth="yes"/>
      <point x="129" y="440"/>
      <point x="93" y="382"/>
      <point x="79" y="338" type="curve"/>
      <point x="78" y="338" type="line"/>
      <point x="82" y="570"/>
      <point x="141" y="698"/>
      <point x="265" y="698" type="curve" smooth="yes"/>
      <point x="282" y="698"/>
      <point x="307" y="696"/>
      <point x="327" y="691" type="curve"/>
      <point x="327" y="717" type="line"/>
      <point x="306" y="722"/>
      <point x="285" y="724"/>
      <point x="266" y="724" type="curve" smooth="yes"/>
      <point x="145" y="724"/>
      <point x="52" y="627"/>
    </contour>
    <contour>
      <point x="205" y="16" type="curve" smooth="yes"/>
      <point x="98" y="16"/>
      <point x="81" y="159"/>
      <point x="81" y="248" type="curve" smooth="yes"/>
      <point x="81" y="348"/>
      <point x="132" y="414"/>
      <point x="209" y="414" type="curve" smooth="yes"/>
      <point x="296" y="414"/>
      <point x="326" y="336"/>
      <point x="326" y="223" type="curve" smooth="yes"/>
      <point x="326" y="89"/>
      <point x="284" y="16"/>
    </contour>
  </outline>
</glyph>
<glyph name="seven.sinh" format="2">
  <advance width="399"/>
  <unicode hex="0037"/>
  <outline>
    <contour>
      <point x="95" y="0" type="line"/>
      <point x="123" y="0" type="line"/>
      <point x="362" y="692" type="line"/>
      <point x="362" y="714" type="line"/>
      <point x="26" y="714" type="line"/>
      <point x="26" y="688" type="line"/>
      <point x="333" y="688" type="line"/>
    </contour>
  </outline>
</glyph>
<glyph name="nine.sinh" format="2">
  <advance width="399"/>
  <unicode hex="0039"/>
  <outline>
    <contour>
      <point x="347" y="403" type="curve" smooth="yes"/>
      <point x="347" y="621"/>
      <point x="304" y="724"/>
      <point x="192" y="724" type="curve" smooth="yes"/>
      <point x="102" y="724"/>
      <point x="46" y="642"/>
      <point x="46" y="493" type="curve" smooth="yes"/>
      <point x="46" y="356"/>
      <point x="90" y="274"/>
      <point x="190" y="274" type="curve" smooth="yes"/>
      <point x="270" y="274"/>
      <point x="307" y="332"/>
      <point x="320" y="376" type="curve"/>
      <point x="321" y="376" type="line"/>
      <point x="320" y="140"/>
      <point x="262" y="16"/>
      <point x="135" y="16" type="curve" smooth="yes"/>
      <point x="115" y="16"/>
      <point x="92" y="18"/>
      <point x="76" y="23" type="curve"/>
      <point x="76" y="-3" type="line"/>
      <point x="93" y="-8"/>
      <point x="118" y="-10"/>
      <point x="135" y="-10" type="curve" smooth="yes"/>
      <point x="258" y="-10"/>
      <point x="347" y="83"/>
    </contour>
    <contour>
      <point x="194" y="698" type="curve" smooth="yes"/>
      <point x="301" y="698"/>
      <point x="318" y="555"/>
      <point x="318" y="466" type="curve" smooth="yes"/>
      <point x="318" y="366"/>
      <point x="267" y="300"/>
      <point x="190" y="300" type="curve" smooth="yes"/>
      <point x="103" y="300"/>
      <point x="73" y="378"/>
      <point x="73" y="491" type="curve" smooth="yes"/>
      <point x="73" y="625"/>
      <point x="115" y="698"/>
    </contour>
  </outline>
</glyph>
<glyph name="colon.sinh" format="2">
  <advance width="238"/>
  <unicode hex="003A"/>
  <outline>
    <contour>
      <point x="93" y="23" type="curve" smooth="yes"/>
      <point x="93" y="6"/>
      <point x="98" y="-8"/>
      <point x="118" y="-8" type="curve" smooth="yes"/>
      <point x="142" y="-8"/>
      <point x="145" y="6"/>
      <point x="145" y="23" type="curve" smooth="yes"/>
      <point x="145" y="39"/>
      <point x="142" y="54"/>
      <point x="118" y="54" type="curve" smooth="yes"/>
      <point x="98" y="54"/>
      <point x="93" y="39"/>
    </contour>
    <contour>
      <point x="93" y="501" type="curve" smooth="yes"/>
      <point x="93" y="484"/>
      <point x="98" y="470"/>
      <point x="118" y="470" type="curve" smooth="yes"/>
      <point x="142" y="470"/>
      <point x="145" y="484"/>
      <point x="145" y="501" type="curve" smooth="yes"/>
      <point x="145" y="517"/>
      <point x="142" y="532"/>
      <point x="118" y="532" type="curve" smooth="yes"/>
      <point x="98" y="532"/>
      <point x="93" y="517"/>
    </contour>
  </outline>
</glyph>
<glyph name="semicolon.sinh" format="2">
  <advance width="238"/>
  <unicode hex="003B"/>
  <outline>
    <contour>
      <point x="132" y="116" type="line"/>
      <point x="107" y="116" type="line"/>
      <point x="100" y="44"/>
      <point x="79" y="-59"/>
      <point x="50" y="-129" type="curve"/>
      <point x="72" y="-129" type="line"/>
      <point x="102" y="-60"/>
      <point x="127" y="25"/>
      <point x="138" y="107" type="curve"/>
    </contour>
    <contour>
      <point x="93" y="501" type="curve" smooth="yes"/>
      <point x="93" y="484"/>
      <point x="98" y="470"/>
      <point x="118" y="470" type="curve" smooth="yes"/>
      <point x="142" y="470"/>
      <point x="145" y="484"/>
      <point x="145" y="501" type="curve" smooth="yes"/>
      <point x="145" y="517"/>
      <point x="142" y="532"/>
      <point x="118" y="532" type="curve" smooth="yes"/>
      <point x="98" y="532"/>
      <point x="93" y="517"/>
    </contour>
  </outline>
</glyph>
<glyph name="equal.sinh" format="2">
  <advance width="399"/>
  <unicode hex="003D"/>
  <outline>
    <contour>
      <point x="33" y="444" type="line"/>
      <point x="365" y="444" type="line"/>
      <point x="365" y="470" type="line"/>
      <point x="33" y="470" type="line"/>
    </contour>
    <contour>
      <point x="33" y="235" type="line"/>
      <point x="365" y="235" type="line"/>
      <point x="365" y="261" type="line"/>
      <point x="33" y="261" type="line"/>
    </contour>
  </outline>
</glyph>
<glyph name="greater.sinh" format="2">
  <advance width="399"/>
  <unicode hex="003E"/>
  <outline>
    <contour>
      <point x="32" y="180" type="line"/>
      <point x="32" y="151" type="line"/>
      <point x="367" y="354" type="line"/>
      <point x="367" y="377" type="line"/>
      <point x="32" y="555" type="line"/>
      <point x="32" y="526" type="line"/>
      <point x="339" y="365" type="line"/>
    </contour>
  </outline>
</glyph>
<glyph name="question.sinh" format="2">
  <advance width="284"/>
  <unicode hex="003F"/>
  <outline>
    <contour>
      <point x="93" y="170" type="line"/>
      <point x="119" y="170" type="line"/>
      <point x="119" y="189" type="line" smooth="yes"/>
      <point x="119" y="253"/>
      <point x="126" y="298"/>
      <point x="174" y="367" type="curve" smooth="yes"/>
      <point x="217" y="429"/>
      <point x="249" y="478"/>
      <point x="249" y="566" type="curve" smooth="yes"/>
      <point x="249" y="671"/>
      <point x="198" y="724"/>
      <point x="124" y="724" type="curve" smooth="yes"/>
      <point x="83" y="724"/>
      <point x="47" y="710"/>
      <point x="21" y="697" type="curve"/>
      <point x="32" y="673" type="line"/>
      <point x="59" y="687"/>
      <point x="91" y="698"/>
      <point x="123" y="698" type="curve" smooth="yes"/>
      <point x="186" y="698"/>
      <point x="222" y="653"/>
      <point x="222" y="566" type="curve" smooth="yes"/>
      <point x="222" y="483"/>
      <point x="190" y="438"/>
      <point x="150" y="380" type="curve" smooth="yes"/>
      <point x="104" y="313"/>
      <point x="93" y="274"/>
      <point x="93" y="190" type="curve" smooth="yes"/>
    </contour>
    <contour>
      <point x="81" y="23" type="curve" smooth="yes"/>
      <point x="81" y="6"/>
      <point x="86" y="-8"/>
      <point x="106" y="-8" type="curve" smooth="yes"/>
      <point x="130" y="-8"/>
      <point x="133" y="6"/>
      <point x="133" y="23" type="curve" smooth="yes"/>
      <point x="133" y="39"/>
      <point x="130" y="54"/>
      <point x="106" y="54" type="curve" smooth="yes"/>
      <point x="86" y="54"/>
      <point x="81" y="39"/>
    </contour>
  </outline>
</glyph>
<glyph name="bracketleft.sinh" format="2">
  <advance width="310"/>
  <unicode hex="005B"/>
  <outline>
    <contour>
      <point x="265" y="-216" type="line"/>
      <point x="265" y="-190" type="line"/>
      <point x="106" y="-190" type="line"/>
      <point x="106" y="773" type="line"/>
      <point x="265" y="773" type="line"/>
      <point x="265" y="799" type="line"/>
      <point x="80" y="799" type="line"/>
      <point x="80" y="-216" type="line"/>
    </contour>
  </outline>
</glyph>
<glyph name="backslash.sinh" format="2">
  <advance width="364"/>
  <unicode hex="005C"/>
  <outline>
    <contour>
      <point x="64" y="799" type="line"/>
      <point x="37" y="799" type="line"/>
      <point x="300" y="-216" type="line"/>
      <point x="327" y="-216" type="line"/>
    </contour>
  </outline>
</glyph>
<glyph name="bracketright.sinh" format="2">
  <advance width="310"/>
  <unicode hex="005D"/>
  <outline>
    <contour>
      <point x="45" y="-190" type="line"/>
      <point x="45" y="-216" type="line"/>
      <point x="230" y="-216" type="line"/>
      <point x="230" y="799" type="line"/>
      <point x="45" y="799" type="line"/>
      <point x="45" y="773" type="line"/>
      <point x="204" y="773" type="line"/>
      <point x="204" y="-190" type="line"/>
    </contour>
  </outline>
</glyph>
<glyph name="bar.sinh" format="2">
  <advance width="512"/>
  <unicode hex="007C"/>
  <outline>
    <contour>
      <point x="243" y="799" type="line"/>
      <point x="243" y="-216" type="line"/>
      <point x="269" y="-216" type="line"/>
      <point x="269" y="799" type="line"/>
    </contour>
  </outline>
</glyph>
<glyph name="braceright.sinh" format="2">
  <advance width="345"/>
  <unicode hex="007D"/>
  <outline>
    <contour>
      <point x="45" y="799" type="curve"/>
      <point x="45" y="773" type="line"/>
      <point x="151" y="773"/>
      <point x="183" y="747"/>
      <point x="183" y="660" type="curve" smooth="yes"/>
      <point x="183" y="414" type="line" smooth="yes"/>
      <point x="183" y="339"/>
      <point x="204" y="305"/>
      <point x="261" y="292" type="curve"/>
      <point x="261" y="290" type="line"/>
      <point x="203" y="279"/>
      <point x="183" y="233"/>
      <point x="183" y="165" type="curve" smooth="yes"/>
      <point x="183" y="-74" type="line" smooth="yes"/>
      <point x="183" y="-155"/>
      <point x="141" y="-190"/>
      <point x="45" y="-190" type="curve"/>
      <point x="45" y="-216" type="line"/>
      <point x="153" y="-216"/>
      <point x="209" y="-167"/>
      <point x="209" y="-80" type="curve" smooth="yes"/>
      <point x="209" y="161" type="line" smooth="yes"/>
      <point x="209" y="247"/>
      <point x="239" y="278"/>
      <point x="320" y="278" type="curve"/>
      <point x="320" y="304" type="line"/>
      <point x="239" y="304"/>
      <point x="209" y="333"/>
      <point x="209" y="418" type="curve" smooth="yes"/>
      <point x="209" y="666" type="line" smooth="yes"/>
      <point x="209" y="764"/>
      <point x="162" y="799"/>
    </contour>
  </outline>
</glyph>
<glyph name="asciitilde.sinh" format="2">
  <advance width="399"/>
  <unicode hex="007E"/>
  <outline>
    <contour>
      <point x="197" y="342" type="curve" smooth="yes"/>
      <point x="230" y="322"/>
      <point x="253" y="312"/>
      <point x="285" y="312" type="curve" smooth="yes"/>
      <point x="320" y="312"/>
      <point x="349" y="331"/>
      <point x="369" y="354" type="curve"/>
      <point x="369" y="387" type="line"/>
      <point x="340" y="353"/>
      <point x="316" y="338"/>
      <point x="286" y="338" type="curve" smooth="yes"/>
      <point x="254" y="338"/>
      <point x="241" y="346"/>
      <point x="206" y="367" type="curve" smooth="yes"/>
      <point x="181" y="383"/>
      <point x="154" y="395"/>
      <point x="124" y="395" type="curve" smooth="yes"/>
      <point x="84" y="395"/>
      <point x="55" y="374"/>
      <point x="30" y="350" type="curve"/>
      <point x="30" y="317" type="line"/>
      <point x="63" y="352"/>
      <point x="89" y="369"/>
      <point x="124" y="369" type="curve" smooth="yes"/>
      <point x="150" y="369"/>
      <point x="168" y="360"/>
    </contour>
  </outline>
</glyph>
<glyph name="multiply.sinh" format="2">
  <advance width="399"/>
  <unicode hex="00D7"/>
  <outline>
    <contour>
      <point x="38" y="210" type="line"/>
      <point x="56" y="192" type="line"/>
      <point x="199" y="335" type="line"/>
      <point x="342" y="192" type="line"/>
      <point x="360" y="210" type="line"/>
      <point x="217" y="353" type="line"/>
      <point x="360" y="496" type="line"/>
      <point x="342" y="514" type="line"/>
      <point x="199" y="371" type="line"/>
      <point x="56" y="514" type="line"/>
      <point x="38" y="496" type="line"/>
      <point x="181" y="353" type="line"/>
    </contour>
  </outline>
</glyph>
<glyph name="divide.sinh" format="2">
  <advance width="399"/>
  <unicode hex="00F7"/>
  <outline>
    <contour>
      <point x="33" y="340" type="line"/>
      <point x="365" y="340" type="line"/>
      <point x="365" y="366" type="line"/>
      <point x="33" y="366" type="line"/>
    </contour>
    <contour>
      <point x="174" y="174" type="curve" smooth="yes"/>
      <point x="174" y="157"/>
      <point x="178" y="140"/>
      <point x="199" y="140" type="curve" smooth="yes"/>
      <point x="219" y="140"/>
      <point x="224" y="156"/>
      <point x="224" y="176" type="curve" smooth="yes"/>
      <point x="224" y="195"/>
      <point x="219" y="211"/>
      <point x="199" y="211" type="curve" smooth="yes"/>
      <point x="181" y="211"/>
      <point x="174" y="196"/>
    </contour>
    <contour>
      <point x="174" y="530" type="curve" smooth="yes"/>
      <point x="174" y="510"/>
      <point x="179" y="494"/>
      <point x="199" y="494" type="curve" smooth="yes"/>
      <point x="219" y="494"/>
      <point x="224" y="509"/>
      <point x="224" y="529" type="curve" smooth="yes"/>
      <point x="224" y="549"/>
      <point x="219" y="565"/>
      <point x="199" y="565" type="curve" smooth="yes"/>
      <point x="179" y="565"/>
      <point x="174" y="549"/>
    </contour>
  </outline>
</glyph>
<glyph name="dbldanda.sinh" format="2">
  <advance width="467"/>
  <unicode hex="0965"/>
  <outline>
    <contour>
      <point x="158" y="662" type="line"/>
      <point x="158" y="-50" type="line"/>
      <point x="184" y="-50" type="line"/>
      <point x="184" y="662" type="line"/>
    </contour>
    <contour>
      <point x="333" y="662" type="line"/>
      <point x="333" y="-50" type="line"/>
      <point x="359" y="-50" type="line"/>
      <point x="359" y="662" type="line"/>
    </contour>
  </outline>
</glyph>
<glyph name="anusvarasinh" format="2">
  <advance width="350"/>
  <unicode hex="0D82"/>
  <outline>
    <contour>
      <point x="36" y="266" type="curve" smooth="yes"/>
      <point x="36" y="143"/>
      <point x="90" y="74"/>
      <point x="175" y="74" type="curve" smooth="yes"/>
      <point x="260" y="74"/>
      <point x="314" y="143"/>
      <point x="314" y="266" type="curve" smooth="yes"/>
      <point x="314" y="389"/>
      <point x="260" y="458"/>
      <point x="176" y="458" type="curve" smooth="yes"/>
      <point x="90" y="458"/>
      <point x="36" y="389"/>
    </contour>
    <contour>
      <point x="63" y="266" type="curve" smooth="yes"/>
      <point x="63" y="371"/>
      <point x="104" y="432"/>
      <point x="175" y="432" type="curve" smooth="yes"/>
      <point x="247" y="432"/>
      <point x="287" y="372"/>
      <point x="287" y="267" type="curve" smooth="yes"/>
      <point x="287" y="160"/>
      <point x="247" y="100"/>
      <point x="175" y="100" type="curve" smooth="yes"/>
      <point x="103" y="100"/>
      <point x="63" y="161"/>
    </contour>
  </outline>
</glyph>
<glyph name="visargasinh" format="2">
  <advance width="241"/>
  <unicode hex="0D83"/>
  <outline>
    <contour>
      <point x="209" y="427" type="curve" smooth="yes"/>
      <point x="209" y="501"/>
      <point x="174" y="544"/>
      <point x="120" y="544" type="curve" smooth="yes"/>
      <point x="66" y="544"/>
      <point x="32" y="502"/>
      <point x="32" y="428" type="curve" smooth="yes"/>
      <point x="32" y="354"/>
      <point x="66" y="312"/>
      <point x="120" y="312" type="curve" smooth="yes"/>
      <point x="175" y="312"/>
      <point x="209" y="353"/>
    </contour>
    <contour>
      <point x="183" y="428" type="curve" smooth="yes"/>
      <point x="183" y="363"/>
      <point x="155" y="338"/>
      <point x="120" y="338" type="curve" smooth="yes"/>
      <point x="85" y="338"/>
      <point x="58" y="363"/>
      <point x="58" y="428" type="curve" smooth="yes"/>
      <point x="58" y="493"/>
      <point x="85" y="518"/>
      <point x="120" y="518" type="curve" smooth="yes"/>
      <point x="155" y="518"/>
      <point x="183" y="493"/>
    </contour>
    <contour>
      <point x="209" y="115" type="curve" smooth="yes"/>
      <point x="209" y="189"/>
      <point x="174" y="232"/>
      <point x="120" y="232" type="curve" smooth="yes"/>
      <point x="66" y="232"/>
      <point x="32" y="190"/>
      <point x="32" y="116" type="curve" smooth="yes"/>
      <point x="32" y="42"/>
      <point x="66" y="0"/>
      <point x="120" y="0" type="curve" smooth="yes"/>
      <point x="175" y="0"/>
      <point x="209" y="41"/>
    </contour>
    <contour>
      <point x="183" y="116" type="curve" smooth="yes"/>
      <point x="183" y="51"/>
      <point x="155" y="26"/>
      <point x="120" y="26" type="curve" smooth="yes"/>
      <point x="85" y="26"/>
      <point x="58" y="51"/>
      <point x="58" y="116" type="curve" smooth="yes"/>
      <point x="58" y="181"/>
      <point x="85" y="206"/>
      <point x="120" y="206" type="curve" smooth="yes"/>
      <point x="155" y="206"/>
      <point x="183" y="181"/>
    </contour>
  </outline>
</glyph>
<glyph name="asinh" format="2">
  <advance width="500"/>
  <unicode hex="0D85"/>
  <outline>
    <contour>
      <point x="258" y="-11" type="curve" smooth="yes"/>
      <point x="329" y="-11"/>
      <point x="385" y="-2"/>
      <point x="450" y="32" type="curve"/>
      <point x="438" y="55" type="line"/>
      <point x="407" y="40"/>
      <point x="379" y="29"/>
      <point x="349" y="23" type="curve"/>
      <point x="338" y="21" type="line"/>
      <point x="314" y="17"/>
      <point x="288" y="15"/>
      <point x="258" y="15" type="curve" smooth="yes"/>
      <point x="130" y="15"/>
      <point x="65" y="96"/>
      <point x="65" y="228" type="curve" smooth="yes"/>
      <point x="65" y="294"/>
      <point x="85" y="345"/>
      <point x="123" y="378" type="curve" smooth="yes"/>
      <point x="162" y="412"/>
      <point x="216" y="429"/>
      <point x="305" y="429" type="curve" smooth="yes"/>
      <point x="351" y="429" type="line"/>
      <point x="351" y="449" type="line" smooth="yes"/>
      <point x="351" y="545"/>
      <point x="317" y="612"/>
      <point x="247" y="612" type="curve" smooth="yes"/>
      <point x="188" y="612"/>
      <point x="153" y="570"/>
      <point x="153" y="501" type="curve" smooth="yes"/>
      <point x="153" y="492"/>
      <point x="154" y="481"/>
      <point x="155" y="470" type="curve"/>
      <point x="182" y="472" type="line"/>
      <point x="181" y="479"/>
      <point x="180" y="489"/>
      <point x="180" y="498" type="curve" smooth="yes"/>
      <point x="180" y="557"/>
      <point x="203" y="586"/>
      <point x="248" y="586" type="curve" smooth="yes"/>
      <point x="295" y="586"/>
      <point x="324" y="541"/>
      <point x="330" y="455" type="curve"/>
      <point x="304" y="455" type="line" smooth="yes"/>
      <point x="212" y="455"/>
      <point x="147" y="436"/>
      <point x="102" y="395" type="curve" smooth="yes"/>
      <point x="61" y="358"/>
      <point x="38" y="303"/>
      <point x="38" y="229" type="curve" smooth="yes"/>
      <point x="38" y="81"/>
      <point x="114" y="-11"/>
    </contour>
    <contour>
      <point x="330" y="-202" type="line"/>
      <point x="356" y="-202" type="line"/>
      <point x="356" y="417" type="line" smooth="yes"/>
      <point x="356" y="475"/>
      <point x="376" y="524"/>
      <point x="421" y="575" type="curve"/>
      <point x="428" y="582"/>
      <point x="433" y="584"/>
      <point x="443" y="595" type="curve"/>
      <point x="423" y="613" type="line"/>
      <point x="365" y="554"/>
      <point x="334" y="488"/>
      <point x="330" y="430" type="curve"/>
    </contour>
    <contour>
      <point x="402" y="303" type="curve" smooth="yes"/>
      <point x="458" y="303"/>
      <point x="483" y="339"/>
      <point x="483" y="381" type="curve" smooth="yes"/>
      <point x="483" y="410"/>
      <point x="473" y="440"/>
      <point x="458" y="473" type="curve" smooth="yes"/>
      <point x="437" y="517"/>
      <point x="434" y="537"/>
      <point x="434" y="556" type="curve" smooth="yes"/>
      <point x="434" y="574"/>
      <point x="437" y="586"/>
      <point x="443" y="595" type="curve"/>
      <point x="410" y="567" type="line"/>
      <point x="410" y="524"/>
      <point x="417" y="499"/>
      <point x="436" y="459" type="curve" smooth="yes"/>
      <point x="454" y="421"/>
      <point x="457" y="400"/>
      <point x="457" y="384" type="curve" smooth="yes"/>
      <point x="457" y="347"/>
      <point x="437" y="329"/>
      <point x="401" y="329" type="curve" smooth="yes"/>
      <point x="377" y="329"/>
      <point x="358" y="335"/>
      <point x="342" y="344" type="curve"/>
      <point x="336" y="320" type="line"/>
      <point x="351" y="311"/>
      <point x="375" y="303"/>
    </contour>
  </outline>
</glyph>
<glyph name="isinh" format="2">
  <advance width="541"/>
  <unicode hex="0D89"/>
  <outline>
    <contour>
      <point x="197" y="88" type="curve" smooth="yes"/>
      <point x="277" y="88"/>
      <point x="351" y="134"/>
      <point x="351" y="273" type="curve" smooth="yes"/>
      <point x="351" y="392"/>
      <point x="304" y="424"/>
      <point x="260" y="424" type="curve" smooth="yes"/>
      <point x="201" y="424"/>
      <point x="169" y="381"/>
      <point x="169" y="322" type="curve" smooth="yes"/>
      <point x="169" y="262"/>
      <point x="196" y="227"/>
      <point x="249" y="227" type="curve" smooth="yes"/>
      <point x="286" y="227"/>
      <point x="315" y="243"/>
      <point x="341" y="267" type="curve"/>
      <point x="334" y="289" type="line"/>
      <point x="303" y="263"/>
      <point x="282" y="253"/>
      <point x="253" y="253" type="curve" smooth="yes"/>
      <point x="217" y="253"/>
      <point x="196" y="273"/>
      <point x="196" y="322" type="curve" smooth="yes"/>
      <point x="196" y="372"/>
      <point x="220" y="398"/>
      <point x="259" y="398" type="curve" smooth="yes"/>
      <point x="296" y="398"/>
      <point x="325" y="364"/>
      <point x="325" y="274" type="curve"/>
      <point x="327" y="268" type="line"/>
      <point x="324" y="144"/>
      <point x="256" y="114"/>
      <point x="199" y="114" type="curve" smooth="yes"/>
      <point x="119" y="114"/>
      <point x="63" y="178"/>
      <point x="63" y="323" type="curve" smooth="yes"/>
      <point x="63" y="504"/>
      <point x="161" y="586"/>
      <point x="273" y="586" type="curve" smooth="yes"/>
      <point x="417" y="586"/>
      <point x="475" y="468"/>
      <point x="475" y="300" type="curve" smooth="yes"/>
      <point x="475" y="139"/>
      <point x="427" y="26"/>
      <point x="288" y="26" type="curve"/>
      <point x="287" y="0" type="line"/>
      <point x="462" y="3"/>
      <point x="502" y="150"/>
      <point x="502" y="301" type="curve" smooth="yes"/>
      <point x="502" y="491"/>
      <point x="427" y="612"/>
      <point x="273" y="612" type="curve" smooth="yes"/>
      <point x="144" y="612"/>
      <point x="36" y="515"/>
      <point x="36" y="324" type="curve" smooth="yes"/>
      <point x="36" y="159"/>
      <point x="107" y="88"/>
    </contour>
    <contour>
      <point x="267" y="-208" type="curve" smooth="yes"/>
      <point x="366" y="-208"/>
      <point x="401" y="-141"/>
      <point x="401" y="-64" type="curve" smooth="yes"/>
      <point x="401" y="-19"/>
      <point x="392" y="13"/>
      <point x="379" y="45" type="curve"/>
      <point x="366" y="36" type="line"/>
      <point x="358" y="27" type="line"/>
      <point x="367" y="4"/>
      <point x="375" y="-27"/>
      <point x="375" y="-64" type="curve" smooth="yes"/>
      <point x="375" y="-129"/>
      <point x="346" y="-182"/>
      <point x="268" y="-182" type="curve" smooth="yes"/>
      <point x="181" y="-182"/>
      <point x="167" y="-118"/>
      <point x="167" y="-59" type="curve" smooth="yes"/>
      <point x="167" y="-41"/>
      <point x="168" y="-20"/>
      <point x="171" y="-3" type="curve"/>
      <point x="145" y="0" type="line"/>
      <point x="142" y="-15"/>
      <point x="140" y="-39"/>
      <point x="140" y="-57" type="curve" smooth="yes"/>
      <point x="140" y="-134"/>
      <point x="166" y="-208"/>
    </contour>
  </outline>
</glyph>
<glyph name="iisinh" format="2">
  <advance width="498"/>
  <unicode hex="0D8A"/>
  <outline>
    <contour>
      <point x="242" y="-11" type="curve" smooth="yes"/>
      <point x="392" y="-11"/>
      <point x="458" y="110"/>
      <point x="458" y="281" type="curve" smooth="yes"/>
      <point x="458" y="474"/>
      <point x="370" y="563"/>
      <point x="258" y="563" type="curve" smooth="yes"/>
      <point x="242" y="563"/>
      <point x="214" y="558"/>
      <point x="201" y="555" type="curve"/>
      <point x="162" y="523" type="line"/>
      <point x="186" y="532"/>
      <point x="219" y="538"/>
      <point x="253" y="538" type="curve" smooth="yes"/>
      <point x="360" y="538"/>
      <point x="431" y="452"/>
      <point x="431" y="281" type="curve" smooth="yes"/>
      <point x="431" y="129"/>
      <point x="379" y="15"/>
      <point x="243" y="15" type="curve" smooth="yes"/>
      <point x="120" y="15"/>
      <point x="67" y="109"/>
      <point x="67" y="267" type="curve" smooth="yes"/>
      <point x="67" y="393"/>
      <point x="123" y="487"/>
      <point x="243" y="549" type="curve"/>
      <point x="242" y="554" type="line"/>
      <point x="300" y="595"/>
      <point x="354" y="679"/>
      <point x="408" y="792" type="curve"/>
      <point x="384" y="805" type="line"/>
      <point x="338" y="704"/>
      <point x="285" y="614"/>
      <point x="234" y="578" type="curve"/>
      <point x="125" y="510"/>
      <point x="40" y="433"/>
      <point x="40" y="265" type="curve" smooth="yes"/>
      <point x="40" y="95"/>
      <point x="104" y="-11"/>
    </contour>
    <contour>
      <point x="299" y="724" type="curve" smooth="yes"/>
      <point x="299" y="779"/>
      <point x="272" y="805"/>
      <point x="236" y="805" type="curve" smooth="yes"/>
      <point x="201" y="805"/>
      <point x="174" y="779"/>
      <point x="174" y="724" type="curve" smooth="yes"/>
      <point x="174" y="669"/>
      <point x="200" y="643"/>
      <point x="237" y="643" type="curve" smooth="yes"/>
      <point x="272" y="643"/>
      <point x="299" y="669"/>
    </contour>
    <contour>
      <point x="274" y="724" type="curve" smooth="yes"/>
      <point x="274" y="688"/>
      <point x="260" y="667"/>
      <point x="236" y="667" type="curve" smooth="yes"/>
      <point x="212" y="667"/>
      <point x="199" y="688"/>
      <point x="199" y="724" type="curve" smooth="yes"/>
      <point x="199" y="760"/>
      <point x="212" y="781"/>
      <point x="236" y="781" type="curve" smooth="yes"/>
      <point x="260" y="781"/>
      <point x="274" y="760"/>
    </contour>
    <contour>
      <point x="485" y="624" type="curve" smooth="yes"/>
      <point x="485" y="679"/>
      <point x="458" y="705"/>
      <point x="422" y="705" type="curve" smooth="yes"/>
      <point x="387" y="705"/>
      <point x="360" y="679"/>
      <point x="360" y="624" type="curve" smooth="yes"/>
      <point x="360" y="569"/>
      <point x="386" y="543"/>
      <point x="423" y="543" type="curve" smooth="yes"/>
      <point x="458" y="543"/>
      <point x="485" y="569"/>
    </contour>
    <contour>
      <point x="460" y="624" type="curve" smooth="yes"/>
      <point x="460" y="588"/>
      <point x="446" y="567"/>
      <point x="422" y="567" type="curve" smooth="yes"/>
      <point x="398" y="567"/>
      <point x="385" y="588"/>
      <point x="385" y="624" type="curve" smooth="yes"/>
      <point x="385" y="660"/>
      <point x="398" y="681"/>
      <point x="422" y="681" type="curve" smooth="yes"/>
      <point x="446" y="681"/>
      <point x="460" y="660"/>
    </contour>
  </outline>
</glyph>
<glyph name="usinh" format="2">
  <advance width="481"/>
  <unicode hex="0D8B"/>
  <outline>
    <contour>
      <point x="267" y="-194" type="curve" smooth="yes"/>
      <point x="388" y="-194"/>
      <point x="481" y="-119"/>
      <point x="481" y="57" type="curve" smooth="yes"/>
      <point x="481" y="73"/>
      <point x="480" y="85"/>
      <point x="479" y="93" type="curve"/>
      <point x="453" y="92" type="line"/>
      <point x="454" y="83"/>
      <point x="454" y="67"/>
      <point x="454" y="55" type="curve" smooth="yes"/>
      <point x="454" y="-104"/>
      <point x="373" y="-168"/>
      <point x="267" y="-168" type="curve" smooth="yes"/>
      <point x="123" y="-168"/>
      <point x="60" y="-47"/>
      <point x="60" y="111" type="curve" smooth="yes"/>
      <point x="60" y="214"/>
      <point x="85" y="288"/>
      <point x="133" y="341" type="curve" smooth="yes"/>
      <point x="185" y="399"/>
      <point x="257" y="429"/>
      <point x="382" y="429" type="curve" smooth="yes"/>
      <point x="447" y="429" type="line"/>
      <point x="447" y="438" type="line" smooth="yes"/>
      <point x="447" y="545"/>
      <point x="408" y="612"/>
      <point x="331" y="612" type="curve" smooth="yes"/>
      <point x="265" y="612"/>
      <point x="230" y="570"/>
      <point x="230" y="501" type="curve" smooth="yes"/>
      <point x="230" y="492"/>
      <point x="231" y="481"/>
      <point x="232" y="470" type="curve"/>
      <point x="259" y="472" type="line"/>
      <point x="258" y="479"/>
      <point x="257" y="489"/>
      <point x="257" y="498" type="curve" smooth="yes"/>
      <point x="257" y="557"/>
      <point x="280" y="586"/>
      <point x="332" y="586" type="curve" smooth="yes"/>
      <point x="386" y="586"/>
      <point x="415" y="541"/>
      <point x="421" y="455" type="curve"/>
      <point x="378" y="455" type="line" smooth="yes"/>
      <point x="250" y="455"/>
      <point x="174" y="423"/>
      <point x="116" y="362" type="curve" smooth="yes"/>
      <point x="62" y="305"/>
      <point x="33" y="221"/>
      <point x="33" y="112" type="curve" smooth="yes"/>
      <point x="33" y="-55"/>
      <point x="102" y="-194"/>
    </contour>
  </outline>
</glyph>
<glyph name="lvocalicsinh" format="2">
  <advance width="742"/>
  <unicode hex="0D8F"/>
  <outline>
    <contour>
      <point x="371" y="-11" type="curve" smooth="yes"/>
      <point x="535" y="-11"/>
      <point x="610" y="98"/>
      <point x="610" y="247" type="curve" smooth="yes"/>
      <point x="610" y="378"/>
      <point x="536" y="455"/>
      <point x="409" y="455" type="curve" smooth="yes"/>
      <point x="390" y="455" type="line"/>
      <point x="409" y="452" type="line"/>
      <point x="415" y="541"/>
      <point x="444" y="586"/>
      <point x="491" y="586" type="curve" smooth="yes"/>
      <point x="536" y="586"/>
      <point x="559" y="557"/>
      <point x="559" y="498" type="curve" smooth="yes"/>
      <point x="559" y="478"/>
      <point x="557" y="462"/>
      <point x="555" y="452" type="curve"/>
      <point x="581" y="449" type="line"/>
      <point x="584" y="462"/>
      <point x="586" y="487"/>
      <point x="586" y="501" type="curve" smooth="yes"/>
      <point x="586" y="570"/>
      <point x="546" y="612"/>
      <point x="492" y="612" type="curve" smooth="yes"/>
      <point x="422" y="612"/>
      <point x="383" y="543"/>
      <point x="383" y="437" type="curve" smooth="yes"/>
      <point x="383" y="429" type="line"/>
      <point x="396" y="429" type="line" smooth="yes"/>
      <point x="460" y="429"/>
      <point x="502" y="415"/>
      <point x="533" y="387" type="curve" smooth="yes"/>
      <point x="566" y="357"/>
      <point x="583" y="310"/>
      <point x="583" y="247" type="curve" smooth="yes"/>
      <point x="583" y="118"/>
      <point x="523" y="15"/>
      <point x="371" y="15" type="curve" smooth="yes"/>
      <point x="219" y="15"/>
      <point x="159" y="118"/>
      <point x="159" y="247" type="curve" smooth="yes"/>
      <point x="159" y="310"/>
      <point x="176" y="357"/>
      <point x="209" y="387" type="curve" smooth="yes"/>
      <point x="240" y="415"/>
      <point x="282" y="429"/>
      <point x="346" y="429" type="curve" smooth="yes"/>
      <point x="359" y="429" type="line"/>
      <point x="359" y="437" type="line" smooth="yes"/>
      <point x="359" y="543"/>
      <point x="320" y="612"/>
      <point x="250" y="612" type="curve" smooth="yes"/>
      <point x="196" y="612"/>
      <point x="156" y="570"/>
      <point x="156" y="501" type="curve" smooth="yes"/>
      <point x="156" y="487"/>
      <point x="158" y="462"/>
      <point x="161" y="449" type="curve"/>
      <point x="187" y="452" type="line"/>
      <point x="185" y="462"/>
      <point x="183" y="478"/>
      <point x="183" y="498" type="curve" smooth="yes"/>
      <point x="183" y="557"/>
      <point x="206" y="586"/>
      <point x="251" y="586" type="curve" smooth="yes"/>
      <point x="298" y="586"/>
      <point x="327" y="541"/>
      <point x="333" y="452" type="curve"/>
      <point x="352" y="455" type="line"/>
      <point x="333" y="455" type="line" smooth="yes"/>
      <point x="206" y="455"/>
      <point x="132" y="378"/>
      <point x="132" y="247" type="curve" smooth="yes"/>
      <point x="132" y="98"/>
      <point x="207" y="-11"/>
    </contour>
    <contour>
      <point x="39" y="359" type="curve" smooth="yes"/>
      <point x="39" y="246"/>
      <point x="68" y="160"/>
      <point x="99" y="84" type="curve"/>
      <point x="124" y="94" type="line"/>
      <point x="90" y="173"/>
      <point x="66" y="253"/>
      <point x="66" y="357" type="curve" smooth="yes"/>
      <point x="66" y="459"/>
      <point x="99" y="533"/>
      <point x="182" y="579" type="curve" smooth="yes"/>
      <point x="194" y="586"/>
      <point x="216" y="588"/>
      <point x="229" y="588" type="curve" smooth="yes"/>
      <point x="260" y="588"/>
      <point x="275" y="585"/>
      <point x="283" y="583" type="curve"/>
      <point x="292" y="599" type="line"/>
      <point x="275" y="607"/>
      <point x="254" y="611"/>
      <point x="237" y="611" type="curve" smooth="yes"/>
      <point x="129" y="611"/>
      <point x="39" y="515"/>
    </contour>
    <contour>
      <point x="703" y="359" type="curve" smooth="yes"/>
      <point x="703" y="515"/>
      <point x="613" y="611"/>
      <point x="505" y="611" type="curve" smooth="yes"/>
      <point x="488" y="611"/>
      <point x="467" y="607"/>
      <point x="450" y="599" type="curve"/>
      <point x="459" y="583" type="line"/>
      <point x="467" y="585"/>
      <point x="482" y="588"/>
      <point x="513" y="588" type="curve" smooth="yes"/>
      <point x="526" y="588"/>
      <point x="548" y="586"/>
      <point x="560" y="579" type="curve" smooth="yes"/>
      <point x="643" y="533"/>
      <point x="676" y="459"/>
      <point x="676" y="357" type="curve" smooth="yes"/>
      <point x="676" y="253"/>
      <point x="652" y="173"/>
      <point x="618" y="94" type="curve"/>
      <point x="643" y="84" type="line"/>
      <point x="674" y="160"/>
      <point x="703" y="246"/>
    </contour>
  </outline>
</glyph>
<glyph name="esinh" format="2">
  <advance width="572"/>
  <unicode hex="0D91"/>
  <outline>
    <contour>
      <point x="253" y="-11" type="curve" smooth="yes"/>
      <point x="457" y="-11"/>
      <point x="532" y="167"/>
      <point x="532" y="384" type="curve" smooth="yes"/>
      <point x="532" y="548"/>
      <point x="477" y="730"/>
      <point x="279" y="836" type="curve"/>
      <point x="268" y="815" type="line"/>
      <point x="276" y="812"/>
      <point x="284" y="806"/>
      <point x="291" y="802" type="curve" smooth="yes"/>
      <point x="423" y="722"/>
      <point x="505" y="587"/>
      <point x="505" y="385" type="curve" smooth="yes"/>
      <point x="505" y="185"/>
      <point x="442" y="15"/>
      <point x="255" y="15" type="curve" smooth="yes"/>
      <point x="152" y="15"/>
      <point x="70" y="82"/>
      <point x="70" y="224" type="curve" smooth="yes"/>
      <point x="70" y="290"/>
      <point x="88" y="341"/>
      <point x="123" y="375" type="curve" smooth="yes"/>
      <point x="160" y="411"/>
      <point x="209" y="429"/>
      <point x="302" y="429" type="curve" smooth="yes"/>
      <point x="311" y="429" type="line"/>
      <point x="311" y="438" type="line" smooth="yes"/>
      <point x="311" y="545"/>
      <point x="272" y="612"/>
      <point x="202" y="612" type="curve" smooth="yes"/>
      <point x="143" y="612"/>
      <point x="108" y="570"/>
      <point x="108" y="501" type="curve" smooth="yes"/>
      <point x="108" y="494"/>
      <point x="108" y="483"/>
      <point x="109" y="476" type="curve"/>
      <point x="136" y="477" type="line"/>
      <point x="135" y="483"/>
      <point x="135" y="490"/>
      <point x="135" y="498" type="curve" smooth="yes"/>
      <point x="135" y="557"/>
      <point x="158" y="586"/>
      <point x="203" y="586" type="curve" smooth="yes"/>
      <point x="250" y="586"/>
      <point x="279" y="541"/>
      <point x="285" y="455" type="curve"/>
      <point x="26" y="455" type="line"/>
      <point x="26" y="429" type="line"/>
      <point x="86" y="429" type="line" smooth="yes"/>
      <point x="117" y="429"/>
      <point x="160" y="430"/>
      <point x="198" y="436" type="curve"/>
      <point x="213" y="439" type="line"/>
      <point x="126" y="428"/>
      <point x="43" y="373"/>
      <point x="43" y="223" type="curve" smooth="yes"/>
      <point x="43" y="72"/>
      <point x="134" y="-11"/>
    </contour>
    <contour>
      <point x="371" y="540" type="curve" smooth="yes"/>
      <point x="414" y="540"/>
      <point x="451" y="565"/>
      <point x="481" y="626" type="curve"/>
      <point x="461" y="644" type="line"/>
      <point x="431" y="580"/>
      <point x="403" y="566"/>
      <point x="370" y="566" type="curve" smooth="yes"/>
      <point x="327" y="566"/>
      <point x="318" y="603"/>
      <point x="317" y="664" type="curve" smooth="yes"/>
      <point x="315" y="778"/>
      <point x="312" y="800"/>
      <point x="281" y="828" type="curve"/>
      <point x="268" y="815" type="line"/>
      <point x="287" y="800"/>
      <point x="290" y="778"/>
      <point x="291" y="661" type="curve" smooth="yes"/>
      <point x="292" y="565"/>
      <point x="327" y="540"/>
    </contour>
  </outline>
</glyph>
<glyph name="eesinh" format="2">
  <advance width="571"/>
  <unicode hex="0D92"/>
  <outline>
    <contour>
      <point x="466" y="645" type="line"/>
      <point x="466" y="861" type="line"/>
      <point x="456" y="901" type="line"/>
      <point x="455" y="929"/>
      <point x="435" y="959"/>
      <point x="408" y="973" type="curve"/>
      <point x="392" y="949" type="line"/>
      <point x="408" y="940"/>
      <point x="419" y="930"/>
      <point x="426" y="919" type="curve" smooth="yes"/>
      <point x="439" y="899"/>
      <point x="440" y="880"/>
      <point x="440" y="837" type="curve" smooth="yes"/>
      <point x="440" y="771" type="line" smooth="yes"/>
      <point x="440" y="736"/>
      <point x="441" y="700"/>
      <point x="443" y="666" type="curve"/>
    </contour>
    <contour>
      <point x="502" y="806" type="curve" smooth="yes"/>
      <point x="550" y="806"/>
      <point x="571" y="839"/>
      <point x="571" y="891" type="curve" smooth="yes"/>
      <point x="571" y="949"/>
      <point x="542" y="973"/>
      <point x="509" y="973" type="curve" smooth="yes"/>
      <point x="475" y="973"/>
      <point x="455" y="944"/>
      <point x="450" y="913" type="curve"/>
      <point x="466" y="852" type="line"/>
      <point x="466" y="865" type="line" smooth="yes"/>
      <point x="466" y="911"/>
      <point x="475" y="948"/>
      <point x="509" y="948" type="curve" smooth="yes"/>
      <point x="534" y="948"/>
      <point x="546" y="930"/>
      <point x="546" y="890" type="curve" smooth="yes"/>
      <point x="546" y="847"/>
      <point x="531" y="831"/>
      <point x="499" y="831" type="curve" smooth="yes"/>
      <point x="477" y="831"/>
      <point x="466" y="837"/>
      <point x="455" y="843" type="curve"/>
      <point x="449" y="819" type="line"/>
      <point x="462" y="812"/>
      <point x="475" y="806"/>
    </contour>
    <component base="esinh"/>
  </outline>
</glyph>
<glyph name="osinh" format="2">
  <advance width="623"/>
  <unicode hex="0D94"/>
  <outline>
    <contour>
      <point x="418" y="-11" type="curve" smooth="yes"/>
      <point x="515" y="-11"/>
      <point x="580" y="74"/>
      <point x="580" y="352" type="curve" smooth="yes"/>
      <point x="580" y="696"/>
      <point x="472" y="836"/>
      <point x="283" y="836" type="curve" smooth="yes"/>
      <point x="201" y="836"/>
      <point x="130" y="813"/>
      <point x="67" y="779" type="curve"/>
      <point x="79" y="756" type="line"/>
      <point x="138" y="788"/>
      <point x="199" y="810"/>
      <point x="283" y="810" type="curve" smooth="yes"/>
      <point x="459" y="810"/>
      <point x="553" y="675"/>
      <point x="553" y="352" type="curve" smooth="yes"/>
      <point x="553" y="91"/>
      <point x="498" y="15"/>
      <point x="417" y="15" type="curve" smooth="yes"/>
      <point x="337" y="15"/>
      <point x="313" y="109"/>
      <point x="313" y="176" type="curve"/>
      <point x="287" y="176" type="line"/>
      <point x="287" y="97"/>
      <point x="265" y="15"/>
      <point x="189" y="15" type="curve" smooth="yes"/>
      <point x="111" y="15"/>
      <point x="69" y="104"/>
      <point x="69" y="271" type="curve" smooth="yes"/>
      <point x="69" y="421"/>
      <point x="117" y="550"/>
      <point x="167" y="550" type="curve" smooth="yes"/>
      <point x="189" y="550"/>
      <point x="193" y="528"/>
      <point x="193" y="506" type="curve" smooth="yes"/>
      <point x="193" y="476"/>
      <point x="182" y="436"/>
      <point x="182" y="389" type="curve" smooth="yes"/>
      <point x="182" y="320"/>
      <point x="216" y="254"/>
      <point x="303" y="254" type="curve" smooth="yes"/>
      <point x="379" y="254"/>
      <point x="438" y="303"/>
      <point x="438" y="425" type="curve" smooth="yes"/>
      <point x="438" y="544"/>
      <point x="391" y="576"/>
      <point x="347" y="576" type="curve" smooth="yes"/>
      <point x="288" y="576"/>
      <point x="256" y="533"/>
      <point x="256" y="474" type="curve" smooth="yes"/>
      <point x="256" y="414"/>
      <point x="286" y="379"/>
      <point x="339" y="379" type="curve" smooth="yes"/>
      <point x="376" y="379"/>
      <point x="402" y="395"/>
      <point x="428" y="419" type="curve"/>
      <point x="421" y="441" type="line"/>
      <point x="390" y="415"/>
      <point x="369" y="405"/>
      <point x="340" y="405" type="curve" smooth="yes"/>
      <point x="304" y="405"/>
      <point x="283" y="425"/>
      <point x="283" y="474" type="curve" smooth="yes"/>
      <point x="283" y="524"/>
      <point x="307" y="550"/>
      <point x="346" y="550" type="curve" smooth="yes"/>
      <point x="383" y="550"/>
      <point x="412" y="516"/>
      <point x="412" y="425" type="curve" smooth="yes"/>
      <point x="412" y="314"/>
      <point x="360" y="280"/>
      <point x="301" y="280" type="curve" smooth="yes"/>
      <point x="235" y="280"/>
      <point x="208" y="329"/>
      <point x="208" y="391" type="curve" smooth="yes"/>
      <point x="208" y="445"/>
      <point x="219" y="478"/>
      <point x="219" y="510" type="curve" smooth="yes"/>
      <point x="219" y="547"/>
      <point x="205" y="576"/>
      <point x="166" y="576" type="curve" smooth="yes"/>
      <point x="98" y="576"/>
      <point x="42" y="445"/>
      <point x="42" y="271" type="curve" smooth="yes"/>
      <point x="42" y="76"/>
      <point x="101" y="-11"/>
      <point x="186" y="-11" type="curve" smooth="yes"/>
      <point x="254" y="-11"/>
      <point x="286" y="36"/>
      <point x="300" y="102" type="curve"/>
      <point x="315" y="32"/>
      <point x="355" y="-11"/>
    </contour>
  </outline>
</glyph>
<glyph name="oosinh" format="2">
  <advance width="623"/>
  <unicode hex="0D95"/>
  <outline>
    <contour>
      <point x="418" y="-11" type="curve" smooth="yes"/>
      <point x="512" y="-11"/>
      <point x="580" y="69"/>
      <point x="580" y="318" type="curve" smooth="yes"/>
      <point x="580" y="626"/>
      <point x="472" y="756"/>
      <point x="277" y="756" type="curve" smooth="yes"/>
      <point x="201" y="756"/>
      <point x="130" y="742"/>
      <point x="67" y="716" type="curve"/>
      <point x="76" y="692" type="line"/>
      <point x="134" y="717"/>
      <point x="205" y="730"/>
      <point x="277" y="730" type="curve" smooth="yes"/>
      <point x="459" y="730"/>
      <point x="553" y="608"/>
      <point x="553" y="318" type="curve" smooth="yes"/>
      <point x="553" y="86"/>
      <point x="498" y="15"/>
      <point x="417" y="15" type="curve" smooth="yes"/>
      <point x="337" y="15"/>
      <point x="313" y="109"/>
      <point x="313" y="176" type="curve"/>
      <point x="287" y="176" type="line"/>
      <point x="287" y="97"/>
      <point x="265" y="15"/>
      <point x="189" y="15" type="curve" smooth="yes"/>
      <point x="111" y="15"/>
      <point x="69" y="104"/>
      <point x="69" y="271" type="curve" smooth="yes"/>
      <point x="69" y="421"/>
      <point x="117" y="550"/>
      <point x="167" y="550" type="curve" smooth="yes"/>
      <point x="189" y="550"/>
      <point x="193" y="528"/>
      <point x="193" y="506" type="curve" smooth="yes"/>
      <point x="193" y="476"/>
      <point x="182" y="436"/>
      <point x="182" y="389" type="curve" smooth="yes"/>
      <point x="182" y="320"/>
      <point x="216" y="254"/>
      <point x="303" y="254" type="curve" smooth="yes"/>
      <point x="379" y="254"/>
      <point x="438" y="303"/>
      <point x="438" y="425" type="curve" smooth="yes"/>
      <point x="438" y="544"/>
      <point x="391" y="576"/>
      <point x="347" y="576" type="curve" smooth="yes"/>
      <point x="288" y="576"/>
      <point x="256" y="533"/>
      <point x="256" y="474" type="curve" smooth="yes"/>
      <point x="256" y="414"/>
      <point x="286" y="379"/>
      <point x="339" y="379" type="curve" smooth="yes"/>
      <point x="376" y="379"/>
      <point x="402" y="395"/>
      <point x="428" y="419" type="curve"/>
      <point x="421" y="441" type="line"/>
      <point x="390" y="415"/>
      <point x="369" y="405"/>
      <point x="340" y="405" type="curve" smooth="yes"/>
      <point x="304" y="405"/>
      <point x="283" y="425"/>
      <point x="283" y="474" type="curve" smooth="yes"/>
      <point x="283" y="524"/>
      <point x="307" y="550"/>
      <point x="346" y="550" type="curve" smooth="yes"/>
      <point x="383" y="550"/>
      <point x="412" y="516"/>
      <point x="412" y="425" type="curve" smooth="yes"/>
      <point x="412" y="314"/>
      <point x="360" y="280"/>
      <point x="301" y="280" type="curve" smooth="yes"/>
      <point x="235" y="280"/>
      <point x="208" y="329"/>
      <point x="208" y="391" type="curve" smooth="yes"/>
      <point x="208" y="445"/>
      <point x="219" y="478"/>
      <point x="219" y="510" type="curve" smooth="yes"/>
      <point x="219" y="547"/>
      <point x="205" y="576"/>
      <point x="166" y="576" type="curve" smooth="yes"/>
      <point x="98" y="576"/>
      <point x="42" y="445"/>
      <point x="42" y="271" type="curve" smooth="yes"/>
      <point x="42" y="76"/>
      <point x="101" y="-11"/>
      <point x="186" y="-11" type="curve" smooth="yes"/>
      <point x="254" y="-11"/>
      <point x="286" y="36"/>
      <point x="300" y="102" type="curve"/>
      <point x="315" y="32"/>
      <point x="355" y="-11"/>
    </contour>
    <contour>
      <point x="320" y="957" type="curve" smooth="yes"/>
      <point x="151" y="957"/>
      <point x="106" y="884"/>
      <point x="106" y="808" type="curve" smooth="yes"/>
      <point x="106" y="765"/>
      <point x="117" y="735"/>
      <point x="124" y="716" type="curve"/>
      <point x="150" y="723" type="line"/>
      <point x="139" y="748"/>
      <point x="133" y="777"/>
      <point x="133" y="804" type="curve" smooth="yes"/>
      <point x="133" y="875"/>
      <point x="172" y="931"/>
      <point x="320" y="931" type="curve" smooth="yes"/>
      <point x="486" y="931"/>
      <point x="519" y="875"/>
      <point x="519" y="797" type="curve" smooth="yes"/>
      <point x="519" y="756"/>
      <point x="509" y="727"/>
      <point x="495" y="696" type="curve"/>
      <point x="519" y="686" type="line"/>
      <point x="532" y="715"/>
      <point x="546" y="753"/>
      <point x="546" y="796" type="curve" smooth="yes"/>
      <point x="546" y="888"/>
      <point x="506" y="957"/>
    </contour>
  </outline>
</glyph>
<glyph name="kasinh" format="2">
  <advance width="707"/>
  <unicode hex="0D9A"/>
  <outline>
    <contour>
      <point x="367" y="-11" type="curve" smooth="yes"/>
      <point x="448" y="-11"/>
      <point x="485" y="69"/>
      <point x="485" y="196" type="curve" smooth="yes"/>
      <point x="485" y="351"/>
      <point x="417" y="448"/>
      <point x="289" y="448" type="curve" smooth="yes"/>
      <point x="240" y="448"/>
      <point x="205" y="437"/>
      <point x="179" y="420" type="curve"/>
      <point x="164" y="394" type="line"/>
      <point x="208" y="417"/>
      <point x="239" y="422"/>
      <point x="289" y="422" type="curve" smooth="yes"/>
      <point x="396" y="422"/>
      <point x="458" y="343"/>
      <point x="458" y="193" type="curve" smooth="yes"/>
      <point x="458" y="100"/>
      <point x="438" y="15"/>
      <point x="366" y="15" type="curve" smooth="yes"/>
      <point x="313" y="15"/>
      <point x="279" y="62"/>
      <point x="279" y="155" type="curve" smooth="yes"/>
      <point x="279" y="204" type="line"/>
      <point x="253" y="204" type="line"/>
      <point x="253" y="156" type="line" smooth="yes"/>
      <point x="253" y="84"/>
      <point x="228" y="15"/>
      <point x="169" y="15" type="curve" smooth="yes"/>
      <point x="98" y="15"/>
      <point x="87" y="92"/>
      <point x="87" y="166" type="curve" smooth="yes"/>
      <point x="87" y="181"/>
      <point x="87" y="192"/>
      <point x="88" y="204" type="curve"/>
      <point x="64" y="204" type="line"/>
      <point x="62" y="192"/>
      <point x="61" y="177"/>
      <point x="61" y="163" type="curve" smooth="yes"/>
      <point x="61" y="15"/>
      <point x="118" y="-11"/>
      <point x="168" y="-11" type="curve" smooth="yes"/>
      <point x="216" y="-11"/>
      <point x="251" y="19"/>
      <point x="265" y="85" type="curve"/>
      <point x="279" y="27"/>
      <point x="314" y="-11"/>
    </contour>
    <contour>
      <point x="505" y="-3" type="curve" smooth="yes"/>
      <point x="610" y="-3"/>
      <point x="667" y="100"/>
      <point x="667" y="283" type="curve" smooth="yes"/>
      <point x="667" y="484"/>
      <point x="591" y="612"/>
      <point x="438" y="612" type="curve" smooth="yes"/>
      <point x="347" y="612"/>
      <point x="276" y="576"/>
      <point x="202" y="475" type="curve"/>
      <point x="195" y="468" type="line"/>
      <point x="136" y="383"/>
      <point x="78" y="277"/>
      <point x="19" y="162" type="curve"/>
      <point x="44" y="150" type="line"/>
      <point x="65" y="198" type="line"/>
      <point x="69" y="202" type="line"/>
      <point x="104" y="272"/>
      <point x="148" y="353"/>
      <point x="184" y="406" type="curve"/>
      <point x="190" y="416" type="line"/>
      <point x="272" y="540"/>
      <point x="343" y="586"/>
      <point x="438" y="586" type="curve" smooth="yes"/>
      <point x="556" y="586"/>
      <point x="640" y="497"/>
      <point x="640" y="281" type="curve" smooth="yes"/>
      <point x="640" y="151"/>
      <point x="609" y="23"/>
      <point x="504" y="23" type="curve" smooth="yes"/>
      <point x="492" y="23"/>
      <point x="480" y="24"/>
      <point x="472" y="25" type="curve"/>
      <point x="469" y="-1" type="line"/>
      <point x="482" y="-3"/>
      <point x="492" y="-3"/>
    </contour>
    <contour>
      <point x="122" y="591" type="curve" smooth="yes"/>
      <point x="74" y="591"/>
      <point x="41" y="550"/>
      <point x="41" y="480" type="curve" smooth="yes"/>
      <point x="41" y="455"/>
      <point x="44" y="423"/>
      <point x="50" y="397" type="curve"/>
      <point x="75" y="400" type="line"/>
      <point x="71" y="421"/>
      <point x="68" y="445"/>
      <point x="68" y="476" type="curve" smooth="yes"/>
      <point x="68" y="543"/>
      <point x="91" y="565"/>
      <point x="122" y="565" type="curve" smooth="yes"/>
      <point x="159" y="565"/>
      <point x="177" y="522"/>
      <point x="189" y="457" type="curve"/>
      <point x="211" y="470" type="line"/>
      <point x="201" y="531"/>
      <point x="179" y="591"/>
    </contour>
  </outline>
</glyph>
<glyph name="khasinh" format="2">
  <advance width="619"/>
  <unicode hex="0D9B"/>
  <outline>
    <contour>
      <point x="176" y="-11" type="curve" smooth="yes"/>
      <point x="238" y="-11"/>
      <point x="271" y="38"/>
      <point x="271" y="99" type="curve" smooth="yes"/>
      <point x="271" y="162"/>
      <point x="235" y="206"/>
      <point x="177" y="206" type="curve" smooth="yes"/>
      <point x="127" y="206"/>
      <point x="89" y="172"/>
      <point x="54" y="126" type="curve"/>
      <point x="68" y="104" type="line"/>
      <point x="99" y="149"/>
      <point x="135" y="180"/>
      <point x="175" y="180" type="curve" smooth="yes"/>
      <point x="223" y="180"/>
      <point x="244" y="144"/>
      <point x="244" y="99" type="curve" smooth="yes"/>
      <point x="244" y="58"/>
      <point x="229" y="15"/>
      <point x="175" y="15" type="curve" smooth="yes"/>
      <point x="114" y="15"/>
      <point x="85" y="71"/>
      <point x="74" y="133" type="curve"/>
      <point x="66" y="171"/>
      <point x="65" y="212"/>
      <point x="65" y="237" type="curve" smooth="yes"/>
      <point x="65" y="424"/>
      <point x="143" y="521"/>
      <point x="236" y="521" type="curve" smooth="yes"/>
      <point x="341" y="521"/>
      <point x="373" y="429"/>
      <point x="373" y="317" type="curve" smooth="yes"/>
      <point x="373" y="198"/>
      <point x="329" y="84"/>
      <point x="275" y="4" type="curve"/>
      <point x="297" y="-11" type="line"/>
      <point x="354" y="74"/>
      <point x="401" y="195"/>
      <point x="401" y="321" type="curve" smooth="yes"/>
      <point x="401" y="438"/>
      <point x="358" y="547"/>
      <point x="239" y="547" type="curve" smooth="yes"/>
      <point x="129" y="547"/>
      <point x="38" y="442"/>
      <point x="38" y="239" type="curve" smooth="yes"/>
      <point x="38" y="91"/>
      <point x="81" y="-11"/>
    </contour>
    <contour>
      <point x="444" y="-11" type="curve" smooth="yes"/>
      <point x="516" y="-11"/>
      <point x="574" y="52"/>
      <point x="574" y="342" type="curve" smooth="yes"/>
      <point x="574" y="697"/>
      <point x="458" y="836"/>
      <point x="272" y="836" type="curve" smooth="yes"/>
      <point x="179" y="836"/>
      <point x="109" y="813"/>
      <point x="46" y="779" type="curve"/>
      <point x="58" y="756" type="line"/>
      <point x="117" y="788"/>
      <point x="178" y="810"/>
      <point x="272" y="810" type="curve" smooth="yes"/>
      <point x="446" y="810"/>
      <point x="547" y="675"/>
      <point x="547" y="343" type="curve" smooth="yes"/>
      <point x="547" y="64"/>
      <point x="496" y="15"/>
      <point x="445" y="15" type="curve" smooth="yes"/>
      <point x="395" y="15"/>
      <point x="384" y="52"/>
      <point x="381" y="116" type="curve"/>
      <point x="358" y="116" type="line"/>
      <point x="356" y="111" type="line"/>
      <point x="358" y="46"/>
      <point x="377" y="-11"/>
    </contour>
  </outline>
</glyph>
<glyph name="gasinh" format="2">
  <advance width="650"/>
  <unicode hex="0D9C"/>
  <outline>
    <contour>
      <point x="224" y="-11" type="curve" smooth="yes"/>
      <point x="339" y="-11"/>
      <point x="393" y="83"/>
      <point x="393" y="224" type="curve" smooth="yes"/>
      <point x="393" y="310"/>
      <point x="371" y="357"/>
      <point x="319" y="357" type="curve" smooth="yes"/>
      <point x="298" y="357"/>
      <point x="276" y="345"/>
      <point x="259" y="321" type="curve"/>
      <point x="266" y="312" type="line"/>
      <point x="301" y="513"/>
      <point x="359" y="586"/>
      <point x="443" y="586" type="curve" smooth="yes"/>
      <point x="534" y="586"/>
      <point x="582" y="488"/>
      <point x="582" y="314" type="curve" smooth="yes"/>
      <point x="582" y="125"/>
      <point x="530" y="22"/>
      <point x="406" y="22" type="curve" smooth="yes"/>
      <point x="395" y="22"/>
      <point x="381" y="23"/>
      <point x="373" y="25" type="curve"/>
      <point x="371" y="-1" type="line"/>
      <point x="382" y="-3"/>
      <point x="393" y="-4"/>
      <point x="409" y="-4" type="curve" smooth="yes"/>
      <point x="531" y="-4"/>
      <point x="609" y="87"/>
      <point x="609" y="315" type="curve" smooth="yes"/>
      <point x="609" y="501"/>
      <point x="553" y="612"/>
      <point x="444" y="612" type="curve" smooth="yes"/>
      <point x="354" y="612"/>
      <point x="275" y="548"/>
      <point x="239" y="305" type="curve"/>
      <point x="264" y="297" type="line"/>
      <point x="278" y="318"/>
      <point x="293" y="331"/>
      <point x="316" y="331" type="curve" smooth="yes"/>
      <point x="354" y="331"/>
      <point x="367" y="294"/>
      <point x="367" y="224" type="curve" smooth="yes"/>
      <point x="367" y="90"/>
      <point x="318" y="15"/>
      <point x="222" y="15" type="curve" smooth="yes"/>
      <point x="114" y="15"/>
      <point x="68" y="117"/>
      <point x="68" y="283" type="curve" smooth="yes"/>
      <point x="68" y="488"/>
      <point x="128" y="586"/>
      <point x="247" y="586" type="curve" smooth="yes"/>
      <point x="255" y="586"/>
      <point x="269" y="585"/>
      <point x="279" y="583" type="curve"/>
      <point x="281" y="609" type="line"/>
      <point x="271" y="611"/>
      <point x="256" y="612"/>
      <point x="250" y="612" type="curve" smooth="yes"/>
      <point x="118" y="612"/>
      <point x="41" y="516"/>
      <point x="41" y="281" type="curve" smooth="yes"/>
      <point x="41" y="91"/>
      <point x="102" y="-11"/>
    </contour>
  </outline>
</glyph>
<glyph name="ghasinh" format="2">
  <advance width="575"/>
  <unicode hex="0D9D"/>
  <outline>
    <contour>
      <point x="191" y="-11" type="curve" smooth="yes"/>
      <point x="217" y="-11"/>
      <point x="243" y="-6"/>
      <point x="262" y="5" type="curve"/>
      <point x="258" y="31" type="line"/>
      <point x="234" y="19"/>
      <point x="213" y="15"/>
      <point x="191" y="15" type="curve" smooth="yes"/>
      <point x="115" y="15"/>
      <point x="72" y="71"/>
      <point x="72" y="199" type="curve" smooth="yes"/>
      <point x="72" y="270"/>
      <point x="88" y="335"/>
      <point x="127" y="377" type="curve" smooth="yes"/>
      <point x="158" y="410"/>
      <point x="199" y="429"/>
      <point x="273" y="429" type="curve" smooth="yes"/>
      <point x="280" y="429" type="line"/>
      <point x="280" y="437" type="line" smooth="yes"/>
      <point x="280" y="543"/>
      <point x="241" y="612"/>
      <point x="171" y="612" type="curve" smooth="yes"/>
      <point x="112" y="612"/>
      <point x="77" y="570"/>
      <point x="77" y="501" type="curve" smooth="yes"/>
      <point x="77" y="494"/>
      <point x="77" y="483"/>
      <point x="78" y="476" type="curve"/>
      <point x="105" y="477" type="line"/>
      <point x="104" y="483"/>
      <point x="104" y="490"/>
      <point x="104" y="498" type="curve" smooth="yes"/>
      <point x="104" y="559"/>
      <point x="127" y="586"/>
      <point x="172" y="586" type="curve" smooth="yes"/>
      <point x="219" y="586"/>
      <point x="248" y="541"/>
      <point x="254" y="455" type="curve"/>
      <point x="26" y="455" type="line"/>
      <point x="26" y="429" type="line"/>
      <point x="82" y="429" type="line" smooth="yes"/>
      <point x="112" y="429"/>
      <point x="149" y="430"/>
      <point x="190" y="437" type="curve"/>
      <point x="183" y="437" type="line"/>
      <point x="83" y="404"/>
      <point x="45" y="318"/>
      <point x="45" y="198" type="curve" smooth="yes"/>
      <point x="45" y="56"/>
      <point x="100" y="-11"/>
    </contour>
    <contour>
      <point x="391" y="-11" type="curve" smooth="yes"/>
      <point x="485" y="-11"/>
      <point x="537" y="58"/>
      <point x="537" y="206" type="curve" smooth="yes"/>
      <point x="537" y="371"/>
      <point x="458" y="455"/>
      <point x="327" y="455" type="curve" smooth="yes"/>
      <point x="310" y="455" type="line"/>
      <point x="330" y="452" type="line"/>
      <point x="336" y="541"/>
      <point x="365" y="586"/>
      <point x="412" y="586" type="curve" smooth="yes"/>
      <point x="457" y="586"/>
      <point x="480" y="557"/>
      <point x="480" y="498" type="curve" smooth="yes"/>
      <point x="480" y="477"/>
      <point x="478" y="462"/>
      <point x="476" y="452" type="curve"/>
      <point x="502" y="449" type="line"/>
      <point x="505" y="462"/>
      <point x="507" y="487"/>
      <point x="507" y="501" type="curve" smooth="yes"/>
      <point x="507" y="570"/>
      <point x="472" y="612"/>
      <point x="413" y="612" type="curve" smooth="yes"/>
      <point x="343" y="612"/>
      <point x="304" y="543"/>
      <point x="304" y="437" type="curve" smooth="yes"/>
      <point x="304" y="429" type="line"/>
      <point x="316" y="429" type="line" smooth="yes"/>
      <point x="387" y="429"/>
      <point x="425" y="411"/>
      <point x="453" y="383" type="curve" smooth="yes"/>
      <point x="491" y="346"/>
      <point x="510" y="286"/>
      <point x="510" y="207" type="curve" smooth="yes"/>
      <point x="510" y="83"/>
      <point x="476" y="15"/>
      <point x="391" y="15" type="curve" smooth="yes"/>
      <point x="369" y="15"/>
      <point x="348" y="19"/>
      <point x="324" y="31" type="curve"/>
      <point x="320" y="5" type="line"/>
      <point x="339" y="-6"/>
      <point x="365" y="-11"/>
    </contour>
    <contour>
      <point x="291" y="204" type="curve" smooth="yes"/>
      <point x="349" y="204"/>
      <point x="376" y="168"/>
      <point x="376" y="126" type="curve" smooth="yes"/>
      <point x="376" y="80"/>
      <point x="352" y="53"/>
      <point x="318" y="32" type="curve"/>
      <point x="320" y="5" type="line"/>
      <point x="334" y="15" type="line"/>
      <point x="368" y="35"/>
      <point x="403" y="69"/>
      <point x="403" y="127" type="curve" smooth="yes"/>
      <point x="403" y="188"/>
      <point x="357" y="230"/>
      <point x="293" y="230" type="curve" smooth="yes"/>
      <point x="290" y="230" type="line" smooth="yes"/>
      <point x="225" y="230"/>
      <point x="179" y="188"/>
      <point x="179" y="127" type="curve" smooth="yes"/>
      <point x="179" y="69"/>
      <point x="214" y="35"/>
      <point x="248" y="15" type="curve"/>
      <point x="262" y="5" type="line"/>
      <point x="264" y="32" type="line"/>
      <point x="230" y="53"/>
      <point x="206" y="80"/>
      <point x="206" y="126" type="curve" smooth="yes"/>
      <point x="206" y="168"/>
      <point x="233" y="204"/>
    </contour>
  </outline>
</glyph>
<glyph name="casinh" format="2">
  <advance width="572"/>
  <unicode hex="0DA0"/>
  <outline>
    <contour>
      <point x="253" y="-11" type="curve" smooth="yes"/>
      <point x="450" y="-11"/>
      <point x="532" y="161"/>
      <point x="532" y="416" type="curve" smooth="yes"/>
      <point x="532" y="711"/>
      <point x="414" y="836"/>
      <point x="254" y="836" type="curve" smooth="yes"/>
      <point x="178" y="836"/>
      <point x="112" y="816"/>
      <point x="45" y="779" type="curve"/>
      <point x="57" y="756" type="line"/>
      <point x="128" y="795"/>
      <point x="181" y="810"/>
      <point x="256" y="810" type="curve" smooth="yes"/>
      <point x="391" y="810"/>
      <point x="505" y="704"/>
      <point x="505" y="418" type="curve" smooth="yes"/>
      <point x="505" y="183"/>
      <point x="436" y="15"/>
      <point x="257" y="15" type="curve" smooth="yes"/>
      <point x="152" y="15"/>
      <point x="70" y="82"/>
      <point x="70" y="224" type="curve" smooth="yes"/>
      <point x="70" y="290"/>
      <point x="88" y="341"/>
      <point x="123" y="375" type="curve" smooth="yes"/>
      <point x="160" y="411"/>
      <point x="209" y="429"/>
      <point x="302" y="429" type="curve" smooth="yes"/>
      <point x="331" y="429" type="line"/>
      <point x="331" y="438" type="line" smooth="yes"/>
      <point x="331" y="545"/>
      <point x="292" y="612"/>
      <point x="222" y="612" type="curve" smooth="yes"/>
      <point x="163" y="612"/>
      <point x="128" y="570"/>
      <point x="128" y="501" type="curve" smooth="yes"/>
      <point x="128" y="494"/>
      <point x="128" y="483"/>
      <point x="129" y="476" type="curve"/>
      <point x="156" y="477" type="line"/>
      <point x="155" y="483"/>
      <point x="155" y="490"/>
      <point x="155" y="498" type="curve" smooth="yes"/>
      <point x="155" y="557"/>
      <point x="178" y="586"/>
      <point x="223" y="586" type="curve" smooth="yes"/>
      <point x="270" y="586"/>
      <point x="299" y="541"/>
      <point x="305" y="455" type="curve"/>
      <point x="26" y="455" type="line"/>
      <point x="26" y="429" type="line"/>
      <point x="86" y="429" type="line" smooth="yes"/>
      <point x="117" y="429"/>
      <point x="160" y="430"/>
      <point x="198" y="436" type="curve"/>
      <point x="213" y="439" type="line"/>
      <point x="126" y="428"/>
      <point x="43" y="373"/>
      <point x="43" y="223" type="curve" smooth="yes"/>
      <point x="43" y="72"/>
      <point x="134" y="-11"/>
    </contour>
  </outline>
</glyph>
<glyph name="chasinh" format="2">
  <advance width="559"/>
  <unicode hex="0DA1"/>
  <outline>
    <contour>
      <point x="279" y="-11" type="curve" smooth="yes"/>
      <point x="446" y="-11"/>
      <point x="521" y="98"/>
      <point x="521" y="247" type="curve" smooth="yes"/>
      <point x="521" y="378"/>
      <point x="447" y="455"/>
      <point x="320" y="455" type="curve" smooth="yes"/>
      <point x="309" y="455" type="line"/>
      <point x="316" y="443" type="line"/>
      <point x="319" y="529"/>
      <point x="348" y="586"/>
      <point x="401" y="586" type="curve" smooth="yes"/>
      <point x="448" y="586"/>
      <point x="462" y="539"/>
      <point x="462" y="468" type="curve" smooth="yes"/>
      <point x="462" y="384"/>
      <point x="443" y="296"/>
      <point x="380" y="296" type="curve" smooth="yes"/>
      <point x="344" y="296"/>
      <point x="316" y="318"/>
      <point x="316" y="432" type="curve"/>
      <point x="305" y="444" type="line"/>
      <point x="324" y="529" type="line"/>
      <point x="362" y="648"/>
      <point x="445" y="742"/>
      <point x="528" y="787" type="curve"/>
      <point x="515" y="810" type="line"/>
      <point x="384" y="738"/>
      <point x="291" y="587"/>
      <point x="291" y="435" type="curve" smooth="yes"/>
      <point x="291" y="298"/>
      <point x="331" y="270"/>
      <point x="380" y="270" type="curve" smooth="yes"/>
      <point x="433" y="270"/>
      <point x="460" y="310"/>
      <point x="474" y="359" type="curve"/>
      <point x="479" y="371" type="line"/>
      <point x="486" y="403"/>
      <point x="489" y="438"/>
      <point x="489" y="470" type="curve" smooth="yes"/>
      <point x="489" y="545"/>
      <point x="470" y="612"/>
      <point x="404" y="612" type="curve" smooth="yes"/>
      <point x="360" y="612"/>
      <point x="302" y="562"/>
      <point x="302" y="449" type="curve" smooth="yes"/>
      <point x="302" y="429" type="line"/>
      <point x="307" y="429" type="line" smooth="yes"/>
      <point x="373" y="429"/>
      <point x="417" y="417"/>
      <point x="459" y="372" type="curve"/>
      <point x="469" y="359" type="line"/>
      <point x="489" y="322"/>
      <point x="494" y="288"/>
      <point x="494" y="247" type="curve" smooth="yes"/>
      <point x="494" y="118"/>
      <point x="434" y="15"/>
      <point x="279" y="15" type="curve" smooth="yes"/>
      <point x="125" y="15"/>
      <point x="65" y="118"/>
      <point x="65" y="247" type="curve" smooth="yes"/>
      <point x="65" y="310"/>
      <point x="82" y="357"/>
      <point x="115" y="387" type="curve" smooth="yes"/>
      <point x="146" y="415"/>
      <point x="188" y="429"/>
      <point x="252" y="429" type="curve" smooth="yes"/>
      <point x="265" y="429" type="line"/>
      <point x="265" y="437" type="line" smooth="yes"/>
      <point x="265" y="543"/>
      <point x="226" y="612"/>
      <point x="156" y="612" type="curve" smooth="yes"/>
      <point x="97" y="612"/>
      <point x="62" y="570"/>
      <point x="62" y="501" type="curve" smooth="yes"/>
      <point x="62" y="487"/>
      <point x="64" y="462"/>
      <point x="67" y="449" type="curve"/>
      <point x="93" y="452" type="line"/>
      <point x="91" y="462"/>
      <point x="89" y="478"/>
      <point x="89" y="498" type="curve" smooth="yes"/>
      <point x="89" y="557"/>
      <point x="112" y="586"/>
      <point x="157" y="586" type="curve" smooth="yes"/>
      <point x="204" y="586"/>
      <point x="233" y="541"/>
      <point x="239" y="452" type="curve"/>
      <point x="258" y="455" type="line"/>
      <point x="239" y="455" type="line" smooth="yes"/>
      <point x="112" y="455"/>
      <point x="38" y="378"/>
      <point x="38" y="247" type="curve" smooth="yes"/>
      <point x="38" y="98"/>
      <point x="113" y="-11"/>
    </contour>
  </outline>
</glyph>
<glyph name="jasinh" format="2">
  <advance width="554"/>
  <unicode hex="0DA2"/>
  <outline>
    <contour>
      <point x="277" y="-11" type="curve"/>
      <point x="440" y="-11"/>
      <point x="516" y="98"/>
      <point x="516" y="247" type="curve" smooth="yes"/>
      <point x="516" y="378"/>
      <point x="442" y="455"/>
      <point x="309" y="455" type="curve" smooth="yes"/>
      <point x="296" y="455" type="line"/>
      <point x="315" y="452" type="line"/>
      <point x="323" y="551"/>
      <point x="351" y="586"/>
      <point x="405" y="586" type="curve" smooth="yes"/>
      <point x="448" y="586"/>
      <point x="466" y="556"/>
      <point x="466" y="513" type="curve" smooth="yes"/>
      <point x="466" y="464"/>
      <point x="449" y="445"/>
      <point x="422" y="445" type="curve" smooth="yes"/>
      <point x="397" y="445"/>
      <point x="377" y="462"/>
      <point x="377" y="525" type="curve" smooth="yes"/>
      <point x="377" y="555"/>
      <point x="380" y="572"/>
      <point x="384" y="593" type="curve"/>
      <point x="385" y="601" type="line"/>
      <point x="406" y="685"/>
      <point x="463" y="743"/>
      <point x="532" y="788" type="curve"/>
      <point x="518" y="810" type="line"/>
      <point x="420" y="745"/>
      <point x="351" y="655"/>
      <point x="351" y="527" type="curve" smooth="yes"/>
      <point x="351" y="525" type="line" smooth="yes"/>
      <point x="351" y="463"/>
      <point x="371" y="422"/>
      <point x="422" y="422" type="curve" smooth="yes"/>
      <point x="475" y="422"/>
      <point x="493" y="460"/>
      <point x="493" y="515" type="curve" smooth="yes"/>
      <point x="493" y="571"/>
      <point x="461" y="612"/>
      <point x="408" y="612" type="curve" smooth="yes"/>
      <point x="395" y="612"/>
      <point x="384" y="610"/>
      <point x="374" y="607" type="curve"/>
      <point x="368" y="606" type="line"/>
      <point x="324" y="591"/>
      <point x="289" y="537"/>
      <point x="289" y="437" type="curve"/>
      <point x="289" y="429" type="line"/>
      <point x="302" y="429" type="line" smooth="yes"/>
      <point x="366" y="429"/>
      <point x="408" y="415"/>
      <point x="439" y="387" type="curve" smooth="yes"/>
      <point x="472" y="357"/>
      <point x="489" y="310"/>
      <point x="489" y="247" type="curve" smooth="yes"/>
      <point x="489" y="118"/>
      <point x="429" y="15"/>
      <point x="277" y="15" type="curve" smooth="yes"/>
      <point x="125" y="15"/>
      <point x="65" y="118"/>
      <point x="65" y="247" type="curve" smooth="yes"/>
      <point x="65" y="310"/>
      <point x="82" y="357"/>
      <point x="115" y="387" type="curve" smooth="yes"/>
      <point x="146" y="415"/>
      <point x="188" y="429"/>
      <point x="252" y="429" type="curve" smooth="yes"/>
      <point x="265" y="429" type="line"/>
      <point x="265" y="437" type="line" smooth="yes"/>
      <point x="265" y="543"/>
      <point x="226" y="612"/>
      <point x="156" y="612" type="curve" smooth="yes"/>
      <point x="97" y="612"/>
      <point x="62" y="570"/>
      <point x="62" y="501" type="curve" smooth="yes"/>
      <point x="62" y="487"/>
      <point x="64" y="462"/>
      <point x="67" y="449" type="curve"/>
      <point x="93" y="452" type="line"/>
      <point x="91" y="462"/>
      <point x="89" y="478"/>
      <point x="89" y="498" type="curve" smooth="yes"/>
      <point x="89" y="557"/>
      <point x="112" y="586"/>
      <point x="157" y="586" type="curve" smooth="yes"/>
      <point x="204" y="586"/>
      <point x="233" y="541"/>
      <point x="239" y="452" type="curve"/>
      <point x="258" y="455" type="line"/>
      <point x="239" y="455" type="line" smooth="yes"/>
      <point x="112" y="455"/>
      <point x="38" y="378"/>
      <point x="38" y="247" type="curve" smooth="yes"/>
      <point x="38" y="98"/>
      <point x="113" y="-11"/>
    </contour>
  </outline>
</glyph>
<glyph name="nyjasinh" format="2">
  <advance width="648"/>
  <unicode hex="0DA6"/>
  <outline>
    <contour>
      <point x="371" y="-11" type="curve" smooth="yes"/>
      <point x="534" y="-11"/>
      <point x="610" y="98"/>
      <point x="610" y="247" type="curve" smooth="yes"/>
      <point x="610" y="378"/>
      <point x="536" y="455"/>
      <point x="403" y="455" type="curve" smooth="yes"/>
      <point x="390" y="455" type="line"/>
      <point x="409" y="452" type="line"/>
      <point x="417" y="551"/>
      <point x="444" y="586"/>
      <point x="499" y="586" type="curve" smooth="yes"/>
      <point x="542" y="586"/>
      <point x="560" y="556"/>
      <point x="560" y="513" type="curve" smooth="yes"/>
      <point x="560" y="464"/>
      <point x="543" y="445"/>
      <point x="516" y="445" type="curve" smooth="yes"/>
      <point x="491" y="445"/>
      <point x="471" y="462"/>
      <point x="471" y="525" type="curve" smooth="yes"/>
      <point x="471" y="555"/>
      <point x="474" y="572"/>
      <point x="478" y="593" type="curve"/>
      <point x="479" y="601" type="line"/>
      <point x="500" y="686"/>
      <point x="557" y="743"/>
      <point x="626" y="788" type="curve"/>
      <point x="612" y="810" type="line"/>
      <point x="514" y="745"/>
      <point x="445" y="655"/>
      <point x="445" y="527" type="curve" smooth="yes"/>
      <point x="445" y="525" type="line" smooth="yes"/>
      <point x="445" y="463"/>
      <point x="465" y="422"/>
      <point x="516" y="422" type="curve" smooth="yes"/>
      <point x="569" y="422"/>
      <point x="587" y="460"/>
      <point x="587" y="515" type="curve" smooth="yes"/>
      <point x="587" y="571"/>
      <point x="555" y="612"/>
      <point x="502" y="612" type="curve" smooth="yes"/>
      <point x="489" y="612"/>
      <point x="478" y="610"/>
      <point x="468" y="607" type="curve"/>
      <point x="462" y="606" type="line"/>
      <point x="418" y="591"/>
      <point x="383" y="537"/>
      <point x="383" y="437" type="curve" smooth="yes"/>
      <point x="383" y="429" type="line"/>
      <point x="396" y="429" type="line" smooth="yes"/>
      <point x="460" y="429"/>
      <point x="502" y="415"/>
      <point x="533" y="387" type="curve" smooth="yes"/>
      <point x="566" y="357"/>
      <point x="583" y="310"/>
      <point x="583" y="247" type="curve" smooth="yes"/>
      <point x="583" y="118"/>
      <point x="523" y="15"/>
      <point x="371" y="15" type="curve" smooth="yes"/>
      <point x="219" y="15"/>
      <point x="159" y="118"/>
      <point x="159" y="247" type="curve" smooth="yes"/>
      <point x="159" y="310"/>
      <point x="176" y="357"/>
      <point x="209" y="387" type="curve" smooth="yes"/>
      <point x="240" y="415"/>
      <point x="282" y="429"/>
      <point x="346" y="429" type="curve" smooth="yes"/>
      <point x="359" y="429" type="line"/>
      <point x="359" y="437" type="line" smooth="yes"/>
      <point x="359" y="543"/>
      <point x="320" y="612"/>
      <point x="250" y="612" type="curve" smooth="yes"/>
      <point x="196" y="612"/>
      <point x="156" y="570"/>
      <point x="156" y="501" type="curve" smooth="yes"/>
      <point x="156" y="487"/>
      <point x="158" y="462"/>
      <point x="161" y="449" type="curve"/>
      <point x="187" y="452" type="line"/>
      <point x="185" y="462"/>
      <point x="183" y="478"/>
      <point x="183" y="498" type="curve" smooth="yes"/>
      <point x="183" y="557"/>
      <point x="206" y="586"/>
      <point x="251" y="586" type="curve" smooth="yes"/>
      <point x="298" y="586"/>
      <point x="327" y="541"/>
      <point x="333" y="452" type="curve"/>
      <point x="352" y="455" type="line"/>
      <point x="333" y="455" type="line" smooth="yes"/>
      <point x="206" y="455"/>
      <point x="132" y="378"/>
      <point x="132" y="247" type="curve" smooth="yes"/>
      <point x="132" y="98"/>
      <point x="207" y="-11"/>
    </contour>
    <contour>
      <point x="39" y="359" type="curve" smooth="yes"/>
      <point x="39" y="246"/>
      <point x="68" y="160"/>
      <point x="99" y="84" type="curve"/>
      <point x="124" y="94" type="line"/>
      <point x="90" y="173"/>
      <point x="66" y="253"/>
      <point x="66" y="357" type="curve" smooth="yes"/>
      <point x="66" y="459"/>
      <point x="99" y="533"/>
      <point x="182" y="579" type="curve" smooth="yes"/>
      <point x="194" y="586"/>
      <point x="216" y="588"/>
      <point x="229" y="588" type="curve" smooth="yes"/>
      <point x="260" y="588"/>
      <point x="275" y="585"/>
      <point x="283" y="583" type="curve"/>
      <point x="292" y="599" type="line"/>
      <point x="275" y="607"/>
      <point x="254" y="611"/>
      <point x="237" y="611" type="curve" smooth="yes"/>
      <point x="129" y="611"/>
      <point x="39" y="515"/>
    </contour>
  </outline>
</glyph>
<glyph name="ttasinh" format="2">
  <advance width="555"/>
  <unicode hex="0DA7"/>
  <outline>
    <contour>
      <point x="252" y="-11" type="curve" smooth="yes"/>
      <point x="440" y="-11"/>
      <point x="515" y="175"/>
      <point x="515" y="419" type="curve" smooth="yes"/>
      <point x="515" y="709"/>
      <point x="404" y="836"/>
      <point x="242" y="836" type="curve" smooth="yes"/>
      <point x="163" y="836"/>
      <point x="99" y="814"/>
      <point x="42" y="781" type="curve"/>
      <point x="54" y="758" type="line"/>
      <point x="114" y="793"/>
      <point x="170" y="810"/>
      <point x="245" y="810" type="curve" smooth="yes"/>
      <point x="380" y="810"/>
      <point x="488" y="703"/>
      <point x="488" y="419" type="curve" smooth="yes"/>
      <point x="488" y="193"/>
      <point x="425" y="15"/>
      <point x="251" y="15" type="curve" smooth="yes"/>
      <point x="124" y="15"/>
      <point x="65" y="96"/>
      <point x="65" y="241" type="curve" smooth="yes"/>
      <point x="65" y="404"/>
      <point x="148" y="460"/>
      <point x="234" y="460" type="curve" smooth="yes"/>
      <point x="255" y="460"/>
      <point x="277" y="458"/>
      <point x="297" y="454" type="curve"/>
      <point x="299" y="479" type="line"/>
      <point x="282" y="483"/>
      <point x="259" y="486"/>
      <point x="235" y="486" type="curve" smooth="yes"/>
      <point x="132" y="486"/>
      <point x="38" y="418"/>
      <point x="38" y="240" type="curve" smooth="yes"/>
      <point x="38" y="87"/>
      <point x="105" y="-11"/>
    </contour>
  </outline>
</glyph>
<glyph name="tthasinh" format="2">
  <advance width="598"/>
  <unicode hex="0DA8"/>
  <outline>
    <contour>
      <point x="400" y="-11" type="curve" smooth="yes"/>
      <point x="489" y="-11"/>
      <point x="555" y="74"/>
      <point x="555" y="306" type="curve" smooth="yes"/>
      <point x="555" y="576"/>
      <point x="458" y="726"/>
      <point x="279" y="836" type="curve"/>
      <point x="265" y="812" type="line"/>
      <point x="272" y="810"/>
      <point x="279" y="808"/>
      <point x="285" y="804" type="curve" smooth="yes"/>
      <point x="445" y="692"/>
      <point x="528" y="557"/>
      <point x="528" y="307" type="curve" smooth="yes"/>
      <point x="528" y="90"/>
      <point x="473" y="15"/>
      <point x="399" y="15" type="curve" smooth="yes"/>
      <point x="318" y="15"/>
      <point x="294" y="101"/>
      <point x="294" y="168" type="curve" smooth="yes"/>
      <point x="294" y="204" type="line"/>
      <point x="268" y="204" type="line"/>
      <point x="268" y="168" type="line" smooth="yes"/>
      <point x="268" y="101"/>
      <point x="244" y="15"/>
      <point x="167" y="15" type="curve" smooth="yes"/>
      <point x="105" y="15"/>
      <point x="65" y="75"/>
      <point x="65" y="220" type="curve" smooth="yes"/>
      <point x="65" y="375"/>
      <point x="133" y="460"/>
      <point x="234" y="460" type="curve" smooth="yes"/>
      <point x="256" y="460"/>
      <point x="276" y="458"/>
      <point x="292" y="455" type="curve"/>
      <point x="295" y="480" type="line"/>
      <point x="275" y="484"/>
      <point x="254" y="486"/>
      <point x="233" y="486" type="curve" smooth="yes"/>
      <point x="107" y="486"/>
      <point x="38" y="373"/>
      <point x="38" y="220" type="curve" smooth="yes"/>
      <point x="38" y="65"/>
      <point x="86" y="-11"/>
      <point x="167" y="-11" type="curve" smooth="yes"/>
      <point x="233" y="-11"/>
      <point x="270" y="44"/>
      <point x="280" y="97" type="curve"/>
      <point x="294" y="37"/>
      <point x="327" y="-11"/>
    </contour>
    <contour>
      <point x="368" y="540" type="curve" smooth="yes"/>
      <point x="411" y="540"/>
      <point x="448" y="565"/>
      <point x="476" y="625" type="curve"/>
      <point x="458" y="645" type="line"/>
      <point x="428" y="579"/>
      <point x="400" y="566"/>
      <point x="367" y="566" type="curve" smooth="yes"/>
      <point x="324" y="566"/>
      <point x="315" y="603"/>
      <point x="314" y="664" type="curve" smooth="yes"/>
      <point x="312" y="778"/>
      <point x="309" y="800"/>
      <point x="278" y="828" type="curve"/>
      <point x="265" y="812" type="line"/>
      <point x="284" y="797"/>
      <point x="287" y="778"/>
      <point x="288" y="661" type="curve" smooth="yes"/>
      <point x="289" y="565"/>
      <point x="324" y="540"/>
    </contour>
  </outline>
</glyph>
<glyph name="ddasinh" format="2">
  <advance width="608"/>
  <unicode hex="0DA9"/>
  <outline>
    <contour>
      <point x="410" y="-11" type="curve" smooth="yes"/>
      <point x="500" y="-11"/>
      <point x="565" y="74"/>
      <point x="565" y="352" type="curve" smooth="yes"/>
      <point x="565" y="696"/>
      <point x="457" y="836"/>
      <point x="268" y="836" type="curve" smooth="yes"/>
      <point x="186" y="836"/>
      <point x="115" y="813"/>
      <point x="52" y="779" type="curve"/>
      <point x="64" y="756" type="line"/>
      <point x="123" y="788"/>
      <point x="184" y="810"/>
      <point x="268" y="810" type="curve" smooth="yes"/>
      <point x="444" y="810"/>
      <point x="538" y="675"/>
      <point x="538" y="352" type="curve" smooth="yes"/>
      <point x="538" y="90"/>
      <point x="483" y="15"/>
      <point x="409" y="15" type="curve" smooth="yes"/>
      <point x="328" y="15"/>
      <point x="304" y="101"/>
      <point x="304" y="168" type="curve" smooth="yes"/>
      <point x="304" y="204" type="line"/>
      <point x="278" y="204" type="line"/>
      <point x="278" y="168" type="line" smooth="yes"/>
      <point x="278" y="101"/>
      <point x="254" y="15"/>
      <point x="177" y="15" type="curve" smooth="yes"/>
      <point x="115" y="15"/>
      <point x="72" y="75"/>
      <point x="72" y="199" type="curve" smooth="yes"/>
      <point x="72" y="270"/>
      <point x="88" y="335"/>
      <point x="127" y="377" type="curve" smooth="yes"/>
      <point x="158" y="410"/>
      <point x="199" y="429"/>
      <point x="272" y="429" type="curve" smooth="yes"/>
      <point x="291" y="429" type="line"/>
      <point x="291" y="437" type="line" smooth="yes"/>
      <point x="291" y="545"/>
      <point x="252" y="612"/>
      <point x="182" y="612" type="curve" smooth="yes"/>
      <point x="123" y="612"/>
      <point x="88" y="570"/>
      <point x="88" y="501" type="curve" smooth="yes"/>
      <point x="88" y="494"/>
      <point x="88" y="483"/>
      <point x="89" y="476" type="curve"/>
      <point x="116" y="477" type="line"/>
      <point x="115" y="483"/>
      <point x="115" y="490"/>
      <point x="115" y="498" type="curve" smooth="yes"/>
      <point x="115" y="557"/>
      <point x="138" y="586"/>
      <point x="183" y="586" type="curve" smooth="yes"/>
      <point x="230" y="586"/>
      <point x="259" y="541"/>
      <point x="265" y="455" type="curve"/>
      <point x="26" y="455" type="line"/>
      <point x="26" y="429" type="line"/>
      <point x="86" y="429" type="line" smooth="yes"/>
      <point x="129" y="429"/>
      <point x="157" y="431"/>
      <point x="193" y="436" type="curve"/>
      <point x="181" y="437" type="line"/>
      <point x="83" y="404"/>
      <point x="45" y="317"/>
      <point x="45" y="198" type="curve" smooth="yes"/>
      <point x="45" y="65"/>
      <point x="95" y="-11"/>
      <point x="177" y="-11" type="curve" smooth="yes"/>
      <point x="243" y="-11"/>
      <point x="280" y="44"/>
      <point x="290" y="97" type="curve"/>
      <point x="304" y="37"/>
      <point x="337" y="-11"/>
    </contour>
  </outline>
</glyph>
<glyph name="thasinh" format="2">
  <advance width="555"/>
  <unicode hex="0DAE"/>
  <outline>
    <contour>
      <point x="252" y="-11" type="curve" smooth="yes"/>
      <point x="440" y="-11"/>
      <point x="515" y="175"/>
      <point x="515" y="384" type="curve" smooth="yes"/>
      <point x="515" y="548"/>
      <point x="460" y="730"/>
      <point x="262" y="836" type="curve"/>
      <point x="251" y="815" type="line"/>
      <point x="259" y="812"/>
      <point x="267" y="806"/>
      <point x="274" y="802" type="curve" smooth="yes"/>
      <point x="406" y="722"/>
      <point x="488" y="587"/>
      <point x="488" y="385" type="curve" smooth="yes"/>
      <point x="488" y="193"/>
      <point x="425" y="15"/>
      <point x="251" y="15" type="curve" smooth="yes"/>
      <point x="124" y="15"/>
      <point x="65" y="96"/>
      <point x="65" y="241" type="curve" smooth="yes"/>
      <point x="65" y="404"/>
      <point x="148" y="460"/>
      <point x="234" y="460" type="curve" smooth="yes"/>
      <point x="255" y="460"/>
      <point x="277" y="458"/>
      <point x="297" y="454" type="curve"/>
      <point x="299" y="479" type="line"/>
      <point x="282" y="483"/>
      <point x="259" y="486"/>
      <point x="235" y="486" type="curve" smooth="yes"/>
      <point x="132" y="486"/>
      <point x="38" y="418"/>
      <point x="38" y="240" type="curve" smooth="yes"/>
      <point x="38" y="87"/>
      <point x="105" y="-11"/>
    </contour>
    <contour>
      <point x="354" y="540" type="curve" smooth="yes"/>
      <point x="397" y="540"/>
      <point x="434" y="565"/>
      <point x="464" y="626" type="curve"/>
      <point x="444" y="644" type="line"/>
      <point x="414" y="580"/>
      <point x="386" y="566"/>
      <point x="353" y="566" type="curve" smooth="yes"/>
      <point x="310" y="566"/>
      <point x="301" y="603"/>
      <point x="300" y="664" type="curve" smooth="yes"/>
      <point x="298" y="778"/>
      <point x="295" y="800"/>
      <point x="264" y="828" type="curve"/>
      <point x="251" y="815" type="line"/>
      <point x="270" y="800"/>
      <point x="273" y="778"/>
      <point x="274" y="661" type="curve" smooth="yes"/>
      <point x="275" y="565"/>
      <point x="310" y="540"/>
    </contour>
  </outline>
</glyph>
<glyph name="dasinh" format="2">
  <advance width="399"/>
  <unicode hex="0DAF"/>
  <outline>
    <contour>
      <point x="253" y="-11" type="curve" smooth="yes"/>
      <point x="296" y="-11"/>
      <point x="339" y="-4"/>
      <point x="389" y="26" type="curve"/>
      <point x="377" y="49" type="line"/>
      <point x="335" y="24"/>
      <point x="308" y="15"/>
      <point x="255" y="15" type="curve" smooth="yes"/>
      <point x="129" y="15"/>
      <point x="65" y="95"/>
      <point x="65" y="228" type="curve" smooth="yes"/>
      <point x="65" y="294"/>
      <point x="85" y="345"/>
      <point x="123" y="378" type="curve" smooth="yes"/>
      <point x="162" y="412"/>
      <point x="216" y="429"/>
      <point x="305" y="429" type="curve" smooth="yes"/>
      <point x="370" y="429" type="line"/>
      <point x="370" y="438" type="line" smooth="yes"/>
      <point x="370" y="545"/>
      <point x="331" y="612"/>
      <point x="261" y="612" type="curve" smooth="yes"/>
      <point x="202" y="612"/>
      <point x="167" y="570"/>
      <point x="167" y="501" type="curve" smooth="yes"/>
      <point x="167" y="492"/>
      <point x="168" y="481"/>
      <point x="169" y="470" type="curve"/>
      <point x="196" y="472" type="line"/>
      <point x="195" y="479"/>
      <point x="194" y="489"/>
      <point x="194" y="498" type="curve" smooth="yes"/>
      <point x="194" y="557"/>
      <point x="217" y="586"/>
      <point x="262" y="586" type="curve" smooth="yes"/>
      <point x="309" y="586"/>
      <point x="338" y="541"/>
      <point x="344" y="455" type="curve"/>
      <point x="304" y="455" type="line" smooth="yes"/>
      <point x="212" y="455"/>
      <point x="147" y="436"/>
      <point x="102" y="395" type="curve" smooth="yes"/>
      <point x="61" y="358"/>
      <point x="38" y="303"/>
      <point x="38" y="229" type="curve" smooth="yes"/>
      <point x="38" y="81"/>
      <point x="114" y="-11"/>
    </contour>
    <contour>
      <point x="351" y="-271" type="curve" smooth="yes"/>
      <point x="367" y="-271"/>
      <point x="391" y="-267"/>
      <point x="409" y="-259" type="curve"/>
      <point x="402" y="-235" type="line"/>
      <point x="387" y="-241"/>
      <point x="369" y="-245"/>
      <point x="352" y="-245" type="curve" smooth="yes"/>
      <point x="288" y="-245"/>
      <point x="267" y="-203"/>
      <point x="267" y="-152" type="curve" smooth="yes"/>
      <point x="267" y="-80"/>
      <point x="309" y="-31"/>
      <point x="365" y="16" type="curve"/>
      <point x="350" y="22" type="line"/>
      <point x="337" y="20" type="line"/>
      <point x="287" y="-21"/>
      <point x="241" y="-75"/>
      <point x="241" y="-153" type="curve" smooth="yes"/>
      <point x="241" y="-215"/>
      <point x="270" y="-271"/>
    </contour>
  </outline>
</glyph>
<glyph name="dhasinh" format="2">
  <advance width="598"/>
  <unicode hex="0DB0"/>
  <outline>
    <contour>
      <point x="400" y="-11" type="curve" smooth="yes"/>
      <point x="490" y="-11"/>
      <point x="555" y="74"/>
      <point x="555" y="352" type="curve" smooth="yes"/>
      <point x="555" y="696"/>
      <point x="447" y="836"/>
      <point x="263" y="836" type="curve" smooth="yes"/>
      <point x="180" y="836"/>
      <point x="107" y="814"/>
      <point x="45" y="780" type="curve"/>
      <point x="57" y="757" type="line"/>
      <point x="116" y="789"/>
      <point x="179" y="810"/>
      <point x="262" y="810" type="curve" smooth="yes"/>
      <point x="434" y="810"/>
      <point x="528" y="675"/>
      <point x="528" y="352" type="curve" smooth="yes"/>
      <point x="528" y="90"/>
      <point x="473" y="15"/>
      <point x="399" y="15" type="curve" smooth="yes"/>
      <point x="318" y="15"/>
      <point x="294" y="101"/>
      <point x="294" y="168" type="curve" smooth="yes"/>
      <point x="294" y="204" type="line"/>
      <point x="268" y="204" type="line"/>
      <point x="268" y="168" type="line" smooth="yes"/>
      <point x="268" y="101"/>
      <point x="244" y="15"/>
      <point x="167" y="15" type="curve" smooth="yes"/>
      <point x="105" y="15"/>
      <point x="65" y="75"/>
      <point x="65" y="220" type="curve" smooth="yes"/>
      <point x="65" y="375"/>
      <point x="133" y="460"/>
      <point x="234" y="460" type="curve" smooth="yes"/>
      <point x="256" y="460"/>
      <point x="276" y="458"/>
      <point x="292" y="455" type="curve"/>
      <point x="295" y="480" type="line"/>
      <point x="275" y="484"/>
      <point x="254" y="486"/>
      <point x="233" y="486" type="curve" smooth="yes"/>
      <point x="107" y="486"/>
      <point x="38" y="373"/>
      <point x="38" y="220" type="curve" smooth="yes"/>
      <point x="38" y="65"/>
      <point x="86" y="-11"/>
      <point x="167" y="-11" type="curve" smooth="yes"/>
      <point x="233" y="-11"/>
      <point x="270" y="44"/>
      <point x="280" y="97" type="curve"/>
      <point x="294" y="37"/>
      <point x="327" y="-11"/>
    </contour>
  </outline>
</glyph>
<glyph name="nasinh" format="2">
  <advance width="664"/>
  <unicode hex="0DB1"/>
  <outline>
    <contour>
      <point x="256" y="-11" type="curve" smooth="yes"/>
      <point x="385" y="-11"/>
      <point x="439" y="91"/>
      <point x="439" y="230" type="curve" smooth="yes"/>
      <point x="439" y="392"/>
      <point x="359" y="448"/>
      <point x="281" y="448" type="curve" smooth="yes"/>
      <point x="258" y="448"/>
      <point x="238" y="442"/>
      <point x="225" y="437" type="curve"/>
      <point x="219" y="412" type="line"/>
      <point x="236" y="419"/>
      <point x="256" y="422"/>
      <point x="278" y="422" type="curve" smooth="yes"/>
      <point x="345" y="422"/>
      <point x="412" y="377"/>
      <point x="412" y="229" type="curve" smooth="yes"/>
      <point x="412" y="107"/>
      <point x="371" y="15"/>
      <point x="255" y="15" type="curve" smooth="yes"/>
      <point x="124" y="15"/>
      <point x="69" y="117"/>
      <point x="53" y="307" type="curve"/>
      <point x="26" y="304" type="line"/>
      <point x="45" y="76"/>
      <point x="125" y="-11"/>
    </contour>
    <contour>
      <point x="463" y="-3" type="curve" smooth="yes"/>
      <point x="560" y="-3"/>
      <point x="624" y="70"/>
      <point x="624" y="280" type="curve" smooth="yes"/>
      <point x="624" y="501"/>
      <point x="541" y="612"/>
      <point x="418" y="612" type="curve" smooth="yes"/>
      <point x="308" y="612"/>
      <point x="250" y="530"/>
      <point x="223" y="445" type="curve"/>
      <point x="216" y="429" type="line"/>
      <point x="188" y="278"/>
      <point x="144" y="257"/>
      <point x="67" y="257" type="curve" smooth="yes"/>
      <point x="56" y="257"/>
      <point x="45" y="260"/>
      <point x="36" y="263" type="curve"/>
      <point x="37" y="237" type="line"/>
      <point x="43" y="233"/>
      <point x="59" y="231"/>
      <point x="67" y="231" type="curve" smooth="yes"/>
      <point x="156" y="231"/>
      <point x="215" y="261"/>
      <point x="241" y="427" type="curve"/>
      <point x="243" y="433" type="line"/>
      <point x="273" y="512"/>
      <point x="320" y="586"/>
      <point x="418" y="586" type="curve" smooth="yes"/>
      <point x="522" y="586"/>
      <point x="597" y="489"/>
      <point x="597" y="280" type="curve" smooth="yes"/>
      <point x="597" y="107"/>
      <point x="556" y="23"/>
      <point x="462" y="23" type="curve" smooth="yes"/>
      <point x="447" y="23"/>
      <point x="436" y="24"/>
      <point x="425" y="26" type="curve"/>
      <point x="422" y="0" type="line"/>
      <point x="436" y="-2"/>
      <point x="445" y="-3"/>
    </contour>
    <contour>
      <point x="139" y="591" type="curve" smooth="yes"/>
      <point x="91" y="591"/>
      <point x="58" y="550"/>
      <point x="58" y="478" type="curve" smooth="yes"/>
      <point x="58" y="455"/>
      <point x="61" y="423"/>
      <point x="67" y="397" type="curve"/>
      <point x="92" y="400" type="line"/>
      <point x="88" y="421"/>
      <point x="85" y="445"/>
      <point x="85" y="476" type="curve" smooth="yes"/>
      <point x="85" y="543"/>
      <point x="108" y="565"/>
      <point x="139" y="565" type="curve" smooth="yes"/>
      <point x="177" y="565"/>
      <point x="200" y="524"/>
      <point x="217" y="395" type="curve"/>
      <point x="233" y="427" type="line"/>
      <point x="226" y="527"/>
      <point x="196" y="591"/>
    </contour>
  </outline>
</glyph>
<glyph name="ndasinh" format="2">
  <advance width="480"/>
  <unicode hex="0DB3"/>
  <outline>
    <contour>
      <point x="339" y="-11" type="curve" smooth="yes"/>
      <point x="381" y="-11"/>
      <point x="422" y="-4"/>
      <point x="470" y="26" type="curve"/>
      <point x="458" y="49" type="line"/>
      <point x="418" y="24"/>
      <point x="392" y="15"/>
      <point x="339" y="15" type="curve" smooth="yes"/>
      <point x="221" y="15"/>
      <point x="160" y="95"/>
      <point x="160" y="228" type="curve" smooth="yes"/>
      <point x="160" y="294"/>
      <point x="179" y="345"/>
      <point x="215" y="378" type="curve" smooth="yes"/>
      <point x="253" y="412"/>
      <point x="306" y="429"/>
      <point x="393" y="429" type="curve" smooth="yes"/>
      <point x="451" y="429" type="line"/>
      <point x="451" y="438" type="line" smooth="yes"/>
      <point x="451" y="545"/>
      <point x="412" y="612"/>
      <point x="342" y="612" type="curve" smooth="yes"/>
      <point x="283" y="612"/>
      <point x="248" y="565"/>
      <point x="248" y="501" type="curve" smooth="yes"/>
      <point x="248" y="492"/>
      <point x="249" y="481"/>
      <point x="250" y="470" type="curve"/>
      <point x="277" y="472" type="line"/>
      <point x="276" y="479"/>
      <point x="275" y="489"/>
      <point x="275" y="498" type="curve" smooth="yes"/>
      <point x="275" y="557"/>
      <point x="298" y="586"/>
      <point x="343" y="586" type="curve" smooth="yes"/>
      <point x="390" y="586"/>
      <point x="419" y="541"/>
      <point x="425" y="455" type="curve"/>
      <point x="394" y="455" type="line" smooth="yes"/>
      <point x="300" y="455"/>
      <point x="238" y="436"/>
      <point x="195" y="395" type="curve" smooth="yes"/>
      <point x="156" y="358"/>
      <point x="133" y="303"/>
      <point x="133" y="229" type="curve" smooth="yes"/>
      <point x="133" y="81"/>
      <point x="206" y="-11"/>
    </contour>
    <contour>
      <point x="432" y="-271" type="curve" smooth="yes"/>
      <point x="448" y="-271"/>
      <point x="472" y="-267"/>
      <point x="490" y="-259" type="curve"/>
      <point x="483" y="-235" type="line"/>
      <point x="468" y="-241"/>
      <point x="450" y="-245"/>
      <point x="433" y="-245" type="curve" smooth="yes"/>
      <point x="369" y="-245"/>
      <point x="348" y="-203"/>
      <point x="348" y="-152" type="curve" smooth="yes"/>
      <point x="348" y="-80"/>
      <point x="390" y="-31"/>
      <point x="446" y="16" type="curve"/>
      <point x="431" y="22" type="line"/>
      <point x="418" y="20" type="line"/>
      <point x="368" y="-21"/>
      <point x="322" y="-75"/>
      <point x="322" y="-153" type="curve" smooth="yes"/>
      <point x="322" y="-215"/>
      <point x="351" y="-271"/>
    </contour>
    <contour>
      <point x="40" y="348" type="curve" smooth="yes"/>
      <point x="40" y="244"/>
      <point x="69" y="162"/>
      <point x="98" y="84" type="curve"/>
      <point x="123" y="94" type="line"/>
      <point x="90" y="172"/>
      <point x="67" y="258"/>
      <point x="67" y="348" type="curve" smooth="yes"/>
      <point x="67" y="520"/>
      <point x="152" y="587"/>
      <point x="270" y="587" type="curve" smooth="yes"/>
      <point x="277" y="587"/>
      <point x="291" y="586"/>
      <point x="299" y="584" type="curve"/>
      <point x="327" y="603" type="line"/>
      <point x="305" y="610"/>
      <point x="284" y="612"/>
      <point x="265" y="612" type="curve" smooth="yes"/>
      <point x="145" y="612"/>
      <point x="40" y="543"/>
    </contour>
  </outline>
</glyph>
<glyph name="pasinh" format="2">
  <advance width="554"/>
  <unicode hex="0DB4"/>
  <outline>
    <contour>
      <point x="277" y="-11" type="curve" smooth="yes"/>
      <point x="441" y="-11"/>
      <point x="516" y="98"/>
      <point x="516" y="247" type="curve" smooth="yes"/>
      <point x="516" y="378"/>
      <point x="442" y="455"/>
      <point x="315" y="455" type="curve" smooth="yes"/>
      <point x="296" y="455" type="line"/>
      <point x="315" y="452" type="line"/>
      <point x="321" y="541"/>
      <point x="350" y="586"/>
      <point x="397" y="586" type="curve" smooth="yes"/>
      <point x="442" y="586"/>
      <point x="465" y="557"/>
      <point x="465" y="498" type="curve" smooth="yes"/>
      <point x="465" y="478"/>
      <point x="463" y="462"/>
      <point x="461" y="452" type="curve"/>
      <point x="487" y="449" type="line"/>
      <point x="490" y="462"/>
      <point x="492" y="487"/>
      <point x="492" y="501" type="curve" smooth="yes"/>
      <point x="492" y="570"/>
      <point x="457" y="612"/>
      <point x="398" y="612" type="curve" smooth="yes"/>
      <point x="328" y="612"/>
      <point x="289" y="543"/>
      <point x="289" y="437" type="curve" smooth="yes"/>
      <point x="289" y="429" type="line"/>
      <point x="302" y="429" type="line" smooth="yes"/>
      <point x="366" y="429"/>
      <point x="408" y="415"/>
      <point x="439" y="387" type="curve" smooth="yes"/>
      <point x="472" y="357"/>
      <point x="489" y="310"/>
      <point x="489" y="247" type="curve" smooth="yes"/>
      <point x="489" y="118"/>
      <point x="429" y="15"/>
      <point x="277" y="15" type="curve" smooth="yes"/>
      <point x="125" y="15"/>
      <point x="65" y="118"/>
      <point x="65" y="247" type="curve" smooth="yes"/>
      <point x="65" y="310"/>
      <point x="82" y="357"/>
      <point x="115" y="387" type="curve" smooth="yes"/>
      <point x="146" y="415"/>
      <point x="188" y="429"/>
      <point x="252" y="429" type="curve" smooth="yes"/>
      <point x="265" y="429" type="line"/>
      <point x="265" y="437" type="line" smooth="yes"/>
      <point x="265" y="543"/>
      <point x="226" y="612"/>
      <point x="156" y="612" type="curve" smooth="yes"/>
      <point x="97" y="612"/>
      <point x="62" y="570"/>
      <point x="62" y="501" type="curve" smooth="yes"/>
      <point x="62" y="487"/>
      <point x="64" y="462"/>
      <point x="67" y="449" type="curve"/>
      <point x="93" y="452" type="line"/>
      <point x="91" y="462"/>
      <point x="89" y="478"/>
      <point x="89" y="498" type="curve" smooth="yes"/>
      <point x="89" y="557"/>
      <point x="112" y="586"/>
      <point x="157" y="586" type="curve" smooth="yes"/>
      <point x="204" y="586"/>
      <point x="233" y="541"/>
      <point x="239" y="452" type="curve"/>
      <point x="258" y="455" type="line"/>
      <point x="239" y="455" type="line" smooth="yes"/>
      <point x="112" y="455"/>
      <point x="38" y="378"/>
      <point x="38" y="247" type="curve" smooth="yes"/>
      <point x="38" y="98"/>
      <point x="113" y="-11"/>
    </contour>
  </outline>
</glyph>
<glyph name="basinh" format="2">
  <advance width="611"/>
  <unicode hex="0DB6"/>
  <outline>
    <contour>
      <point x="396" y="-11" type="curve" smooth="yes"/>
      <point x="511" y="-11"/>
      <point x="569" y="161"/>
      <point x="569" y="380" type="curve" smooth="yes"/>
      <point x="569" y="657"/>
      <point x="481" y="836"/>
      <point x="269" y="836" type="curve" smooth="yes"/>
      <point x="180" y="836"/>
      <point x="109" y="815"/>
      <point x="45" y="781" type="curve"/>
      <point x="57" y="758" type="line"/>
      <point x="115" y="789"/>
      <point x="179" y="810"/>
      <point x="269" y="810" type="curve" smooth="yes"/>
      <point x="466" y="810"/>
      <point x="542" y="637"/>
      <point x="542" y="381" type="curve" smooth="yes"/>
      <point x="542" y="180"/>
      <point x="490" y="15"/>
      <point x="397" y="15" type="curve" smooth="yes"/>
      <point x="359" y="15"/>
      <point x="338" y="41"/>
      <point x="338" y="91" type="curve" smooth="yes"/>
      <point x="338" y="143"/>
      <point x="351" y="182"/>
      <point x="364" y="228" type="curve" smooth="yes"/>
      <point x="375" y="266"/>
      <point x="387" y="311"/>
      <point x="387" y="373" type="curve" smooth="yes"/>
      <point x="387" y="469"/>
      <point x="343" y="547"/>
      <point x="242" y="547" type="curve" smooth="yes"/>
      <point x="129" y="547"/>
      <point x="38" y="442"/>
      <point x="38" y="239" type="curve" smooth="yes"/>
      <point x="38" y="91"/>
      <point x="81" y="-11"/>
      <point x="176" y="-11" type="curve" smooth="yes"/>
      <point x="238" y="-11"/>
      <point x="271" y="38"/>
      <point x="271" y="99" type="curve" smooth="yes"/>
      <point x="271" y="162"/>
      <point x="235" y="206"/>
      <point x="177" y="206" type="curve" smooth="yes"/>
      <point x="127" y="206"/>
      <point x="89" y="172"/>
      <point x="54" y="126" type="curve"/>
      <point x="68" y="104" type="line"/>
      <point x="99" y="149"/>
      <point x="135" y="180"/>
      <point x="175" y="180" type="curve" smooth="yes"/>
      <point x="223" y="180"/>
      <point x="244" y="144"/>
      <point x="244" y="99" type="curve" smooth="yes"/>
      <point x="244" y="58"/>
      <point x="229" y="15"/>
      <point x="175" y="15" type="curve" smooth="yes"/>
      <point x="114" y="15"/>
      <point x="85" y="71"/>
      <point x="74" y="133" type="curve"/>
      <point x="66" y="171"/>
      <point x="65" y="212"/>
      <point x="65" y="237" type="curve" smooth="yes"/>
      <point x="65" y="423"/>
      <point x="142" y="521"/>
      <point x="242" y="521" type="curve" smooth="yes"/>
      <point x="318" y="521"/>
      <point x="360" y="466"/>
      <point x="360" y="373" type="curve" smooth="yes"/>
      <point x="360" y="321"/>
      <point x="352" y="281"/>
      <point x="339" y="236" type="curve" smooth="yes"/>
      <point x="321" y="171"/>
      <point x="311" y="135"/>
      <point x="311" y="91" type="curve" smooth="yes"/>
      <point x="311" y="53"/>
      <point x="325" y="-11"/>
    </contour>
  </outline>
</glyph>
<glyph name="masinh" format="2">
  <advance width="605"/>
  <unicode hex="0DB8"/>
  <outline>
    <contour>
      <point x="283" y="-11" type="curve" smooth="yes"/>
      <point x="483" y="-11"/>
      <point x="565" y="153"/>
      <point x="565" y="418" type="curve" smooth="yes"/>
      <point x="565" y="711"/>
      <point x="446" y="836"/>
      <point x="273" y="836" type="curve" smooth="yes"/>
      <point x="185" y="836"/>
      <point x="128" y="819"/>
      <point x="53" y="779" type="curve"/>
      <point x="65" y="756" type="line"/>
      <point x="132" y="794"/>
      <point x="191" y="811"/>
      <point x="276" y="811" type="curve" smooth="yes"/>
      <point x="423" y="811"/>
      <point x="538" y="704"/>
      <point x="538" y="418" type="curve" smooth="yes"/>
      <point x="538" y="181"/>
      <point x="473" y="15"/>
      <point x="284" y="15" type="curve" smooth="yes"/>
      <point x="128" y="15"/>
      <point x="67" y="137"/>
      <point x="67" y="326" type="curve" smooth="yes"/>
      <point x="67" y="467"/>
      <point x="111" y="550"/>
      <point x="153" y="550" type="curve" smooth="yes"/>
      <point x="175" y="550"/>
      <point x="179" y="528"/>
      <point x="179" y="506" type="curve" smooth="yes"/>
      <point x="179" y="476"/>
      <point x="168" y="436"/>
      <point x="168" y="389" type="curve" smooth="yes"/>
      <point x="168" y="320"/>
      <point x="202" y="254"/>
      <point x="289" y="254" type="curve" smooth="yes"/>
      <point x="365" y="254"/>
      <point x="424" y="303"/>
      <point x="424" y="425" type="curve" smooth="yes"/>
      <point x="424" y="544"/>
      <point x="377" y="576"/>
      <point x="333" y="576" type="curve" smooth="yes"/>
      <point x="274" y="576"/>
      <point x="242" y="533"/>
      <point x="242" y="474" type="curve" smooth="yes"/>
      <point x="242" y="414"/>
      <point x="272" y="379"/>
      <point x="325" y="379" type="curve" smooth="yes"/>
      <point x="362" y="379"/>
      <point x="388" y="395"/>
      <point x="414" y="419" type="curve"/>
      <point x="407" y="441" type="line"/>
      <point x="376" y="415"/>
      <point x="355" y="405"/>
      <point x="326" y="405" type="curve" smooth="yes"/>
      <point x="290" y="405"/>
      <point x="269" y="425"/>
      <point x="269" y="474" type="curve" smooth="yes"/>
      <point x="269" y="524"/>
      <point x="293" y="550"/>
      <point x="332" y="550" type="curve" smooth="yes"/>
      <point x="369" y="550"/>
      <point x="398" y="516"/>
      <point x="398" y="425" type="curve" smooth="yes"/>
      <point x="398" y="314"/>
      <point x="346" y="280"/>
      <point x="287" y="280" type="curve" smooth="yes"/>
      <point x="221" y="280"/>
      <point x="194" y="329"/>
      <point x="194" y="391" type="curve" smooth="yes"/>
      <point x="194" y="445"/>
      <point x="205" y="478"/>
      <point x="205" y="510" type="curve" smooth="yes"/>
      <point x="205" y="547"/>
      <point x="190" y="576"/>
      <point x="154" y="576" type="curve" smooth="yes"/>
      <point x="93" y="576"/>
      <point x="40" y="485"/>
      <point x="40" y="326" type="curve" smooth="yes"/>
      <point x="40" y="123"/>
      <point x="111" y="-11"/>
    </contour>
  </outline>
</glyph>
<glyph name="yasinh" format="2">
  <advance width="566"/>
  <unicode hex="0DBA"/>
  <outline>
    <contour>
      <point x="397" y="-11" type="curve" smooth="yes"/>
      <point x="480" y="-11"/>
      <point x="528" y="64"/>
      <point x="528" y="212" type="curve" smooth="yes"/>
      <point x="528" y="371"/>
      <point x="450" y="455"/>
      <point x="318" y="455" type="curve" smooth="yes"/>
      <point x="302" y="455" type="line"/>
      <point x="318" y="452" type="line"/>
      <point x="324" y="541"/>
      <point x="353" y="586"/>
      <point x="399" y="586" type="curve" smooth="yes"/>
      <point x="445" y="586"/>
      <point x="468" y="557"/>
      <point x="468" y="498" type="curve" smooth="yes"/>
      <point x="468" y="478"/>
      <point x="466" y="462"/>
      <point x="464" y="452" type="curve"/>
      <point x="490" y="449" type="line"/>
      <point x="493" y="462"/>
      <point x="495" y="487"/>
      <point x="495" y="501" type="curve" smooth="yes"/>
      <point x="495" y="570"/>
      <point x="460" y="612"/>
      <point x="401" y="612" type="curve" smooth="yes"/>
      <point x="331" y="612"/>
      <point x="292" y="543"/>
      <point x="292" y="437" type="curve" smooth="yes"/>
      <point x="292" y="429" type="line"/>
      <point x="307" y="429" type="line" smooth="yes"/>
      <point x="376" y="429"/>
      <point x="414" y="412"/>
      <point x="443" y="385" type="curve" smooth="yes"/>
      <point x="485" y="346"/>
      <point x="501" y="283"/>
      <point x="501" y="211" type="curve" smooth="yes"/>
      <point x="501" y="80"/>
      <point x="465" y="15"/>
      <point x="397" y="15" type="curve" smooth="yes"/>
      <point x="319" y="15"/>
      <point x="295" y="101"/>
      <point x="295" y="167" type="curve" smooth="yes"/>
      <point x="295" y="204" type="line"/>
      <point x="269" y="204" type="line"/>
      <point x="269" y="167" type="line" smooth="yes"/>
      <point x="269" y="89"/>
      <point x="245" y="15"/>
      <point x="171" y="15" type="curve" smooth="yes"/>
      <point x="106" y="15"/>
      <point x="65" y="76"/>
      <point x="65" y="220" type="curve" smooth="yes"/>
      <point x="65" y="361"/>
      <point x="125" y="460"/>
      <point x="228" y="460" type="curve" smooth="yes"/>
      <point x="236" y="460"/>
      <point x="247" y="459"/>
      <point x="254" y="458" type="curve"/>
      <point x="256" y="483" type="line"/>
      <point x="246" y="485"/>
      <point x="236" y="486"/>
      <point x="229" y="486" type="curve" smooth="yes"/>
      <point x="107" y="486"/>
      <point x="38" y="374"/>
      <point x="38" y="220" type="curve" smooth="yes"/>
      <point x="38" y="67"/>
      <point x="86" y="-11"/>
      <point x="170" y="-11" type="curve" smooth="yes"/>
      <point x="234" y="-11"/>
      <point x="271" y="35"/>
      <point x="282" y="97" type="curve"/>
      <point x="296" y="37"/>
      <point x="330" y="-11"/>
    </contour>
  </outline>
</glyph>
<glyph name="rasinh" format="2">
  <advance width="498"/>
  <unicode hex="0DBB"/>
  <outline>
    <contour>
      <point x="242" y="-11" type="curve" smooth="yes"/>
      <point x="392" y="-11"/>
      <point x="458" y="110"/>
      <point x="458" y="281" type="curve" smooth="yes"/>
      <point x="458" y="474"/>
      <point x="370" y="563"/>
      <point x="258" y="563" type="curve" smooth="yes"/>
      <point x="243" y="563"/>
      <point x="214" y="558"/>
      <point x="202" y="555" type="curve"/>
      <point x="163" y="523" type="line"/>
      <point x="187" y="532"/>
      <point x="219" y="538"/>
      <point x="253" y="538" type="curve" smooth="yes"/>
      <point x="360" y="538"/>
      <point x="431" y="452"/>
      <point x="431" y="281" type="curve" smooth="yes"/>
      <point x="431" y="129"/>
      <point x="379" y="15"/>
      <point x="243" y="15" type="curve" smooth="yes"/>
      <point x="120" y="15"/>
      <point x="67" y="109"/>
      <point x="67" y="267" type="curve" smooth="yes"/>
      <point x="67" y="393"/>
      <point x="123" y="487"/>
      <point x="243" y="549" type="curve"/>
      <point x="248" y="557" type="line"/>
      <point x="314" y="603"/>
      <point x="413" y="689"/>
      <point x="482" y="779" type="curve"/>
      <point x="462" y="797" type="line"/>
      <point x="391" y="710"/>
      <point x="314" y="636"/>
      <point x="234" y="578" type="curve"/>
      <point x="125" y="510"/>
      <point x="40" y="433"/>
      <point x="40" y="265" type="curve" smooth="yes"/>
      <point x="40" y="95"/>
      <point x="104" y="-11"/>
    </contour>
  </outline>
</glyph>
<glyph name="lasinh" format="2">
  <advance width="595"/>
  <unicode hex="0DBD"/>
  <outline>
    <contour>
      <point x="315" y="-188" type="curve" smooth="yes"/>
      <point x="453" y="-188"/>
      <point x="561" y="-104"/>
      <point x="561" y="125" type="curve" smooth="yes"/>
      <point x="561" y="140"/>
      <point x="560" y="157"/>
      <point x="559" y="172" type="curve"/>
      <point x="532" y="171" type="line"/>
      <point x="533" y="158"/>
      <point x="534" y="141"/>
      <point x="534" y="126" type="curve" smooth="yes"/>
      <point x="534" y="-78"/>
      <point x="446" y="-162"/>
      <point x="317" y="-162" type="curve" smooth="yes"/>
      <point x="147" y="-162"/>
      <point x="66" y="-34"/>
      <point x="66" y="193" type="curve" smooth="yes"/>
      <point x="66" y="429"/>
      <point x="164" y="586"/>
      <point x="353" y="586" type="curve" smooth="yes"/>
      <point x="490" y="586"/>
      <point x="528" y="491"/>
      <point x="528" y="387" type="curve" smooth="yes"/>
      <point x="528" y="299"/>
      <point x="495" y="246"/>
      <point x="420" y="246" type="curve" smooth="yes"/>
      <point x="356" y="246"/>
      <point x="332" y="288"/>
      <point x="332" y="335" type="curve" smooth="yes"/>
      <point x="332" y="369"/>
      <point x="344" y="401"/>
      <point x="365" y="426" type="curve"/>
      <point x="340" y="408" type="line"/>
      <point x="450" y="408" type="line"/>
      <point x="450" y="434" type="line"/>
      <point x="189" y="434" type="line"/>
      <point x="189" y="408" type="line"/>
      <point x="334" y="408" type="line"/>
      <point x="345" y="416" type="line"/>
      <point x="334" y="426" type="line"/>
      <point x="315" y="401"/>
      <point x="305" y="369"/>
      <point x="305" y="335" type="curve" smooth="yes"/>
      <point x="305" y="272"/>
      <point x="342" y="220"/>
      <point x="420" y="220" type="curve" smooth="yes"/>
      <point x="511" y="220"/>
      <point x="555" y="286"/>
      <point x="555" y="388" type="curve" smooth="yes"/>
      <point x="555" y="506"/>
      <point x="504" y="612"/>
      <point x="353" y="612" type="curve" smooth="yes"/>
      <point x="152" y="612"/>
      <point x="39" y="448"/>
      <point x="39" y="194" type="curve" smooth="yes"/>
      <point x="39" y="-43"/>
      <point x="128" y="-188"/>
    </contour>
  </outline>
</glyph>
<glyph name="vasinh" format="2">
  <advance width="571"/>
  <unicode hex="0DC0"/>
  <outline>
    <contour>
      <point x="252" y="-11" type="curve" smooth="yes"/>
      <point x="449" y="-11"/>
      <point x="531" y="161"/>
      <point x="531" y="416" type="curve" smooth="yes"/>
      <point x="531" y="711"/>
      <point x="413" y="836"/>
      <point x="253" y="836" type="curve" smooth="yes"/>
      <point x="177" y="836"/>
      <point x="111" y="816"/>
      <point x="44" y="779" type="curve"/>
      <point x="56" y="756" type="line"/>
      <point x="127" y="795"/>
      <point x="180" y="810"/>
      <point x="255" y="810" type="curve" smooth="yes"/>
      <point x="390" y="810"/>
      <point x="504" y="704"/>
      <point x="504" y="417" type="curve" smooth="yes"/>
      <point x="504" y="183"/>
      <point x="435" y="15"/>
      <point x="256" y="15" type="curve" smooth="yes"/>
      <point x="147" y="15"/>
      <point x="65" y="81"/>
      <point x="65" y="234" type="curve" smooth="yes"/>
      <point x="65" y="294"/>
      <point x="80" y="339"/>
      <point x="109" y="371" type="curve" smooth="yes"/>
      <point x="145" y="411"/>
      <point x="197" y="429"/>
      <point x="285" y="429" type="curve" smooth="yes"/>
      <point x="330" y="429" type="line"/>
      <point x="330" y="438" type="line" smooth="yes"/>
      <point x="330" y="545"/>
      <point x="291" y="612"/>
      <point x="221" y="612" type="curve" smooth="yes"/>
      <point x="162" y="612"/>
      <point x="127" y="570"/>
      <point x="127" y="501" type="curve" smooth="yes"/>
      <point x="127" y="487"/>
      <point x="129" y="471"/>
      <point x="130" y="462" type="curve"/>
      <point x="156" y="464" type="line"/>
      <point x="155" y="474"/>
      <point x="154" y="485"/>
      <point x="154" y="498" type="curve" smooth="yes"/>
      <point x="154" y="557"/>
      <point x="177" y="586"/>
      <point x="222" y="586" type="curve" smooth="yes"/>
      <point x="269" y="586"/>
      <point x="298" y="541"/>
      <point x="304" y="455" type="curve"/>
      <point x="280" y="455" type="line" smooth="yes"/>
      <point x="194" y="455"/>
      <point x="137" y="435"/>
      <point x="96" y="395" type="curve" smooth="yes"/>
      <point x="59" y="359"/>
      <point x="38" y="305"/>
      <point x="38" y="233" type="curve" smooth="yes"/>
      <point x="38" y="70"/>
      <point x="130" y="-11"/>
    </contour>
  </outline>
</glyph>
<glyph name="shasinh" format="2">
  <advance width="658"/>
  <unicode hex="0DC1"/>
  <outline>
    <contour>
      <point x="224" y="-11" type="curve" smooth="yes"/>
      <point x="339" y="-11"/>
      <point x="393" y="83"/>
      <point x="393" y="224" type="curve" smooth="yes"/>
      <point x="393" y="310"/>
      <point x="371" y="357"/>
      <point x="319" y="357" type="curve" smooth="yes"/>
      <point x="298" y="357"/>
      <point x="276" y="345"/>
      <point x="259" y="321" type="curve"/>
      <point x="266" y="312" type="line"/>
      <point x="299" y="504"/>
      <point x="353" y="586"/>
      <point x="448" y="586" type="curve" smooth="yes"/>
      <point x="541" y="586"/>
      <point x="591" y="488"/>
      <point x="591" y="335" type="curve" smooth="yes"/>
      <point x="591" y="171"/>
      <point x="527" y="75"/>
      <point x="436" y="22" type="curve"/>
      <point x="422" y="18" type="line"/>
      <point x="436" y="-5" type="line"/>
      <point x="522" y="39"/>
      <point x="618" y="132"/>
      <point x="618" y="335" type="curve" smooth="yes"/>
      <point x="618" y="499"/>
      <point x="559" y="612"/>
      <point x="449" y="612" type="curve" smooth="yes"/>
      <point x="349" y="612"/>
      <point x="274" y="543"/>
      <point x="239" y="305" type="curve"/>
      <point x="264" y="297" type="line"/>
      <point x="278" y="318"/>
      <point x="293" y="331"/>
      <point x="316" y="331" type="curve" smooth="yes"/>
      <point x="354" y="331"/>
      <point x="367" y="294"/>
      <point x="367" y="224" type="curve" smooth="yes"/>
      <point x="367" y="90"/>
      <point x="318" y="15"/>
      <point x="222" y="15" type="curve" smooth="yes"/>
      <point x="114" y="15"/>
      <point x="68" y="117"/>
      <point x="68" y="283" type="curve" smooth="yes"/>
      <point x="68" y="488"/>
      <point x="128" y="586"/>
      <point x="247" y="586" type="curve" smooth="yes"/>
      <point x="255" y="586"/>
      <point x="269" y="585"/>
      <point x="279" y="583" type="curve"/>
      <point x="281" y="609" type="line"/>
      <point x="271" y="611"/>
      <point x="256" y="612"/>
      <point x="250" y="612" type="curve" smooth="yes"/>
      <point x="118" y="612"/>
      <point x="41" y="516"/>
      <point x="41" y="281" type="curve" smooth="yes"/>
      <point x="41" y="91"/>
      <point x="102" y="-11"/>
    </contour>
    <contour>
      <point x="422" y="18" type="curve"/>
      <point x="447" y="11" type="line"/>
      <point x="463" y="27"/>
      <point x="482" y="50"/>
      <point x="482" y="86" type="curve" smooth="yes"/>
      <point x="482" y="135"/>
      <point x="465" y="169"/>
      <point x="465" y="219" type="curve" smooth="yes"/>
      <point x="465" y="263"/>
      <point x="483" y="296"/>
      <point x="529" y="296" type="curve" smooth="yes"/>
      <point x="552" y="296"/>
      <point x="577" y="286"/>
      <point x="603" y="267" type="curve"/>
      <point x="609" y="291" type="line"/>
      <point x="588" y="308"/>
      <point x="561" y="322"/>
      <point x="528" y="322" type="curve" smooth="yes"/>
      <point x="475" y="322"/>
      <point x="438" y="286"/>
      <point x="438" y="222" type="curve" smooth="yes"/>
      <point x="438" y="168"/>
      <point x="456" y="124"/>
      <point x="456" y="87" type="curve" smooth="yes"/>
      <point x="456" y="52"/>
      <point x="445" y="31"/>
    </contour>
  </outline>
</glyph>
<glyph name="ssasinh" format="2">
  <advance width="554"/>
  <unicode hex="0DC2"/>
  <outline>
    <contour>
      <point x="277" y="-11" type="curve" smooth="yes"/>
      <point x="441" y="-11"/>
      <point x="516" y="98"/>
      <point x="516" y="247" type="curve" smooth="yes"/>
      <point x="516" y="378"/>
      <point x="442" y="455"/>
      <point x="315" y="455" type="curve" smooth="yes"/>
      <point x="296" y="455" type="line"/>
      <point x="315" y="452" type="line"/>
      <point x="321" y="541"/>
      <point x="351" y="586"/>
      <point x="400" y="586" type="curve" smooth="yes"/>
      <point x="443" y="586"/>
      <point x="466" y="557"/>
      <point x="466" y="492" type="curve" smooth="yes"/>
      <point x="466" y="462"/>
      <point x="460" y="430"/>
      <point x="447" y="404" type="curve"/>
      <point x="444" y="398" type="line"/>
      <point x="420" y="350"/>
      <point x="376" y="321"/>
      <point x="306" y="321" type="curve" smooth="yes"/>
      <point x="279" y="321" type="line" smooth="yes"/>
      <point x="220" y="321"/>
      <point x="190" y="311"/>
      <point x="170" y="289" type="curve" smooth="yes"/>
      <point x="157" y="275"/>
      <point x="149" y="255"/>
      <point x="149" y="230" type="curve" smooth="yes"/>
      <point x="149" y="167"/>
      <point x="194" y="127"/>
      <point x="271" y="127" type="curve" smooth="yes"/>
      <point x="350" y="127"/>
      <point x="398" y="167"/>
      <point x="398" y="233" type="curve" smooth="yes"/>
      <point x="398" y="268"/>
      <point x="385" y="296"/>
      <point x="368" y="316" type="curve"/>
      <point x="342" y="305" type="line"/>
      <point x="360" y="289"/>
      <point x="371" y="260"/>
      <point x="371" y="234" type="curve" smooth="yes"/>
      <point x="371" y="182"/>
      <point x="336" y="153"/>
      <point x="271" y="153" type="curve" smooth="yes"/>
      <point x="215" y="153"/>
      <point x="176" y="177"/>
      <point x="176" y="230" type="curve" smooth="yes"/>
      <point x="176" y="266"/>
      <point x="195" y="295"/>
      <point x="267" y="295" type="curve" smooth="yes"/>
      <point x="304" y="295" type="line" smooth="yes"/>
      <point x="383" y="295"/>
      <point x="432" y="326"/>
      <point x="463" y="379" type="curve"/>
      <point x="483" y="409"/>
      <point x="493" y="446"/>
      <point x="493" y="493" type="curve" smooth="yes"/>
      <point x="493" y="571"/>
      <point x="458" y="612"/>
      <point x="404" y="612" type="curve" smooth="yes"/>
      <point x="327" y="612"/>
      <point x="289" y="543"/>
      <point x="289" y="437" type="curve" smooth="yes"/>
      <point x="289" y="429" type="line"/>
      <point x="302" y="429" type="line" smooth="yes"/>
      <point x="366" y="429"/>
      <point x="408" y="415"/>
      <point x="439" y="387" type="curve" smooth="yes"/>
      <point x="472" y="357"/>
      <point x="489" y="310"/>
      <point x="489" y="247" type="curve" smooth="yes"/>
      <point x="489" y="118"/>
      <point x="429" y="15"/>
      <point x="277" y="15" type="curve" smooth="yes"/>
      <point x="125" y="15"/>
      <point x="65" y="118"/>
      <point x="65" y="247" type="curve" smooth="yes"/>
      <point x="65" y="310"/>
      <point x="82" y="357"/>
      <point x="115" y="387" type="curve" smooth="yes"/>
      <point x="146" y="415"/>
      <point x="188" y="429"/>
      <point x="252" y="429" type="curve" smooth="yes"/>
      <point x="265" y="429" type="line"/>
      <point x="265" y="437" type="line" smooth="yes"/>
      <point x="265" y="543"/>
      <point x="226" y="612"/>
      <point x="156" y="612" type="curve" smooth="yes"/>
      <point x="97" y="612"/>
      <point x="62" y="570"/>
      <point x="62" y="501" type="curve" smooth="yes"/>
      <point x="62" y="487"/>
      <point x="64" y="462"/>
      <point x="67" y="449" type="curve"/>
      <point x="93" y="452" type="line"/>
      <point x="91" y="462"/>
      <point x="89" y="478"/>
      <point x="89" y="498" type="curve" smooth="yes"/>
      <point x="89" y="557"/>
      <point x="112" y="586"/>
      <point x="157" y="586" type="curve" smooth="yes"/>
      <point x="204" y="586"/>
      <point x="233" y="541"/>
      <point x="239" y="452" type="curve"/>
      <point x="258" y="455" type="line"/>
      <point x="239" y="455" type="line" smooth="yes"/>
      <point x="112" y="455"/>
      <point x="38" y="378"/>
      <point x="38" y="247" type="curve" smooth="yes"/>
      <point x="38" y="98"/>
      <point x="113" y="-11"/>
    </contour>
  </outline>
</glyph>
<glyph name="sasinh" format="2">
  <advance width="575"/>
  <unicode hex="0DC3"/>
  <outline>
    <contour>
      <point x="407" y="-11" type="curve" smooth="yes"/>
      <point x="489" y="-11"/>
      <point x="537" y="64"/>
      <point x="537" y="212" type="curve" smooth="yes"/>
      <point x="537" y="371"/>
      <point x="459" y="455"/>
      <point x="327" y="455" type="curve" smooth="yes"/>
      <point x="311" y="455" type="line"/>
      <point x="330" y="452" type="line"/>
      <point x="336" y="541"/>
      <point x="365" y="586"/>
      <point x="412" y="586" type="curve" smooth="yes"/>
      <point x="457" y="586"/>
      <point x="480" y="557"/>
      <point x="480" y="498" type="curve" smooth="yes"/>
      <point x="480" y="478"/>
      <point x="478" y="462"/>
      <point x="476" y="452" type="curve"/>
      <point x="502" y="449" type="line"/>
      <point x="505" y="462"/>
      <point x="507" y="487"/>
      <point x="507" y="501" type="curve" smooth="yes"/>
      <point x="507" y="570"/>
      <point x="472" y="612"/>
      <point x="413" y="612" type="curve" smooth="yes"/>
      <point x="343" y="612"/>
      <point x="304" y="543"/>
      <point x="304" y="437" type="curve" smooth="yes"/>
      <point x="304" y="429" type="line"/>
      <point x="316" y="429" type="line" smooth="yes"/>
      <point x="385" y="429"/>
      <point x="423" y="412"/>
      <point x="452" y="385" type="curve" smooth="yes"/>
      <point x="494" y="346"/>
      <point x="510" y="283"/>
      <point x="510" y="211" type="curve" smooth="yes"/>
      <point x="510" y="80"/>
      <point x="474" y="15"/>
      <point x="406" y="15" type="curve" smooth="yes"/>
      <point x="328" y="15"/>
      <point x="304" y="101"/>
      <point x="304" y="167" type="curve" smooth="yes"/>
      <point x="304" y="204" type="line"/>
      <point x="278" y="204" type="line"/>
      <point x="278" y="167" type="line" smooth="yes"/>
      <point x="278" y="103"/>
      <point x="254" y="15"/>
      <point x="177" y="15" type="curve" smooth="yes"/>
      <point x="115" y="15"/>
      <point x="72" y="75"/>
      <point x="72" y="199" type="curve" smooth="yes"/>
      <point x="72" y="270"/>
      <point x="88" y="335"/>
      <point x="127" y="377" type="curve" smooth="yes"/>
      <point x="158" y="410"/>
      <point x="199" y="429"/>
      <point x="273" y="429" type="curve" smooth="yes"/>
      <point x="280" y="429" type="line"/>
      <point x="280" y="437" type="line" smooth="yes"/>
      <point x="280" y="543"/>
      <point x="241" y="612"/>
      <point x="171" y="612" type="curve" smooth="yes"/>
      <point x="112" y="612"/>
      <point x="77" y="570"/>
      <point x="77" y="501" type="curve" smooth="yes"/>
      <point x="77" y="494"/>
      <point x="77" y="483"/>
      <point x="78" y="476" type="curve"/>
      <point x="105" y="477" type="line"/>
      <point x="104" y="483"/>
      <point x="104" y="490"/>
      <point x="104" y="498" type="curve" smooth="yes"/>
      <point x="104" y="557"/>
      <point x="127" y="586"/>
      <point x="172" y="586" type="curve" smooth="yes"/>
      <point x="219" y="586"/>
      <point x="248" y="541"/>
      <point x="254" y="455" type="curve"/>
      <point x="26" y="455" type="line"/>
      <point x="26" y="429" type="line"/>
      <point x="82" y="429" type="line" smooth="yes"/>
      <point x="112" y="429"/>
      <point x="149" y="430"/>
      <point x="190" y="437" type="curve"/>
      <point x="183" y="437" type="line"/>
      <point x="83" y="404"/>
      <point x="45" y="317"/>
      <point x="45" y="198" type="curve" smooth="yes"/>
      <point x="45" y="66"/>
      <point x="95" y="-11"/>
      <point x="177" y="-11" type="curve" smooth="yes"/>
      <point x="243" y="-11"/>
      <point x="280" y="44"/>
      <point x="290" y="97" type="curve"/>
      <point x="304" y="37"/>
      <point x="339" y="-11"/>
    </contour>
  </outline>
</glyph>
<glyph name="hasinh" format="2">
  <advance width="682"/>
  <unicode hex="0DC4"/>
  <outline>
    <contour>
      <point x="231" y="-11" type="curve" smooth="yes"/>
      <point x="367" y="-11"/>
      <point x="425" y="93"/>
      <point x="425" y="228" type="curve" smooth="yes"/>
      <point x="425" y="310"/>
      <point x="403" y="357"/>
      <point x="351" y="357" type="curve" smooth="yes"/>
      <point x="330" y="357"/>
      <point x="308" y="346"/>
      <point x="291" y="321" type="curve"/>
      <point x="298" y="312" type="line"/>
      <point x="333" y="513"/>
      <point x="391" y="586"/>
      <point x="475" y="586" type="curve" smooth="yes"/>
      <point x="566" y="586"/>
      <point x="614" y="488"/>
      <point x="614" y="314" type="curve" smooth="yes"/>
      <point x="614" y="125"/>
      <point x="562" y="22"/>
      <point x="438" y="22" type="curve" smooth="yes"/>
      <point x="427" y="22"/>
      <point x="413" y="23"/>
      <point x="405" y="25" type="curve"/>
      <point x="403" y="-1" type="line"/>
      <point x="414" y="-3"/>
      <point x="425" y="-4"/>
      <point x="441" y="-4" type="curve" smooth="yes"/>
      <point x="563" y="-4"/>
      <point x="641" y="87"/>
      <point x="641" y="315" type="curve" smooth="yes"/>
      <point x="641" y="501"/>
      <point x="585" y="612"/>
      <point x="476" y="612" type="curve" smooth="yes"/>
      <point x="386" y="612"/>
      <point x="307" y="548"/>
      <point x="271" y="305" type="curve"/>
      <point x="296" y="297" type="line"/>
      <point x="310" y="318"/>
      <point x="325" y="331"/>
      <point x="348" y="331" type="curve" smooth="yes"/>
      <point x="386" y="331"/>
      <point x="399" y="294"/>
      <point x="399" y="231" type="curve" smooth="yes"/>
      <point x="399" y="103"/>
      <point x="350" y="15"/>
      <point x="230" y="15" type="curve" smooth="yes"/>
      <point x="126" y="15"/>
      <point x="65" y="95"/>
      <point x="65" y="247" type="curve" smooth="yes"/>
      <point x="65" y="311"/>
      <point x="82" y="357"/>
      <point x="115" y="387" type="curve" smooth="yes"/>
      <point x="146" y="415"/>
      <point x="188" y="429"/>
      <point x="252" y="429" type="curve" smooth="yes"/>
      <point x="265" y="429" type="line"/>
      <point x="265" y="437" type="line" smooth="yes"/>
      <point x="265" y="543"/>
      <point x="226" y="612"/>
      <point x="156" y="612" type="curve" smooth="yes"/>
      <point x="97" y="612"/>
      <point x="62" y="570"/>
      <point x="62" y="501" type="curve" smooth="yes"/>
      <point x="62" y="487"/>
      <point x="64" y="462"/>
      <point x="67" y="449" type="curve"/>
      <point x="93" y="452" type="line"/>
      <point x="91" y="462"/>
      <point x="89" y="478"/>
      <point x="89" y="498" type="curve" smooth="yes"/>
      <point x="89" y="557"/>
      <point x="112" y="586"/>
      <point x="157" y="586" type="curve" smooth="yes"/>
      <point x="204" y="586"/>
      <point x="233" y="541"/>
      <point x="239" y="452" type="curve"/>
      <point x="258" y="455" type="line"/>
      <point x="239" y="455" type="line" smooth="yes"/>
      <point x="112" y="455"/>
      <point x="38" y="378"/>
      <point x="38" y="247" type="curve" smooth="yes"/>
      <point x="38" y="80"/>
      <point x="110" y="-11"/>
    </contour>
  </outline>
</glyph>
<glyph name="llasinh" format="2">
  <advance width="522"/>
  <unicode hex="0DC5"/>
  <outline>
    <contour>
      <point x="282" y="-194" type="curve" smooth="yes"/>
      <point x="406" y="-194"/>
      <point x="506" y="-119"/>
      <point x="506" y="55" type="curve" smooth="yes"/>
      <point x="506" y="73"/>
      <point x="505" y="86"/>
      <point x="504" y="94" type="curve"/>
      <point x="478" y="92" type="line"/>
      <point x="479" y="83"/>
      <point x="479" y="67"/>
      <point x="479" y="55" type="curve" smooth="yes"/>
      <point x="479" y="-99"/>
      <point x="397" y="-168"/>
      <point x="281" y="-168" type="curve" smooth="yes"/>
      <point x="125" y="-168"/>
      <point x="57" y="-40"/>
      <point x="57" y="118" type="curve" smooth="yes"/>
      <point x="57" y="213"/>
      <point x="82" y="288"/>
      <point x="130" y="341" type="curve"/>
      <point x="138" y="346" type="line"/>
      <point x="195" y="401"/>
      <point x="279" y="429"/>
      <point x="413" y="429" type="curve" smooth="yes"/>
      <point x="487" y="429" type="line"/>
      <point x="487" y="450" type="line" smooth="yes"/>
      <point x="487" y="555"/>
      <point x="446" y="612"/>
      <point x="388" y="612" type="curve" smooth="yes"/>
      <point x="346" y="612"/>
      <point x="316" y="583"/>
      <point x="301" y="538" type="curve"/>
      <point x="291" y="586"/>
      <point x="263" y="612"/>
      <point x="227" y="612" type="curve" smooth="yes"/>
      <point x="156" y="612"/>
      <point x="119" y="533"/>
      <point x="119" y="408" type="curve" smooth="yes"/>
      <point x="119" y="388"/>
      <point x="119" y="367"/>
      <point x="121" y="348" type="curve" smooth="yes"/>
      <point x="131" y="221"/>
      <point x="179" y="128"/>
      <point x="303" y="128" type="curve" smooth="yes"/>
      <point x="413" y="128"/>
      <point x="473" y="190"/>
      <point x="483" y="315" type="curve"/>
      <point x="457" y="316" type="line"/>
      <point x="449" y="204"/>
      <point x="397" y="154"/>
      <point x="302" y="154" type="curve" smooth="yes"/>
      <point x="186" y="154"/>
      <point x="146" y="249"/>
      <point x="146" y="407" type="curve" smooth="yes"/>
      <point x="146" y="504"/>
      <point x="170" y="586"/>
      <point x="226" y="586" type="curve" smooth="yes"/>
      <point x="266" y="586"/>
      <point x="282" y="554"/>
      <point x="288" y="487" type="curve"/>
      <point x="314" y="487" type="line"/>
      <point x="322" y="554"/>
      <point x="345" y="586"/>
      <point x="385" y="586" type="curve" smooth="yes"/>
      <point x="434" y="586"/>
      <point x="459" y="532"/>
      <point x="461" y="455" type="curve"/>
      <point x="414" y="455" type="line" smooth="yes"/>
      <point x="280" y="455"/>
      <point x="195" y="429"/>
      <point x="136" y="377" type="curve"/>
      <point x="128" y="372" type="line"/>
      <point x="63" y="315"/>
      <point x="30" y="229"/>
      <point x="30" y="120" type="curve" smooth="yes"/>
      <point x="30" y="-51"/>
      <point x="105" y="-194"/>
    </contour>
  </outline>
</glyph>
<glyph name="fasinh" format="2">
  <advance width="606"/>
  <unicode hex="0DC6"/>
  <outline>
    <contour>
      <point x="397" y="-11" type="curve" smooth="yes"/>
      <point x="519" y="-11"/>
      <point x="565" y="108"/>
      <point x="565" y="310" type="curve" smooth="yes"/>
      <point x="565" y="486"/>
      <point x="515" y="612"/>
      <point x="415" y="612" type="curve" smooth="yes"/>
      <point x="359" y="612"/>
      <point x="318" y="569"/>
      <point x="303" y="492" type="curve"/>
      <point x="288" y="569"/>
      <point x="247" y="612"/>
      <point x="193" y="612" type="curve" smooth="yes"/>
      <point x="91" y="612"/>
      <point x="41" y="486"/>
      <point x="41" y="309" type="curve" smooth="yes"/>
      <point x="41" y="108"/>
      <point x="87" y="-11"/>
      <point x="209" y="-11" type="curve" smooth="yes"/>
      <point x="220" y="-11"/>
      <point x="234" y="-10"/>
      <point x="245" y="-8" type="curve"/>
      <point x="244" y="18" type="line"/>
      <point x="234" y="16"/>
      <point x="221" y="15"/>
      <point x="210" y="15" type="curve" smooth="yes"/>
      <point x="96" y="15"/>
      <point x="68" y="142"/>
      <point x="68" y="309" type="curve" smooth="yes"/>
      <point x="68" y="472"/>
      <point x="110" y="586"/>
      <point x="193" y="586" type="curve" smooth="yes"/>
      <point x="221" y="586"/>
      <point x="241" y="573"/>
      <point x="256" y="552" type="curve" smooth="yes"/>
      <point x="282" y="515"/>
      <point x="290" y="455"/>
      <point x="290" y="397" type="curve" smooth="yes"/>
      <point x="290" y="378" type="line"/>
      <point x="316" y="378" type="line"/>
      <point x="316" y="397" type="line" smooth="yes"/>
      <point x="316" y="457"/>
      <point x="324" y="515"/>
      <point x="350" y="552" type="curve" smooth="yes"/>
      <point x="365" y="573"/>
      <point x="385" y="586"/>
      <point x="415" y="586" type="curve" smooth="yes"/>
      <point x="496" y="586"/>
      <point x="538" y="472"/>
      <point x="538" y="309" type="curve" smooth="yes"/>
      <point x="538" y="142"/>
      <point x="510" y="15"/>
      <point x="396" y="15" type="curve" smooth="yes"/>
      <point x="382" y="15"/>
      <point x="372" y="16"/>
      <point x="362" y="18" type="curve"/>
      <point x="360" y="-8" type="line"/>
      <point x="371" y="-10"/>
      <point x="384" y="-11"/>
    </contour>
  </outline>
</glyph>
<glyph name="viramasinh" format="2">
  <unicode hex="0DCA"/>
  <outline>
    <contour>
      <point x="-131" y="534" type="line"/>
      <point x="-105" y="524" type="line"/>
      <point x="-105" y="861" type="line"/>
      <point x="-115" y="901" type="line"/>
      <point x="-116" y="929"/>
      <point x="-136" y="959"/>
      <point x="-163" y="973" type="curve"/>
      <point x="-179" y="949" type="line"/>
      <point x="-163" y="940"/>
      <point x="-152" y="930"/>
      <point x="-145" y="919" type="curve" smooth="yes"/>
      <point x="-132" y="899"/>
      <point x="-131" y="880"/>
      <point x="-131" y="837" type="curve" smooth="yes"/>
    </contour>
    <contour>
      <point x="-69" y="806" type="curve" smooth="yes"/>
      <point x="-21" y="806"/>
      <point x="0" y="839"/>
      <point x="0" y="891" type="curve" smooth="yes"/>
      <point x="0" y="949"/>
      <point x="-29" y="973"/>
      <point x="-62" y="973" type="curve" smooth="yes"/>
      <point x="-96" y="973"/>
      <point x="-116" y="944"/>
      <point x="-121" y="913" type="curve"/>
      <point x="-105" y="852" type="line"/>
      <point x="-105" y="865" type="line" smooth="yes"/>
      <point x="-105" y="911"/>
      <point x="-96" y="948"/>
      <point x="-62" y="948" type="curve" smooth="yes"/>
      <point x="-37" y="948"/>
      <point x="-25" y="930"/>
      <point x="-25" y="890" type="curve" smooth="yes"/>
      <point x="-25" y="847"/>
      <point x="-40" y="831"/>
      <point x="-72" y="831" type="curve" smooth="yes"/>
      <point x="-94" y="831"/>
      <point x="-105" y="837"/>
      <point x="-116" y="843" type="curve"/>
      <point x="-122" y="819" type="line"/>
      <point x="-109" y="812"/>
      <point x="-96" y="806"/>
    </contour>
  </outline>
</glyph>
<glyph name="aavowelsignsinh" format="2">
  <advance width="248"/>
  <unicode hex="0DCF"/>
  <outline>
    <contour>
      <point x="63" y="-11" type="curve" smooth="yes"/>
      <point x="135" y="-11"/>
      <point x="206" y="24"/>
      <point x="206" y="273" type="curve" smooth="yes"/>
      <point x="206" y="521"/>
      <point x="135" y="555"/>
      <point x="63" y="555" type="curve" smooth="yes"/>
      <point x="41" y="555"/>
      <point x="23" y="551"/>
      <point x="8" y="546" type="curve"/>
      <point x="13" y="521" type="line"/>
      <point x="26" y="526"/>
      <point x="45" y="529"/>
      <point x="64" y="529" type="curve" smooth="yes"/>
      <point x="126" y="529"/>
      <point x="179" y="494"/>
      <point x="179" y="274" type="curve" smooth="yes"/>
      <point x="179" y="52"/>
      <point x="126" y="15"/>
      <point x="65" y="15" type="curve" smooth="yes"/>
      <point x="44" y="15"/>
      <point x="27" y="18"/>
      <point x="13" y="23" type="curve"/>
      <point x="8" y="-2" type="line"/>
      <point x="25" y="-8"/>
      <point x="44" y="-11"/>
    </contour>
  </outline>
</glyph>
<glyph name="aevowelsignsinh" format="2">
  <advance width="213"/>
  <unicode hex="0DD0"/>
  <outline>
    <contour>
      <point x="153" y="-165" type="curve" smooth="yes"/>
      <point x="173" y="-165"/>
      <point x="195" y="-162"/>
      <point x="221" y="-152" type="curve"/>
      <point x="214" y="-127" type="line"/>
      <point x="196" y="-136"/>
      <point x="175" y="-139"/>
      <point x="153" y="-139" type="curve" smooth="yes"/>
      <point x="106" y="-139"/>
      <point x="52" y="-116"/>
      <point x="52" y="11" type="curve" smooth="yes"/>
      <point x="52" y="110"/>
      <point x="85" y="209"/>
      <point x="193" y="374" type="curve"/>
      <point x="183" y="402" type="line"/>
      <point x="11" y="402" type="line"/>
      <point x="11" y="376" type="line"/>
      <point x="120" y="376" type="line" smooth="yes"/>
      <point x="144" y="376"/>
      <point x="164" y="377"/>
      <point x="177" y="380" type="curve"/>
      <point x="170" y="384" type="line"/>
      <point x="48" y="198"/>
      <point x="25" y="100"/>
      <point x="25" y="11" type="curve" smooth="yes"/>
      <point x="25" y="-114"/>
      <point x="75" y="-165"/>
    </contour>
  </outline>
</glyph>
<glyph name="aaevowelsignsinh" format="2">
  <advance width="218"/>
  <unicode hex="0DD1"/>
  <outline>
    <contour>
      <point x="154" y="-165" type="curve" smooth="yes"/>
      <point x="174" y="-165"/>
      <point x="196" y="-162"/>
      <point x="222" y="-152" type="curve"/>
      <point x="215" y="-127" type="line"/>
      <point x="197" y="-136"/>
      <point x="176" y="-139"/>
      <point x="154" y="-139" type="curve" smooth="yes"/>
      <point x="108" y="-139"/>
      <point x="53" y="-117"/>
      <point x="53" y="-11" type="curve" smooth="yes"/>
      <point x="53" y="64"/>
      <point x="86" y="123"/>
      <point x="192" y="214" type="curve"/>
      <point x="182" y="242" type="line"/>
      <point x="120" y="236" type="line" smooth="yes"/>
      <point x="89" y="233"/>
      <point x="47" y="227"/>
      <point x="26" y="222" type="curve"/>
      <point x="38" y="216" type="line"/>
      <point x="82" y="259"/>
      <point x="148" y="328"/>
      <point x="192" y="377" type="curve"/>
      <point x="184" y="402" type="line"/>
      <point x="12" y="402" type="line"/>
      <point x="12" y="376" type="line"/>
      <point x="112" y="376" type="line" smooth="yes"/>
      <point x="134" y="376"/>
      <point x="157" y="377"/>
      <point x="175" y="379" type="curve"/>
      <point x="168" y="382" type="line"/>
      <point x="124" y="343"/>
      <point x="57" y="272"/>
      <point x="16" y="223" type="curve"/>
      <point x="25" y="199" type="line"/>
      <point x="77" y="205" type="line" smooth="yes"/>
      <point x="121" y="210"/>
      <point x="157" y="216"/>
      <point x="177" y="220" type="curve"/>
      <point x="176" y="229" type="line"/>
      <point x="82" y="157"/>
      <point x="26" y="85"/>
      <point x="26" y="-11" type="curve" smooth="yes"/>
      <point x="26" y="-122"/>
      <point x="84" y="-165"/>
    </contour>
  </outline>
</glyph>
<glyph name="ivowelsignsinh" format="2">
  <unicode hex="0DD2"/>
  <outline>
    <contour>
      <point x="-310" y="860" type="curve" smooth="yes"/>
      <point x="-449" y="860"/>
      <point x="-496" y="789"/>
      <point x="-496" y="704" type="curve" smooth="yes"/>
      <point x="-496" y="669"/>
      <point x="-489" y="642"/>
      <point x="-483" y="622" type="curve"/>
      <point x="-457" y="627" type="line"/>
      <point x="-464" y="649"/>
      <point x="-469" y="669"/>
      <point x="-469" y="703" type="curve" smooth="yes"/>
      <point x="-469" y="782"/>
      <point x="-428" y="834"/>
      <point x="-310" y="834" type="curve" smooth="yes"/>
      <point x="-191" y="834"/>
      <point x="-152" y="779"/>
      <point x="-152" y="703" type="curve" smooth="yes"/>
      <point x="-152" y="669"/>
      <point x="-157" y="649"/>
      <point x="-164" y="627" type="curve"/>
      <point x="-138" y="622" type="line"/>
      <point x="-132" y="642"/>
      <point x="-125" y="669"/>
      <point x="-125" y="703" type="curve" smooth="yes"/>
      <point x="-125" y="788"/>
      <point x="-171" y="860"/>
    </contour>
  </outline>
</glyph>
<glyph name="iivowelsignsinh" format="2">
  <unicode hex="0DD3"/>
  <outline>
    <contour>
      <point x="-310" y="860" type="curve" smooth="yes"/>
      <point x="-449" y="860"/>
      <point x="-496" y="789"/>
      <point x="-496" y="704" type="curve" smooth="yes"/>
      <point x="-496" y="669"/>
      <point x="-489" y="642"/>
      <point x="-483" y="622" type="curve"/>
      <point x="-457" y="627" type="line"/>
      <point x="-464" y="649"/>
      <point x="-469" y="669"/>
      <point x="-469" y="703" type="curve" smooth="yes"/>
      <point x="-469" y="782"/>
      <point x="-428" y="834"/>
      <point x="-310" y="834" type="curve" smooth="yes"/>
      <point x="-274" y="834"/>
      <point x="-236" y="830"/>
      <point x="-204" y="812" type="curve"/>
      <point x="-166" y="793"/>
      <point x="-141" y="752"/>
      <point x="-141" y="700" type="curve" smooth="yes"/>
      <point x="-141" y="652"/>
      <point x="-159" y="631"/>
      <point x="-194" y="631" type="curve" smooth="yes"/>
      <point x="-225" y="631"/>
      <point x="-252" y="647"/>
      <point x="-252" y="697" type="curve" smooth="yes"/>
      <point x="-252" y="749"/>
      <point x="-220" y="789"/>
      <point x="-185" y="814" type="curve"/>
      <point x="-207" y="827" type="line"/>
      <point x="-246" y="795"/>
      <point x="-279" y="755"/>
      <point x="-279" y="697" type="curve" smooth="yes"/>
      <point x="-279" y="636"/>
      <point x="-245" y="605"/>
      <point x="-194" y="605" type="curve" smooth="yes"/>
      <point x="-143" y="605"/>
      <point x="-114" y="636"/>
      <point x="-114" y="700" type="curve" smooth="yes"/>
      <point x="-114" y="789"/>
      <point x="-181" y="860"/>
    </contour>
  </outline>
</glyph>
<glyph name="uvowelsignsinh" format="2">
  <unicode hex="0DD4"/>
  <outline>
    <contour>
      <point x="-536" y="-161" type="curve" smooth="yes"/>
      <point x="-536" y="-186"/>
      <point x="-529" y="-206"/>
      <point x="-518" y="-220" type="curve" smooth="yes"/>
      <point x="-495" y="-249"/>
      <point x="-459" y="-257"/>
      <point x="-392" y="-257" type="curve" smooth="yes"/>
      <point x="-102" y="-257" type="line"/>
      <point x="-102" y="42" type="line"/>
      <point x="-128" y="42" type="line"/>
      <point x="-128" y="-231" type="line"/>
      <point x="-383" y="-231" type="line" smooth="yes"/>
      <point x="-447" y="-231"/>
      <point x="-478" y="-226"/>
      <point x="-495" y="-206" type="curve" smooth="yes"/>
      <point x="-504" y="-196"/>
      <point x="-509" y="-180"/>
      <point x="-509" y="-161" type="curve" smooth="yes"/>
      <point x="-509" y="-131"/>
      <point x="-495" y="-104"/>
      <point x="-463" y="-72" type="curve"/>
      <point x="-482" y="-54" type="line"/>
      <point x="-515" y="-88"/>
      <point x="-536" y="-119"/>
    </contour>
  </outline>
</glyph>
<glyph name="uuvowelsignsinh" format="2">
  <unicode hex="0DD6"/>
  <outline>
    <contour>
      <point x="-536" y="-164" type="curve" smooth="yes"/>
      <point x="-536" y="-229"/>
      <point x="-497" y="-257"/>
      <point x="-454" y="-257" type="curve" smooth="yes"/>
      <point x="-415" y="-257"/>
      <point x="-389" y="-242"/>
      <point x="-338" y="-207" type="curve" smooth="yes"/>
      <point x="-306" y="-185"/>
      <point x="-280" y="-173"/>
      <point x="-254" y="-173" type="curve" smooth="yes"/>
      <point x="-216" y="-173"/>
      <point x="-188" y="-187"/>
      <point x="-122" y="-257" type="curve"/>
      <point x="-102" y="-257" type="line"/>
      <point x="-102" y="42" type="line"/>
      <point x="-128" y="42" type="line"/>
      <point x="-128" y="-164" type="line" smooth="yes"/>
      <point x="-128" y="-184"/>
      <point x="-127" y="-203"/>
      <point x="-125" y="-230" type="curve"/>
      <point x="-117" y="-228" type="line"/>
      <point x="-180" y="-159"/>
      <point x="-217" y="-147"/>
      <point x="-255" y="-147" type="curve" smooth="yes"/>
      <point x="-290" y="-147"/>
      <point x="-318" y="-162"/>
      <point x="-356" y="-188" type="curve" smooth="yes"/>
      <point x="-410" y="-225"/>
      <point x="-423" y="-231"/>
      <point x="-456" y="-231" type="curve" smooth="yes"/>
      <point x="-485" y="-231"/>
      <point x="-509" y="-211"/>
      <point x="-509" y="-165" type="curve" smooth="yes"/>
      <point x="-509" y="-131"/>
      <point x="-495" y="-104"/>
      <point x="-463" y="-72" type="curve"/>
      <point x="-482" y="-54" type="line"/>
      <point x="-515" y="-88"/>
      <point x="-536" y="-119"/>
    </contour>
  </outline>
</glyph>
<glyph name="rvocalicvowelsignsinh" format="2">
  <advance width="308"/>
  <unicode hex="0DD8"/>
  <outline>
    <contour>
      <point x="122" y="-11" type="curve" smooth="yes"/>
      <point x="159" y="-11"/>
      <point x="180" y="3"/>
      <point x="202" y="28" type="curve"/>
      <point x="236" y="0" type="line"/>
      <point x="252" y="18" type="line"/>
      <point x="212" y="53" type="line"/>
      <point x="189" y="53" type="line"/>
      <point x="171" y="29"/>
      <point x="156" y="15"/>
      <point x="123" y="15" type="curve" smooth="yes"/>
      <point x="84" y="15"/>
      <point x="48" y="48"/>
      <point x="48" y="146" type="curve" smooth="yes"/>
      <point x="48" y="202"/>
      <point x="61" y="242"/>
      <point x="92" y="267" type="curve" smooth="yes"/>
      <point x="118" y="288"/>
      <point x="153" y="299"/>
      <point x="217" y="299" type="curve" smooth="yes"/>
      <point x="245" y="299" type="line"/>
      <point x="251" y="325" type="line"/>
      <point x="220" y="325" type="line" smooth="yes"/>
      <point x="154" y="325"/>
      <point x="108" y="314"/>
      <point x="75" y="287" type="curve" smooth="yes"/>
      <point x="41" y="259"/>
      <point x="21" y="214"/>
      <point x="21" y="146" type="curve" smooth="yes"/>
      <point x="21" y="44"/>
      <point x="60" y="-11"/>
    </contour>
    <contour>
      <point x="236" y="0" type="line"/>
      <point x="260" y="0" type="line"/>
      <point x="260" y="336" type="line" smooth="yes"/>
      <point x="260" y="422"/>
      <point x="252" y="488"/>
      <point x="207" y="526" type="curve" smooth="yes"/>
      <point x="185" y="544"/>
      <point x="158" y="555"/>
      <point x="120" y="555" type="curve" smooth="yes"/>
      <point x="86" y="555"/>
      <point x="57" y="548"/>
      <point x="27" y="538" type="curve"/>
      <point x="35" y="513" type="line"/>
      <point x="56" y="522"/>
      <point x="89" y="529"/>
      <point x="120" y="529" type="curve" smooth="yes"/>
      <point x="153" y="529"/>
      <point x="177" y="519"/>
      <point x="194" y="502" type="curve" smooth="yes"/>
      <point x="229" y="467"/>
      <point x="234" y="399"/>
      <point x="234" y="335" type="curve" smooth="yes"/>
      <point x="234" y="25" type="line"/>
    </contour>
  </outline>
</glyph>
<glyph name="evowelsignsinh" format="2">
  <advance width="437"/>
  <unicode hex="0DD9"/>
  <outline>
    <contour>
      <point x="239" y="-11" type="curve" smooth="yes"/>
      <point x="360" y="-11"/>
      <point x="409" y="70"/>
      <point x="409" y="193" type="curve" smooth="yes"/>
      <point x="409" y="283"/>
      <point x="369" y="370"/>
      <point x="271" y="370" type="curve" smooth="yes"/>
      <point x="210" y="370"/>
      <point x="169" y="333"/>
      <point x="169" y="263" type="curve" smooth="yes"/>
      <point x="169" y="191"/>
      <point x="204" y="168"/>
      <point x="241" y="168" type="curve" smooth="yes"/>
      <point x="280" y="168"/>
      <point x="314" y="189"/>
      <point x="314" y="260" type="curve" smooth="yes"/>
      <point x="314" y="298"/>
      <point x="302" y="331"/>
      <point x="288" y="352" type="curve"/>
      <point x="260" y="351" type="line"/>
      <point x="278" y="326"/>
      <point x="288" y="294"/>
      <point x="288" y="260" type="curve" smooth="yes"/>
      <point x="288" y="212"/>
      <point x="271" y="194"/>
      <point x="240" y="194" type="curve" smooth="yes"/>
      <point x="208" y="194"/>
      <point x="196" y="221"/>
      <point x="196" y="263" type="curve" smooth="yes"/>
      <point x="196" y="313"/>
      <point x="220" y="345"/>
      <point x="272" y="345" type="curve" smooth="yes"/>
      <point x="275" y="345"/>
      <point x="281" y="345"/>
      <point x="287" y="344" type="curve"/>
      <point x="344" y="336"/>
      <point x="382" y="283"/>
      <point x="382" y="192" type="curve" smooth="yes"/>
      <point x="382" y="81"/>
      <point x="343" y="15"/>
      <point x="239" y="15" type="curve" smooth="yes"/>
      <point x="97" y="15"/>
      <point x="66" y="150"/>
      <point x="66" y="260" type="curve" smooth="yes"/>
      <point x="66" y="429"/>
      <point x="135" y="530"/>
      <point x="275" y="530" type="curve" smooth="yes"/>
      <point x="319" y="530"/>
      <point x="354" y="523"/>
      <point x="399" y="505" type="curve"/>
      <point x="407" y="531" type="line"/>
      <point x="362" y="547"/>
      <point x="325" y="556"/>
      <point x="275" y="556" type="curve" smooth="yes"/>
      <point x="118" y="556"/>
      <point x="39" y="441"/>
      <point x="39" y="260" type="curve" smooth="yes"/>
      <point x="39" y="112"/>
      <point x="93" y="-11"/>
    </contour>
  </outline>
</glyph>
<glyph name="lvocalicvowelsignsinh" format="2">
  <advance width="379"/>
  <unicode hex="0DDF"/>
  <outline>
    <contour>
      <point x="198" y="-11" type="curve" smooth="yes"/>
      <point x="266" y="-11"/>
      <point x="337" y="25"/>
      <point x="337" y="278" type="curve" smooth="yes"/>
      <point x="337" y="513"/>
      <point x="277" y="555"/>
      <point x="219" y="555" type="curve" smooth="yes"/>
      <point x="170" y="555"/>
      <point x="132" y="514"/>
      <point x="108" y="452" type="curve"/>
      <point x="130" y="434" type="line"/>
      <point x="134" y="452" type="line"/>
      <point x="154" y="496"/>
      <point x="184" y="529"/>
      <point x="218" y="529" type="curve" smooth="yes"/>
      <point x="267" y="529"/>
      <point x="310" y="483"/>
      <point x="310" y="279" type="curve" smooth="yes"/>
      <point x="310" y="52"/>
      <point x="258" y="15"/>
      <point x="199" y="15" type="curve" smooth="yes"/>
      <point x="173" y="15"/>
      <point x="155" y="19"/>
      <point x="129" y="28" type="curve"/>
      <point x="124" y="3" type="line"/>
      <point x="151" y="-7"/>
      <point x="173" y="-11"/>
    </contour>
    <contour>
      <point x="129" y="275" type="curve" smooth="yes"/>
      <point x="183" y="275"/>
      <point x="223" y="309"/>
      <point x="223" y="383" type="curve" smooth="yes"/>
      <point x="223" y="439"/>
      <point x="197" y="468"/>
      <point x="164" y="468" type="curve" smooth="yes"/>
      <point x="148" y="468"/>
      <point x="135" y="462"/>
      <point x="122" y="453" type="curve"/>
      <point x="130" y="434" type="line"/>
      <point x="139" y="441"/>
      <point x="148" y="444"/>
      <point x="158" y="444" type="curve" smooth="yes"/>
      <point x="181" y="444"/>
      <point x="197" y="424"/>
      <point x="197" y="383" type="curve" smooth="yes"/>
      <point x="197" y="321"/>
      <point x="165" y="301"/>
      <point x="130" y="301" type="curve" smooth="yes"/>
      <point x="73" y="301"/>
      <point x="54" y="355"/>
      <point x="54" y="417" type="curve" smooth="yes"/>
      <point x="54" y="465"/>
      <point x="66" y="504"/>
      <point x="82" y="546" type="curve"/>
      <point x="57" y="554" type="line"/>
      <point x="42" y="519"/>
      <point x="27" y="469"/>
      <point x="27" y="417" type="curve" smooth="yes"/>
      <point x="27" y="334"/>
      <point x="61" y="275"/>
    </contour>
  </outline>
</glyph>
<glyph name="uni0DE6" format="2">
  <advance width="226"/>
  <unicode hex="0DE6"/>
  <outline>
    <contour>
      <point x="73" y="0" type="line"/>
      <point x="99" y="0" type="line"/>
      <point x="99" y="500" type="line"/>
      <point x="89" y="540" type="line"/>
      <point x="88" y="568"/>
      <point x="68" y="598"/>
      <point x="41" y="612" type="curve"/>
      <point x="25" y="588" type="line"/>
      <point x="41" y="579"/>
      <point x="52" y="569"/>
      <point x="59" y="558" type="curve" smooth="yes"/>
      <point x="72" y="538"/>
      <point x="73" y="519"/>
      <point x="73" y="476" type="curve" smooth="yes"/>
    </contour>
    <contour>
      <point x="135" y="444" type="curve" smooth="yes"/>
      <point x="184" y="444"/>
      <point x="205" y="478"/>
      <point x="205" y="530" type="curve" smooth="yes"/>
      <point x="205" y="588"/>
      <point x="176" y="612"/>
      <point x="142" y="612" type="curve" smooth="yes"/>
      <point x="108" y="612"/>
      <point x="88" y="583"/>
      <point x="83" y="552" type="curve"/>
      <point x="99" y="491" type="line"/>
      <point x="99" y="504" type="line" smooth="yes"/>
      <point x="99" y="550"/>
      <point x="108" y="586"/>
      <point x="142" y="586" type="curve" smooth="yes"/>
      <point x="167" y="586"/>
      <point x="179" y="569"/>
      <point x="179" y="529" type="curve" smooth="yes"/>
      <point x="179" y="486"/>
      <point x="164" y="470"/>
      <point x="132" y="470" type="curve" smooth="yes"/>
      <point x="110" y="470"/>
      <point x="99" y="476"/>
      <point x="88" y="482" type="curve"/>
      <point x="82" y="457" type="line"/>
      <point x="95" y="450"/>
      <point x="108" y="444"/>
    </contour>
  </outline>
</glyph>
<glyph name="uni0DE7" format="2">
  <advance width="617"/>
  <unicode hex="0DE7"/>
  <outline>
    <contour>
      <point x="246" y="-11" type="curve" smooth="yes"/>
      <point x="366" y="-11"/>
      <point x="422" y="86"/>
      <point x="422" y="208" type="curve" smooth="yes"/>
      <point x="422" y="331"/>
      <point x="367" y="409"/>
      <point x="273" y="409" type="curve" smooth="yes"/>
      <point x="212" y="409"/>
      <point x="169" y="368"/>
      <point x="169" y="295" type="curve" smooth="yes"/>
      <point x="169" y="223"/>
      <point x="203" y="192"/>
      <point x="246" y="192" type="curve" smooth="yes"/>
      <point x="287" y="192"/>
      <point x="320" y="218"/>
      <point x="320" y="292" type="curve" smooth="yes"/>
      <point x="320" y="332"/>
      <point x="308" y="362"/>
      <point x="292" y="388" type="curve"/>
      <point x="261" y="389" type="line"/>
      <point x="281" y="363"/>
      <point x="293" y="331"/>
      <point x="293" y="292" type="curve" smooth="yes"/>
      <point x="293" y="234"/>
      <point x="273" y="218"/>
      <point x="247" y="218" type="curve" smooth="yes"/>
      <point x="213" y="218"/>
      <point x="196" y="245"/>
      <point x="196" y="295" type="curve" smooth="yes"/>
      <point x="196" y="346"/>
      <point x="224" y="384"/>
      <point x="268" y="384" type="curve" smooth="yes"/>
      <point x="275" y="384"/>
      <point x="285" y="384"/>
      <point x="290" y="384" type="curve"/>
      <point x="356" y="373"/>
      <point x="395" y="313"/>
      <point x="395" y="210" type="curve" smooth="yes"/>
      <point x="395" y="93"/>
      <point x="345" y="15"/>
      <point x="247" y="15" type="curve" smooth="yes"/>
      <point x="124" y="15"/>
      <point x="67" y="125"/>
      <point x="67" y="291" type="curve" smooth="yes"/>
      <point x="67" y="474"/>
      <point x="147" y="586"/>
      <point x="271" y="586" type="curve" smooth="yes"/>
      <point x="459" y="586"/>
      <point x="557" y="357"/>
      <point x="559" y="-1" type="curve"/>
      <point x="586" y="1" type="line"/>
      <point x="583" y="378"/>
      <point x="475" y="612"/>
      <point x="271" y="612" type="curve" smooth="yes"/>
      <point x="129" y="612"/>
      <point x="40" y="486"/>
      <point x="40" y="289" type="curve" smooth="yes"/>
      <point x="40" y="110"/>
      <point x="109" y="-11"/>
    </contour>
  </outline>
</glyph>
<glyph name="uni0DE8" format="2">
  <advance width="854"/>
  <unicode hex="0DE8"/>
  <outline>
    <contour>
      <point x="508" y="399" type="curve"/>
      <point x="522" y="363" type="line"/>
      <point x="553" y="491"/>
      <point x="589" y="586"/>
      <point x="662" y="586" type="curve" smooth="yes"/>
      <point x="750" y="586"/>
      <point x="785" y="461"/>
      <point x="785" y="316" type="curve" smooth="yes"/>
      <point x="785" y="142"/>
      <point x="766" y="24"/>
      <point x="664" y="24" type="curve" smooth="yes"/>
      <point x="653" y="24"/>
      <point x="643" y="25"/>
      <point x="634" y="27" type="curve"/>
      <point x="633" y="1" type="line"/>
      <point x="643" y="-1"/>
      <point x="653" y="-2"/>
      <point x="664" y="-2" type="curve" smooth="yes"/>
      <point x="773" y="-2"/>
      <point x="812" y="100"/>
      <point x="812" y="314" type="curve" smooth="yes"/>
      <point x="812" y="486"/>
      <point x="765" y="612"/>
      <point x="664" y="612" type="curve" smooth="yes"/>
      <point x="581" y="612"/>
      <point x="533" y="528"/>
    </contour>
    <contour>
      <point x="246" y="-11" type="curve" smooth="yes"/>
      <point x="366" y="-11"/>
      <point x="422" y="86"/>
      <point x="422" y="208" type="curve" smooth="yes"/>
      <point x="422" y="331"/>
      <point x="367" y="409"/>
      <point x="273" y="409" type="curve" smooth="yes"/>
      <point x="212" y="409"/>
      <point x="169" y="368"/>
      <point x="169" y="295" type="curve" smooth="yes"/>
      <point x="169" y="223"/>
      <point x="203" y="192"/>
      <point x="246" y="192" type="curve" smooth="yes"/>
      <point x="287" y="192"/>
      <point x="320" y="218"/>
      <point x="320" y="292" type="curve" smooth="yes"/>
      <point x="320" y="332"/>
      <point x="308" y="362"/>
      <point x="292" y="388" type="curve"/>
      <point x="261" y="389" type="line"/>
      <point x="281" y="363"/>
      <point x="293" y="331"/>
      <point x="293" y="292" type="curve" smooth="yes"/>
      <point x="293" y="234"/>
      <point x="273" y="218"/>
      <point x="247" y="218" type="curve" smooth="yes"/>
      <point x="213" y="218"/>
      <point x="196" y="245"/>
      <point x="196" y="295" type="curve" smooth="yes"/>
      <point x="196" y="346"/>
      <point x="224" y="384"/>
      <point x="268" y="384" type="curve" smooth="yes"/>
      <point x="275" y="384"/>
      <point x="285" y="384"/>
      <point x="290" y="384" type="curve"/>
      <point x="356" y="373"/>
      <point x="395" y="313"/>
      <point x="395" y="210" type="curve" smooth="yes"/>
      <point x="395" y="93"/>
      <point x="345" y="15"/>
      <point x="247" y="15" type="curve" smooth="yes"/>
      <point x="124" y="15"/>
      <point x="67" y="125"/>
      <point x="67" y="291" type="curve" smooth="yes"/>
      <point x="67" y="474"/>
      <point x="147" y="586"/>
      <point x="271" y="586" type="curve" smooth="yes"/>
      <point x="459" y="586"/>
      <point x="557" y="357"/>
      <point x="559" y="-1" type="curve"/>
      <point x="585" y="1" type="line"/>
      <point x="582" y="378"/>
      <point x="475" y="612"/>
      <point x="271" y="612" type="curve" smooth="yes"/>
      <point x="129" y="612"/>
      <point x="40" y="486"/>
      <point x="40" y="289" type="curve" smooth="yes"/>
      <point x="40" y="110"/>
      <point x="109" y="-11"/>
    </contour>
  </outline>
</glyph>
<glyph name="uni0DEA" format="2">
  <advance width="554"/>
  <unicode hex="0DEA"/>
  <outline>
    <contour>
      <point x="277" y="-11" type="curve" smooth="yes"/>
      <point x="440" y="-11"/>
      <point x="516" y="95"/>
      <point x="516" y="238" type="curve" smooth="yes"/>
      <point x="516" y="332"/>
      <point x="475" y="397"/>
      <point x="399" y="424" type="curve" smooth="yes"/>
      <point x="373" y="433"/>
      <point x="343" y="438"/>
      <point x="309" y="438" type="curve" smooth="yes"/>
      <point x="296" y="438" type="line"/>
      <point x="315" y="433" type="line"/>
      <point x="315" y="435" type="line"/>
      <point x="320" y="545"/>
      <point x="351" y="586"/>
      <point x="405" y="586" type="curve" smooth="yes"/>
      <point x="448" y="586"/>
      <point x="466" y="556"/>
      <point x="466" y="513" type="curve" smooth="yes"/>
      <point x="466" y="464"/>
      <point x="449" y="445"/>
      <point x="422" y="445" type="curve" smooth="yes"/>
      <point x="397" y="445"/>
      <point x="377" y="462"/>
      <point x="377" y="525" type="curve" smooth="yes"/>
      <point x="377" y="555"/>
      <point x="380" y="572"/>
      <point x="384" y="593" type="curve" smooth="yes"/>
      <point x="385" y="601" type="line"/>
      <point x="406" y="685"/>
      <point x="463" y="743"/>
      <point x="532" y="788" type="curve"/>
      <point x="518" y="810" type="line"/>
      <point x="420" y="745"/>
      <point x="351" y="655"/>
      <point x="351" y="527" type="curve" smooth="yes"/>
      <point x="351" y="525" type="line" smooth="yes"/>
      <point x="351" y="463"/>
      <point x="371" y="420"/>
      <point x="423" y="420" type="curve" smooth="yes"/>
      <point x="473" y="420"/>
      <point x="493" y="459"/>
      <point x="493" y="515" type="curve" smooth="yes"/>
      <point x="493" y="571"/>
      <point x="461" y="612"/>
      <point x="408" y="612" type="curve" smooth="yes"/>
      <point x="395" y="612"/>
      <point x="384" y="610"/>
      <point x="374" y="607" type="curve"/>
      <point x="367" y="605" type="line"/>
      <point x="323" y="589"/>
      <point x="289" y="530"/>
      <point x="289" y="429" type="curve" smooth="yes"/>
      <point x="289" y="412" type="line"/>
      <point x="302" y="412" type="line" smooth="yes"/>
      <point x="366" y="412"/>
      <point x="408" y="399"/>
      <point x="439" y="372" type="curve" smooth="yes"/>
      <point x="472" y="343"/>
      <point x="489" y="298"/>
      <point x="489" y="237" type="curve" smooth="yes"/>
      <point x="489" y="114"/>
      <point x="429" y="15"/>
      <point x="277" y="15" type="curve" smooth="yes"/>
      <point x="125" y="15"/>
      <point x="65" y="114"/>
      <point x="65" y="237" type="curve" smooth="yes"/>
      <point x="65" y="298"/>
      <point x="82" y="343"/>
      <point x="115" y="372" type="curve" smooth="yes"/>
      <point x="146" y="399"/>
      <point x="188" y="412"/>
      <point x="252" y="412" type="curve" smooth="yes"/>
      <point x="265" y="412" type="line"/>
      <point x="265" y="421" type="line" smooth="yes"/>
      <point x="265" y="542"/>
      <point x="227" y="612"/>
      <point x="151" y="612" type="curve" smooth="yes"/>
      <point x="97" y="612"/>
      <point x="62" y="572"/>
      <point x="62" y="518" type="curve" smooth="yes"/>
      <point x="62" y="461"/>
      <point x="92" y="433"/>
      <point x="129" y="433" type="curve" smooth="yes"/>
      <point x="161" y="433"/>
      <point x="185" y="449"/>
      <point x="199" y="482" type="curve"/>
      <point x="178" y="497" type="line"/>
      <point x="166" y="470"/>
      <point x="152" y="459"/>
      <point x="131" y="459" type="curve" smooth="yes"/>
      <point x="108" y="459"/>
      <point x="89" y="474"/>
      <point x="89" y="518" type="curve" smooth="yes"/>
      <point x="89" y="558"/>
      <point x="112" y="586"/>
      <point x="153" y="586" type="curve" smooth="yes"/>
      <point x="206" y="586"/>
      <point x="237" y="532"/>
      <point x="239" y="433" type="curve"/>
      <point x="258" y="438" type="line"/>
      <point x="239" y="438" type="line" smooth="yes"/>
      <point x="112" y="438"/>
      <point x="38" y="364"/>
      <point x="38" y="238" type="curve" smooth="yes"/>
      <point x="38" y="95"/>
      <point x="113" y="-11"/>
    </contour>
  </outline>
</glyph>
<glyph name="uni0DEB" format="2">
  <advance width="399"/>
  <unicode hex="0DEB"/>
  <outline>
    <contour>
      <point x="351" y="-271" type="curve" smooth="yes"/>
      <point x="367" y="-271"/>
      <point x="391" y="-267"/>
      <point x="409" y="-259" type="curve"/>
      <point x="402" y="-235" type="line"/>
      <point x="387" y="-241"/>
      <point x="369" y="-245"/>
      <point x="352" y="-245" type="curve" smooth="yes"/>
      <point x="288" y="-245"/>
      <point x="267" y="-203"/>
      <point x="267" y="-152" type="curve" smooth="yes"/>
      <point x="267" y="-80"/>
      <point x="309" y="-31"/>
      <point x="365" y="16" type="curve"/>
      <point x="350" y="22" type="line"/>
      <point x="337" y="20" type="line"/>
      <point x="287" y="-21"/>
      <point x="241" y="-75"/>
      <point x="241" y="-153" type="curve" smooth="yes"/>
      <point x="241" y="-215"/>
      <point x="270" y="-271"/>
    </contour>
    <contour>
      <point x="253" y="-11" type="curve" smooth="yes"/>
      <point x="296" y="-11"/>
      <point x="339" y="-4"/>
      <point x="389" y="26" type="curve"/>
      <point x="377" y="49" type="line"/>
      <point x="335" y="24"/>
      <point x="308" y="15"/>
      <point x="255" y="15" type="curve" smooth="yes"/>
      <point x="129" y="15"/>
      <point x="65" y="92"/>
      <point x="65" y="219" type="curve" smooth="yes"/>
      <point x="65" y="283"/>
      <point x="85" y="331"/>
      <point x="123" y="363" type="curve" smooth="yes"/>
      <point x="162" y="396"/>
      <point x="216" y="412"/>
      <point x="305" y="412" type="curve" smooth="yes"/>
      <point x="370" y="412" type="line"/>
      <point x="370" y="425" type="line" smooth="yes"/>
      <point x="370" y="544"/>
      <point x="324" y="612"/>
      <point x="248" y="612" type="curve" smooth="yes"/>
      <point x="194" y="612"/>
      <point x="159" y="572"/>
      <point x="159" y="518" type="curve" smooth="yes"/>
      <point x="159" y="461"/>
      <point x="189" y="434"/>
      <point x="226" y="434" type="curve" smooth="yes"/>
      <point x="258" y="434"/>
      <point x="281" y="449"/>
      <point x="296" y="482" type="curve"/>
      <point x="275" y="497" type="line"/>
      <point x="263" y="470"/>
      <point x="249" y="459"/>
      <point x="228" y="459" type="curve" smooth="yes"/>
      <point x="205" y="459"/>
      <point x="186" y="474"/>
      <point x="186" y="518" type="curve" smooth="yes"/>
      <point x="186" y="558"/>
      <point x="209" y="586"/>
      <point x="250" y="586" type="curve" smooth="yes"/>
      <point x="303" y="586"/>
      <point x="341" y="534"/>
      <point x="344" y="438" type="curve"/>
      <point x="304" y="438" type="line" smooth="yes"/>
      <point x="212" y="438"/>
      <point x="147" y="420"/>
      <point x="102" y="380" type="curve" smooth="yes"/>
      <point x="60" y="343"/>
      <point x="38" y="292"/>
      <point x="38" y="220" type="curve" smooth="yes"/>
      <point x="38" y="78"/>
      <point x="114" y="-11"/>
    </contour>
  </outline>
</glyph>
<glyph name="uni0DEC" format="2">
  <advance width="631"/>
  <unicode hex="0DEC"/>
  <outline>
    <contour>
      <point x="481" y="-11" type="curve" smooth="yes"/>
      <point x="547" y="-11"/>
      <point x="595" y="34"/>
      <point x="595" y="197" type="curve" smooth="yes"/>
      <point x="595" y="408"/>
      <point x="497" y="555"/>
      <point x="322" y="555" type="curve" smooth="yes"/>
      <point x="129" y="555"/>
      <point x="36" y="398"/>
      <point x="36" y="217" type="curve" smooth="yes"/>
      <point x="36" y="49"/>
      <point x="102" y="-11"/>
      <point x="183" y="-11" type="curve" smooth="yes"/>
      <point x="221" y="-11"/>
      <point x="255" y="-3"/>
      <point x="294" y="22" type="curve"/>
      <point x="281" y="45" type="line"/>
      <point x="250" y="24"/>
      <point x="225" y="15"/>
      <point x="184" y="15" type="curve" smooth="yes"/>
      <point x="116" y="15"/>
      <point x="63" y="67"/>
      <point x="63" y="216" type="curve" smooth="yes"/>
      <point x="63" y="383"/>
      <point x="144" y="529"/>
      <point x="322" y="529" type="curve" smooth="yes"/>
      <point x="463" y="529"/>
      <point x="524" y="430"/>
      <point x="552" y="323" type="curve" smooth="yes"/>
      <point x="554" y="315" type="line" smooth="yes"/>
      <point x="564" y="275"/>
      <point x="568" y="234"/>
      <point x="568" y="197" type="curve" smooth="yes"/>
      <point x="568" y="47"/>
      <point x="529" y="15"/>
      <point x="483" y="15" type="curve" smooth="yes"/>
      <point x="434" y="15"/>
      <point x="399" y="51"/>
      <point x="399" y="165" type="curve" smooth="yes"/>
      <point x="399" y="272"/>
      <point x="443" y="314"/>
      <point x="499" y="314" type="curve" smooth="yes"/>
      <point x="525" y="314"/>
      <point x="546" y="310"/>
      <point x="570" y="297" type="curve"/>
      <point x="573" y="322" type="line"/>
      <point x="549" y="335"/>
      <point x="527" y="340"/>
      <point x="499" y="340" type="curve" smooth="yes"/>
      <point x="425" y="340"/>
      <point x="372" y="282"/>
      <point x="372" y="167" type="curve" smooth="yes"/>
      <point x="372" y="33"/>
      <point x="421" y="-11"/>
    </contour>
  </outline>
</glyph>
<glyph name="uni0DED" format="2">
  <advance width="281"/>
  <unicode hex="0DED"/>
  <outline>
    <contour>
      <point x="193" y="-11" type="curve" smooth="yes"/>
      <point x="215" y="-11"/>
      <point x="239" y="-7"/>
      <point x="268" y="4" type="curve"/>
      <point x="260" y="28" type="line"/>
      <point x="241" y="19"/>
      <point x="218" y="15"/>
      <point x="193" y="15" type="curve" smooth="yes"/>
      <point x="142" y="15"/>
      <point x="81" y="43"/>
      <point x="81" y="180" type="curve" smooth="yes"/>
      <point x="81" y="287"/>
      <point x="119" y="398"/>
      <point x="236" y="576" type="curve"/>
      <point x="226" y="601" type="line"/>
      <point x="39" y="601" type="line"/>
      <point x="39" y="575" type="line"/>
      <point x="154" y="575" type="line" smooth="yes"/>
      <point x="183" y="575"/>
      <point x="204" y="576"/>
      <point x="220" y="580" type="curve"/>
      <point x="210" y="583" type="line"/>
      <point x="77" y="380"/>
      <point x="55" y="275"/>
      <point x="55" y="177" type="curve" smooth="yes"/>
      <point x="55" y="45"/>
      <point x="112" y="-11"/>
    </contour>
  </outline>
</glyph>
<glyph name="uni0DEE" format="2">
  <advance width="498"/>
  <unicode hex="0DEE"/>
  <outline>
    <contour>
      <point x="242" y="-11" type="curve" smooth="yes"/>
      <point x="392" y="-11"/>
      <point x="458" y="110"/>
      <point x="458" y="281" type="curve" smooth="yes"/>
      <point x="458" y="470"/>
      <point x="373" y="551"/>
      <point x="272" y="551" type="curve" smooth="yes"/>
      <point x="249" y="551"/>
      <point x="233" y="547"/>
      <point x="213" y="539" type="curve"/>
      <point x="218" y="516" type="line"/>
      <point x="237" y="523"/>
      <point x="255" y="525"/>
      <point x="272" y="525" type="curve" smooth="yes"/>
      <point x="365" y="525"/>
      <point x="431" y="444"/>
      <point x="431" y="281" type="curve" smooth="yes"/>
      <point x="431" y="129"/>
      <point x="379" y="15"/>
      <point x="243" y="15" type="curve" smooth="yes"/>
      <point x="120" y="15"/>
      <point x="67" y="109"/>
      <point x="67" y="267" type="curve" smooth="yes"/>
      <point x="67" y="393"/>
      <point x="124" y="484"/>
      <point x="229" y="541" type="curve"/>
      <point x="233" y="544" type="line"/>
      <point x="303" y="594"/>
      <point x="413" y="689"/>
      <point x="482" y="779" type="curve"/>
      <point x="462" y="797" type="line"/>
      <point x="391" y="710"/>
      <point x="314" y="636"/>
      <point x="234" y="578" type="curve"/>
      <point x="125" y="510"/>
      <point x="40" y="433"/>
      <point x="40" y="265" type="curve" smooth="yes"/>
      <point x="40" y="95"/>
      <point x="104" y="-11"/>
    </contour>
  </outline>
</glyph>
<glyph name="llvocalicvowelsignsinh" format="2">
  <advance width="379"/>
  <unicode hex="0DF3"/>
  <outline>
    <contour>
      <point x="187" y="-11" type="curve" smooth="yes"/>
      <point x="271" y="-11"/>
      <point x="337" y="42"/>
      <point x="337" y="278" type="curve" smooth="yes"/>
      <point x="337" y="513"/>
      <point x="277" y="555"/>
      <point x="219" y="555" type="curve" smooth="yes"/>
      <point x="170" y="555"/>
      <point x="132" y="514"/>
      <point x="108" y="452" type="curve"/>
      <point x="130" y="434" type="line"/>
      <point x="134" y="452" type="line"/>
      <point x="154" y="496"/>
      <point x="184" y="529"/>
      <point x="218" y="529" type="curve" smooth="yes"/>
      <point x="267" y="529"/>
      <point x="310" y="483"/>
      <point x="310" y="279" type="curve" smooth="yes"/>
      <point x="310" y="209"/>
      <point x="304" y="153"/>
      <point x="292" y="111" type="curve"/>
      <point x="278" y="47"/>
      <point x="240" y="15"/>
      <point x="188" y="15" type="curve" smooth="yes"/>
      <point x="133" y="15"/>
      <point x="100" y="44"/>
      <point x="100" y="98" type="curve" smooth="yes"/>
      <point x="100" y="148"/>
      <point x="129" y="173"/>
      <point x="169" y="173" type="curve" smooth="yes"/>
      <point x="209" y="173"/>
      <point x="251" y="145"/>
      <point x="296" y="88" type="curve"/>
      <point x="310" y="108" type="line"/>
      <point x="268" y="167"/>
      <point x="218" y="199"/>
      <point x="169" y="199" type="curve" smooth="yes"/>
      <point x="112" y="199"/>
      <point x="73" y="161"/>
      <point x="73" y="98" type="curve" smooth="yes"/>
      <point x="73" y="33"/>
      <point x="115" y="-11"/>
    </contour>
    <contour>
      <point x="129" y="275" type="curve" smooth="yes"/>
      <point x="183" y="275"/>
      <point x="223" y="309"/>
      <point x="223" y="383" type="curve" smooth="yes"/>
      <point x="223" y="439"/>
      <point x="197" y="468"/>
      <point x="164" y="468" type="curve" smooth="yes"/>
      <point x="148" y="468"/>
      <point x="135" y="462"/>
      <point x="122" y="453" type="curve"/>
      <point x="130" y="434" type="line"/>
      <point x="139" y="441"/>
      <point x="148" y="444"/>
      <point x="158" y="444" type="curve" smooth="yes"/>
      <point x="181" y="444"/>
      <point x="197" y="424"/>
      <point x="197" y="383" type="curve" smooth="yes"/>
      <point x="197" y="321"/>
      <point x="165" y="301"/>
      <point x="130" y="301" type="curve" smooth="yes"/>
      <point x="73" y="301"/>
      <point x="54" y="355"/>
      <point x="54" y="417" type="curve" smooth="yes"/>
      <point x="54" y="465"/>
      <point x="66" y="504"/>
      <point x="82" y="546" type="curve"/>
      <point x="57" y="554" type="line"/>
      <point x="42" y="519"/>
      <point x="27" y="469"/>
      <point x="27" y="417" type="curve" smooth="yes"/>
      <point x="27" y="334"/>
      <point x="61" y="275"/>
    </contour>
  </outline>
</glyph>
